%TF.GenerationSoftware,KiCad,Pcbnew,9.0.6*%
%TF.CreationDate,2026-06-19T22:16:40+02:00*%
%TF.ProjectId,Seminarni rad ver 2,53656d69-6e61-4726-9e69-207261642076,rev?*%
%TF.SameCoordinates,Original*%
%TF.FileFunction,Drillmap*%
%TF.FilePolarity,Positive*%
%FSLAX45Y45*%
G04 Gerber Fmt 4.5, Leading zero omitted, Abs format (unit mm)*
G04 Created by KiCad (PCBNEW 9.0.6) date 2026-06-19 22:16:40*
%MOMM*%
%LPD*%
G01*
G04 APERTURE LIST*
%ADD10C,0.050000*%
%ADD11C,0.200000*%
%ADD12C,0.100000*%
%ADD13C,0.110000*%
%ADD14C,0.120000*%
%ADD15C,0.150000*%
G04 APERTURE END LIST*
D10*
X8128000Y-13208000D02*
G75*
G02*
X6096000Y-11176000I0J2032000D01*
G01*
X6096000Y-11176000D02*
X6096000Y-6096000D01*
X6096000Y-6096000D02*
G75*
G02*
X8128000Y-4064000I2032000J0D01*
G01*
X15748000Y-13208000D02*
X8128000Y-13208000D01*
X8128000Y-4064000D02*
X15748000Y-4064000D01*
X15748000Y-4064000D02*
G75*
G02*
X17780000Y-6096000I0J-2032000D01*
G01*
X17780000Y-6096000D02*
X17780000Y-11176000D01*
X17780000Y-11176000D02*
G75*
G02*
X15748000Y-13208000I-2032000J0D01*
G01*
D11*
D12*
X10526000Y-8635000D02*
X10556000Y-8665000D01*
X10556000Y-8635000D02*
X10526000Y-8665000D01*
X10956000Y-8115000D02*
X10986000Y-8145000D01*
X10986000Y-8115000D02*
X10956000Y-8145000D01*
X11116000Y-6547000D02*
X11146000Y-6577000D01*
X11146000Y-6547000D02*
X11116000Y-6577000D01*
X11296000Y-8395000D02*
X11326000Y-8425000D01*
X11326000Y-8395000D02*
X11296000Y-8425000D01*
X14536000Y-9425000D02*
X14566000Y-9455000D01*
X14566000Y-9425000D02*
X14536000Y-9455000D01*
X15001000Y-9020000D02*
X15031000Y-9050000D01*
X15031000Y-9020000D02*
X15001000Y-9050000D01*
X15001000Y-9285000D02*
X15031000Y-9315000D01*
X15031000Y-9285000D02*
X15001000Y-9315000D01*
X15156000Y-9345000D02*
X15186000Y-9375000D01*
X15186000Y-9345000D02*
X15156000Y-9375000D01*
X15273500Y-9320000D02*
X15303500Y-9350000D01*
X15303500Y-9320000D02*
X15273500Y-9350000D01*
X12739500Y-6435000D02*
G75*
G02*
X12664500Y-6435000I-37500J0D01*
G01*
X12664500Y-6435000D02*
G75*
G02*
X12739500Y-6435000I37500J0D01*
G01*
X12739500Y-6562000D02*
G75*
G02*
X12664500Y-6562000I-37500J0D01*
G01*
X12664500Y-6562000D02*
G75*
G02*
X12739500Y-6562000I37500J0D01*
G01*
X12739500Y-6689000D02*
G75*
G02*
X12664500Y-6689000I-37500J0D01*
G01*
X12664500Y-6689000D02*
G75*
G02*
X12739500Y-6689000I37500J0D01*
G01*
X9869000Y-6022000D02*
X9869000Y-6102000D01*
X9829000Y-6062000D02*
X9909000Y-6062000D01*
X9869000Y-6276000D02*
X9869000Y-6356000D01*
X9829000Y-6316000D02*
X9909000Y-6316000D01*
X9869000Y-6530000D02*
X9869000Y-6610000D01*
X9829000Y-6570000D02*
X9909000Y-6570000D01*
X9869000Y-6784000D02*
X9869000Y-6864000D01*
X9829000Y-6824000D02*
X9909000Y-6824000D01*
X10631000Y-6022000D02*
X10631000Y-6102000D01*
X10591000Y-6062000D02*
X10671000Y-6062000D01*
X10631000Y-6276000D02*
X10631000Y-6356000D01*
X10591000Y-6316000D02*
X10671000Y-6316000D01*
X10631000Y-6530000D02*
X10631000Y-6610000D01*
X10591000Y-6570000D02*
X10671000Y-6570000D01*
X10631000Y-6784000D02*
X10631000Y-6864000D01*
X10591000Y-6824000D02*
X10671000Y-6824000D01*
X11233820Y-9977820D02*
X11233820Y-9914180D01*
X11170180Y-9914180D01*
X11170180Y-9977820D01*
X11233820Y-9977820D01*
X11233820Y-10231820D02*
X11233820Y-10168180D01*
X11170180Y-10168180D01*
X11170180Y-10231820D01*
X11233820Y-10231820D01*
X11233820Y-10485820D02*
X11233820Y-10422180D01*
X11170180Y-10422180D01*
X11170180Y-10485820D01*
X11233820Y-10485820D01*
X11233820Y-10739820D02*
X11233820Y-10676180D01*
X11170180Y-10676180D01*
X11170180Y-10739820D01*
X11233820Y-10739820D01*
X11233820Y-10993820D02*
X11233820Y-10930180D01*
X11170180Y-10930180D01*
X11170180Y-10993820D01*
X11233820Y-10993820D01*
X11233820Y-11247820D02*
X11233820Y-11184180D01*
X11170180Y-11184180D01*
X11170180Y-11247820D01*
X11233820Y-11247820D01*
X11233820Y-11501820D02*
X11233820Y-11438180D01*
X11170180Y-11438180D01*
X11170180Y-11501820D01*
X11233820Y-11501820D01*
X11233820Y-11755820D02*
X11233820Y-11692180D01*
X11170180Y-11692180D01*
X11170180Y-11755820D01*
X11233820Y-11755820D01*
X11233820Y-12009820D02*
X11233820Y-11946180D01*
X11170180Y-11946180D01*
X11170180Y-12009820D01*
X11233820Y-12009820D01*
X11233820Y-12263820D02*
X11233820Y-12200180D01*
X11170180Y-12200180D01*
X11170180Y-12263820D01*
X11233820Y-12263820D01*
X14027820Y-9977820D02*
X14027820Y-9914180D01*
X13964180Y-9914180D01*
X13964180Y-9977820D01*
X14027820Y-9977820D01*
X14027820Y-10231820D02*
X14027820Y-10168180D01*
X13964180Y-10168180D01*
X13964180Y-10231820D01*
X14027820Y-10231820D01*
X14027820Y-10485820D02*
X14027820Y-10422180D01*
X13964180Y-10422180D01*
X13964180Y-10485820D01*
X14027820Y-10485820D01*
X14027820Y-10739820D02*
X14027820Y-10676180D01*
X13964180Y-10676180D01*
X13964180Y-10739820D01*
X14027820Y-10739820D01*
X14027820Y-10993820D02*
X14027820Y-10930180D01*
X13964180Y-10930180D01*
X13964180Y-10993820D01*
X14027820Y-10993820D01*
X14027820Y-11247820D02*
X14027820Y-11184180D01*
X13964180Y-11184180D01*
X13964180Y-11247820D01*
X14027820Y-11247820D01*
X14027820Y-11501820D02*
X14027820Y-11438180D01*
X13964180Y-11438180D01*
X13964180Y-11501820D01*
X14027820Y-11501820D01*
X14027820Y-11755820D02*
X14027820Y-11692180D01*
X13964180Y-11692180D01*
X13964180Y-11755820D01*
X14027820Y-11755820D01*
X14027820Y-12009820D02*
X14027820Y-11946180D01*
X13964180Y-11946180D01*
X13964180Y-12009820D01*
X14027820Y-12009820D01*
X14027820Y-12263820D02*
X14027820Y-12200180D01*
X13964180Y-12200180D01*
X13964180Y-12263820D01*
X14027820Y-12263820D01*
D13*
X13451000Y-6497000D02*
X13506000Y-6442000D01*
X13451000Y-6387000D01*
X13396000Y-6442000D01*
X13451000Y-6497000D01*
X13451000Y-6751000D02*
X13506000Y-6696000D01*
X13451000Y-6641000D01*
X13396000Y-6696000D01*
X13451000Y-6751000D01*
X13451000Y-7005000D02*
X13506000Y-6950000D01*
X13451000Y-6895000D01*
X13396000Y-6950000D01*
X13451000Y-7005000D01*
D14*
X6902750Y-8323500D02*
X7022750Y-8443500D01*
X7022750Y-8323500D02*
X6902750Y-8443500D01*
X7022750Y-8383500D02*
G75*
G02*
X6902750Y-8383500I-60000J0D01*
G01*
X6902750Y-8383500D02*
G75*
G02*
X7022750Y-8383500I60000J0D01*
G01*
X6902750Y-8577500D02*
X7022750Y-8697500D01*
X7022750Y-8577500D02*
X6902750Y-8697500D01*
X7022750Y-8637500D02*
G75*
G02*
X6902750Y-8637500I-60000J0D01*
G01*
X6902750Y-8637500D02*
G75*
G02*
X7022750Y-8637500I60000J0D01*
G01*
X9931000Y-4770000D02*
X10051000Y-4890000D01*
X10051000Y-4770000D02*
X9931000Y-4890000D01*
X10051000Y-4830000D02*
G75*
G02*
X9931000Y-4830000I-60000J0D01*
G01*
X9931000Y-4830000D02*
G75*
G02*
X10051000Y-4830000I60000J0D01*
G01*
X10185000Y-4770000D02*
X10305000Y-4890000D01*
X10305000Y-4770000D02*
X10185000Y-4890000D01*
X10305000Y-4830000D02*
G75*
G02*
X10185000Y-4830000I-60000J0D01*
G01*
X10185000Y-4830000D02*
G75*
G02*
X10305000Y-4830000I60000J0D01*
G01*
X11603500Y-4781750D02*
X11723500Y-4901750D01*
X11723500Y-4781750D02*
X11603500Y-4901750D01*
X11723500Y-4841750D02*
G75*
G02*
X11603500Y-4841750I-60000J0D01*
G01*
X11603500Y-4841750D02*
G75*
G02*
X11723500Y-4841750I60000J0D01*
G01*
X11857500Y-4781750D02*
X11977500Y-4901750D01*
X11977500Y-4781750D02*
X11857500Y-4901750D01*
X11977500Y-4841750D02*
G75*
G02*
X11857500Y-4841750I-60000J0D01*
G01*
X11857500Y-4841750D02*
G75*
G02*
X11977500Y-4841750I60000J0D01*
G01*
D15*
X15436000Y-6609255D02*
X15586000Y-6759255D01*
X15586000Y-6609255D02*
X15436000Y-6759255D01*
X15511000Y-6609255D02*
X15511000Y-6759255D01*
X15436000Y-6684255D02*
X15586000Y-6684255D01*
X15436000Y-8689255D02*
X15586000Y-8839255D01*
X15586000Y-8689255D02*
X15436000Y-8839255D01*
X15511000Y-8689255D02*
X15511000Y-8839255D01*
X15436000Y-8764255D02*
X15586000Y-8764255D01*
D11*
X6354277Y-13521984D02*
X6354277Y-13321984D01*
X6354277Y-13321984D02*
X6401896Y-13321984D01*
X6401896Y-13321984D02*
X6430467Y-13331508D01*
X6430467Y-13331508D02*
X6449515Y-13350555D01*
X6449515Y-13350555D02*
X6459039Y-13369603D01*
X6459039Y-13369603D02*
X6468562Y-13407698D01*
X6468562Y-13407698D02*
X6468562Y-13436269D01*
X6468562Y-13436269D02*
X6459039Y-13474365D01*
X6459039Y-13474365D02*
X6449515Y-13493412D01*
X6449515Y-13493412D02*
X6430467Y-13512460D01*
X6430467Y-13512460D02*
X6401896Y-13521984D01*
X6401896Y-13521984D02*
X6354277Y-13521984D01*
X6554277Y-13521984D02*
X6554277Y-13388650D01*
X6554277Y-13426746D02*
X6563801Y-13407698D01*
X6563801Y-13407698D02*
X6573324Y-13398174D01*
X6573324Y-13398174D02*
X6592372Y-13388650D01*
X6592372Y-13388650D02*
X6611420Y-13388650D01*
X6678086Y-13521984D02*
X6678086Y-13388650D01*
X6678086Y-13321984D02*
X6668562Y-13331508D01*
X6668562Y-13331508D02*
X6678086Y-13341031D01*
X6678086Y-13341031D02*
X6687610Y-13331508D01*
X6687610Y-13331508D02*
X6678086Y-13321984D01*
X6678086Y-13321984D02*
X6678086Y-13341031D01*
X6801896Y-13521984D02*
X6782848Y-13512460D01*
X6782848Y-13512460D02*
X6773324Y-13493412D01*
X6773324Y-13493412D02*
X6773324Y-13321984D01*
X6906658Y-13521984D02*
X6887610Y-13512460D01*
X6887610Y-13512460D02*
X6878086Y-13493412D01*
X6878086Y-13493412D02*
X6878086Y-13321984D01*
X7135229Y-13521984D02*
X7135229Y-13321984D01*
X7135229Y-13321984D02*
X7201896Y-13464841D01*
X7201896Y-13464841D02*
X7268562Y-13321984D01*
X7268562Y-13321984D02*
X7268562Y-13521984D01*
X7449515Y-13521984D02*
X7449515Y-13417222D01*
X7449515Y-13417222D02*
X7439991Y-13398174D01*
X7439991Y-13398174D02*
X7420943Y-13388650D01*
X7420943Y-13388650D02*
X7382848Y-13388650D01*
X7382848Y-13388650D02*
X7363801Y-13398174D01*
X7449515Y-13512460D02*
X7430467Y-13521984D01*
X7430467Y-13521984D02*
X7382848Y-13521984D01*
X7382848Y-13521984D02*
X7363801Y-13512460D01*
X7363801Y-13512460D02*
X7354277Y-13493412D01*
X7354277Y-13493412D02*
X7354277Y-13474365D01*
X7354277Y-13474365D02*
X7363801Y-13455317D01*
X7363801Y-13455317D02*
X7382848Y-13445793D01*
X7382848Y-13445793D02*
X7430467Y-13445793D01*
X7430467Y-13445793D02*
X7449515Y-13436269D01*
X7544753Y-13388650D02*
X7544753Y-13588650D01*
X7544753Y-13398174D02*
X7563801Y-13388650D01*
X7563801Y-13388650D02*
X7601896Y-13388650D01*
X7601896Y-13388650D02*
X7620943Y-13398174D01*
X7620943Y-13398174D02*
X7630467Y-13407698D01*
X7630467Y-13407698D02*
X7639991Y-13426746D01*
X7639991Y-13426746D02*
X7639991Y-13483888D01*
X7639991Y-13483888D02*
X7630467Y-13502936D01*
X7630467Y-13502936D02*
X7620943Y-13512460D01*
X7620943Y-13512460D02*
X7601896Y-13521984D01*
X7601896Y-13521984D02*
X7563801Y-13521984D01*
X7563801Y-13521984D02*
X7544753Y-13512460D01*
X7725705Y-13502936D02*
X7735229Y-13512460D01*
X7735229Y-13512460D02*
X7725705Y-13521984D01*
X7725705Y-13521984D02*
X7716182Y-13512460D01*
X7716182Y-13512460D02*
X7725705Y-13502936D01*
X7725705Y-13502936D02*
X7725705Y-13521984D01*
X7725705Y-13398174D02*
X7735229Y-13407698D01*
X7735229Y-13407698D02*
X7725705Y-13417222D01*
X7725705Y-13417222D02*
X7716182Y-13407698D01*
X7716182Y-13407698D02*
X7725705Y-13398174D01*
X7725705Y-13398174D02*
X7725705Y-13417222D01*
D12*
X6063500Y-13835500D02*
X6093500Y-13865500D01*
X6093500Y-13835500D02*
X6063500Y-13865500D01*
D11*
X6392372Y-13741984D02*
X6411420Y-13741984D01*
X6411420Y-13741984D02*
X6430467Y-13751508D01*
X6430467Y-13751508D02*
X6439991Y-13761031D01*
X6439991Y-13761031D02*
X6449515Y-13780079D01*
X6449515Y-13780079D02*
X6459039Y-13818174D01*
X6459039Y-13818174D02*
X6459039Y-13865793D01*
X6459039Y-13865793D02*
X6449515Y-13903888D01*
X6449515Y-13903888D02*
X6439991Y-13922936D01*
X6439991Y-13922936D02*
X6430467Y-13932460D01*
X6430467Y-13932460D02*
X6411420Y-13941984D01*
X6411420Y-13941984D02*
X6392372Y-13941984D01*
X6392372Y-13941984D02*
X6373324Y-13932460D01*
X6373324Y-13932460D02*
X6363801Y-13922936D01*
X6363801Y-13922936D02*
X6354277Y-13903888D01*
X6354277Y-13903888D02*
X6344753Y-13865793D01*
X6344753Y-13865793D02*
X6344753Y-13818174D01*
X6344753Y-13818174D02*
X6354277Y-13780079D01*
X6354277Y-13780079D02*
X6363801Y-13761031D01*
X6363801Y-13761031D02*
X6373324Y-13751508D01*
X6373324Y-13751508D02*
X6392372Y-13741984D01*
X6544753Y-13922936D02*
X6554277Y-13932460D01*
X6554277Y-13932460D02*
X6544753Y-13941984D01*
X6544753Y-13941984D02*
X6535229Y-13932460D01*
X6535229Y-13932460D02*
X6544753Y-13922936D01*
X6544753Y-13922936D02*
X6544753Y-13941984D01*
X6620943Y-13741984D02*
X6744753Y-13741984D01*
X6744753Y-13741984D02*
X6678086Y-13818174D01*
X6678086Y-13818174D02*
X6706658Y-13818174D01*
X6706658Y-13818174D02*
X6725705Y-13827698D01*
X6725705Y-13827698D02*
X6735229Y-13837222D01*
X6735229Y-13837222D02*
X6744753Y-13856269D01*
X6744753Y-13856269D02*
X6744753Y-13903888D01*
X6744753Y-13903888D02*
X6735229Y-13922936D01*
X6735229Y-13922936D02*
X6725705Y-13932460D01*
X6725705Y-13932460D02*
X6706658Y-13941984D01*
X6706658Y-13941984D02*
X6649515Y-13941984D01*
X6649515Y-13941984D02*
X6630467Y-13932460D01*
X6630467Y-13932460D02*
X6620943Y-13922936D01*
X6868562Y-13741984D02*
X6887610Y-13741984D01*
X6887610Y-13741984D02*
X6906658Y-13751508D01*
X6906658Y-13751508D02*
X6916182Y-13761031D01*
X6916182Y-13761031D02*
X6925705Y-13780079D01*
X6925705Y-13780079D02*
X6935229Y-13818174D01*
X6935229Y-13818174D02*
X6935229Y-13865793D01*
X6935229Y-13865793D02*
X6925705Y-13903888D01*
X6925705Y-13903888D02*
X6916182Y-13922936D01*
X6916182Y-13922936D02*
X6906658Y-13932460D01*
X6906658Y-13932460D02*
X6887610Y-13941984D01*
X6887610Y-13941984D02*
X6868562Y-13941984D01*
X6868562Y-13941984D02*
X6849515Y-13932460D01*
X6849515Y-13932460D02*
X6839991Y-13922936D01*
X6839991Y-13922936D02*
X6830467Y-13903888D01*
X6830467Y-13903888D02*
X6820943Y-13865793D01*
X6820943Y-13865793D02*
X6820943Y-13818174D01*
X6820943Y-13818174D02*
X6830467Y-13780079D01*
X6830467Y-13780079D02*
X6839991Y-13761031D01*
X6839991Y-13761031D02*
X6849515Y-13751508D01*
X6849515Y-13751508D02*
X6868562Y-13741984D01*
X7059039Y-13741984D02*
X7078086Y-13741984D01*
X7078086Y-13741984D02*
X7097134Y-13751508D01*
X7097134Y-13751508D02*
X7106658Y-13761031D01*
X7106658Y-13761031D02*
X7116182Y-13780079D01*
X7116182Y-13780079D02*
X7125705Y-13818174D01*
X7125705Y-13818174D02*
X7125705Y-13865793D01*
X7125705Y-13865793D02*
X7116182Y-13903888D01*
X7116182Y-13903888D02*
X7106658Y-13922936D01*
X7106658Y-13922936D02*
X7097134Y-13932460D01*
X7097134Y-13932460D02*
X7078086Y-13941984D01*
X7078086Y-13941984D02*
X7059039Y-13941984D01*
X7059039Y-13941984D02*
X7039991Y-13932460D01*
X7039991Y-13932460D02*
X7030467Y-13922936D01*
X7030467Y-13922936D02*
X7020943Y-13903888D01*
X7020943Y-13903888D02*
X7011420Y-13865793D01*
X7011420Y-13865793D02*
X7011420Y-13818174D01*
X7011420Y-13818174D02*
X7020943Y-13780079D01*
X7020943Y-13780079D02*
X7030467Y-13761031D01*
X7030467Y-13761031D02*
X7039991Y-13751508D01*
X7039991Y-13751508D02*
X7059039Y-13741984D01*
X7211420Y-13941984D02*
X7211420Y-13808650D01*
X7211420Y-13827698D02*
X7220943Y-13818174D01*
X7220943Y-13818174D02*
X7239991Y-13808650D01*
X7239991Y-13808650D02*
X7268563Y-13808650D01*
X7268563Y-13808650D02*
X7287610Y-13818174D01*
X7287610Y-13818174D02*
X7297134Y-13837222D01*
X7297134Y-13837222D02*
X7297134Y-13941984D01*
X7297134Y-13837222D02*
X7306658Y-13818174D01*
X7306658Y-13818174D02*
X7325705Y-13808650D01*
X7325705Y-13808650D02*
X7354277Y-13808650D01*
X7354277Y-13808650D02*
X7373324Y-13818174D01*
X7373324Y-13818174D02*
X7382848Y-13837222D01*
X7382848Y-13837222D02*
X7382848Y-13941984D01*
X7478086Y-13941984D02*
X7478086Y-13808650D01*
X7478086Y-13827698D02*
X7487610Y-13818174D01*
X7487610Y-13818174D02*
X7506658Y-13808650D01*
X7506658Y-13808650D02*
X7535229Y-13808650D01*
X7535229Y-13808650D02*
X7554277Y-13818174D01*
X7554277Y-13818174D02*
X7563801Y-13837222D01*
X7563801Y-13837222D02*
X7563801Y-13941984D01*
X7563801Y-13837222D02*
X7573324Y-13818174D01*
X7573324Y-13818174D02*
X7592372Y-13808650D01*
X7592372Y-13808650D02*
X7620943Y-13808650D01*
X7620943Y-13808650D02*
X7639991Y-13818174D01*
X7639991Y-13818174D02*
X7649515Y-13837222D01*
X7649515Y-13837222D02*
X7649515Y-13941984D01*
X8039991Y-13732460D02*
X7868563Y-13989603D01*
X8297134Y-13741984D02*
X8316182Y-13741984D01*
X8316182Y-13741984D02*
X8335229Y-13751508D01*
X8335229Y-13751508D02*
X8344753Y-13761031D01*
X8344753Y-13761031D02*
X8354277Y-13780079D01*
X8354277Y-13780079D02*
X8363801Y-13818174D01*
X8363801Y-13818174D02*
X8363801Y-13865793D01*
X8363801Y-13865793D02*
X8354277Y-13903888D01*
X8354277Y-13903888D02*
X8344753Y-13922936D01*
X8344753Y-13922936D02*
X8335229Y-13932460D01*
X8335229Y-13932460D02*
X8316182Y-13941984D01*
X8316182Y-13941984D02*
X8297134Y-13941984D01*
X8297134Y-13941984D02*
X8278086Y-13932460D01*
X8278086Y-13932460D02*
X8268563Y-13922936D01*
X8268563Y-13922936D02*
X8259039Y-13903888D01*
X8259039Y-13903888D02*
X8249515Y-13865793D01*
X8249515Y-13865793D02*
X8249515Y-13818174D01*
X8249515Y-13818174D02*
X8259039Y-13780079D01*
X8259039Y-13780079D02*
X8268563Y-13761031D01*
X8268563Y-13761031D02*
X8278086Y-13751508D01*
X8278086Y-13751508D02*
X8297134Y-13741984D01*
X8449515Y-13922936D02*
X8459039Y-13932460D01*
X8459039Y-13932460D02*
X8449515Y-13941984D01*
X8449515Y-13941984D02*
X8439991Y-13932460D01*
X8439991Y-13932460D02*
X8449515Y-13922936D01*
X8449515Y-13922936D02*
X8449515Y-13941984D01*
X8582848Y-13741984D02*
X8601896Y-13741984D01*
X8601896Y-13741984D02*
X8620944Y-13751508D01*
X8620944Y-13751508D02*
X8630468Y-13761031D01*
X8630468Y-13761031D02*
X8639991Y-13780079D01*
X8639991Y-13780079D02*
X8649515Y-13818174D01*
X8649515Y-13818174D02*
X8649515Y-13865793D01*
X8649515Y-13865793D02*
X8639991Y-13903888D01*
X8639991Y-13903888D02*
X8630468Y-13922936D01*
X8630468Y-13922936D02*
X8620944Y-13932460D01*
X8620944Y-13932460D02*
X8601896Y-13941984D01*
X8601896Y-13941984D02*
X8582848Y-13941984D01*
X8582848Y-13941984D02*
X8563801Y-13932460D01*
X8563801Y-13932460D02*
X8554277Y-13922936D01*
X8554277Y-13922936D02*
X8544753Y-13903888D01*
X8544753Y-13903888D02*
X8535229Y-13865793D01*
X8535229Y-13865793D02*
X8535229Y-13818174D01*
X8535229Y-13818174D02*
X8544753Y-13780079D01*
X8544753Y-13780079D02*
X8554277Y-13761031D01*
X8554277Y-13761031D02*
X8563801Y-13751508D01*
X8563801Y-13751508D02*
X8582848Y-13741984D01*
X8839991Y-13941984D02*
X8725706Y-13941984D01*
X8782848Y-13941984D02*
X8782848Y-13741984D01*
X8782848Y-13741984D02*
X8763801Y-13770555D01*
X8763801Y-13770555D02*
X8744753Y-13789603D01*
X8744753Y-13789603D02*
X8725706Y-13799127D01*
X9030468Y-13941984D02*
X8916182Y-13941984D01*
X8973325Y-13941984D02*
X8973325Y-13741984D01*
X8973325Y-13741984D02*
X8954277Y-13770555D01*
X8954277Y-13770555D02*
X8935229Y-13789603D01*
X8935229Y-13789603D02*
X8916182Y-13799127D01*
X9144753Y-13827698D02*
X9125706Y-13818174D01*
X9125706Y-13818174D02*
X9116182Y-13808650D01*
X9116182Y-13808650D02*
X9106658Y-13789603D01*
X9106658Y-13789603D02*
X9106658Y-13780079D01*
X9106658Y-13780079D02*
X9116182Y-13761031D01*
X9116182Y-13761031D02*
X9125706Y-13751508D01*
X9125706Y-13751508D02*
X9144753Y-13741984D01*
X9144753Y-13741984D02*
X9182849Y-13741984D01*
X9182849Y-13741984D02*
X9201896Y-13751508D01*
X9201896Y-13751508D02*
X9211420Y-13761031D01*
X9211420Y-13761031D02*
X9220944Y-13780079D01*
X9220944Y-13780079D02*
X9220944Y-13789603D01*
X9220944Y-13789603D02*
X9211420Y-13808650D01*
X9211420Y-13808650D02*
X9201896Y-13818174D01*
X9201896Y-13818174D02*
X9182849Y-13827698D01*
X9182849Y-13827698D02*
X9144753Y-13827698D01*
X9144753Y-13827698D02*
X9125706Y-13837222D01*
X9125706Y-13837222D02*
X9116182Y-13846746D01*
X9116182Y-13846746D02*
X9106658Y-13865793D01*
X9106658Y-13865793D02*
X9106658Y-13903888D01*
X9106658Y-13903888D02*
X9116182Y-13922936D01*
X9116182Y-13922936D02*
X9125706Y-13932460D01*
X9125706Y-13932460D02*
X9144753Y-13941984D01*
X9144753Y-13941984D02*
X9182849Y-13941984D01*
X9182849Y-13941984D02*
X9201896Y-13932460D01*
X9201896Y-13932460D02*
X9211420Y-13922936D01*
X9211420Y-13922936D02*
X9220944Y-13903888D01*
X9220944Y-13903888D02*
X9220944Y-13865793D01*
X9220944Y-13865793D02*
X9211420Y-13846746D01*
X9211420Y-13846746D02*
X9201896Y-13837222D01*
X9201896Y-13837222D02*
X9182849Y-13827698D01*
X9297134Y-13741984D02*
X9297134Y-13780079D01*
X9373325Y-13741984D02*
X9373325Y-13780079D01*
X9668563Y-14018174D02*
X9659039Y-14008650D01*
X9659039Y-14008650D02*
X9639991Y-13980079D01*
X9639991Y-13980079D02*
X9630468Y-13961031D01*
X9630468Y-13961031D02*
X9620944Y-13932460D01*
X9620944Y-13932460D02*
X9611420Y-13884841D01*
X9611420Y-13884841D02*
X9611420Y-13846746D01*
X9611420Y-13846746D02*
X9620944Y-13799127D01*
X9620944Y-13799127D02*
X9630468Y-13770555D01*
X9630468Y-13770555D02*
X9639991Y-13751508D01*
X9639991Y-13751508D02*
X9659039Y-13722936D01*
X9659039Y-13722936D02*
X9668563Y-13713412D01*
X9754277Y-13941984D02*
X9792372Y-13941984D01*
X9792372Y-13941984D02*
X9811420Y-13932460D01*
X9811420Y-13932460D02*
X9820944Y-13922936D01*
X9820944Y-13922936D02*
X9839991Y-13894365D01*
X9839991Y-13894365D02*
X9849515Y-13856269D01*
X9849515Y-13856269D02*
X9849515Y-13780079D01*
X9849515Y-13780079D02*
X9839991Y-13761031D01*
X9839991Y-13761031D02*
X9830468Y-13751508D01*
X9830468Y-13751508D02*
X9811420Y-13741984D01*
X9811420Y-13741984D02*
X9773325Y-13741984D01*
X9773325Y-13741984D02*
X9754277Y-13751508D01*
X9754277Y-13751508D02*
X9744753Y-13761031D01*
X9744753Y-13761031D02*
X9735230Y-13780079D01*
X9735230Y-13780079D02*
X9735230Y-13827698D01*
X9735230Y-13827698D02*
X9744753Y-13846746D01*
X9744753Y-13846746D02*
X9754277Y-13856269D01*
X9754277Y-13856269D02*
X9773325Y-13865793D01*
X9773325Y-13865793D02*
X9811420Y-13865793D01*
X9811420Y-13865793D02*
X9830468Y-13856269D01*
X9830468Y-13856269D02*
X9839991Y-13846746D01*
X9839991Y-13846746D02*
X9849515Y-13827698D01*
X10087611Y-13941984D02*
X10087611Y-13741984D01*
X10173325Y-13941984D02*
X10173325Y-13837222D01*
X10173325Y-13837222D02*
X10163801Y-13818174D01*
X10163801Y-13818174D02*
X10144753Y-13808650D01*
X10144753Y-13808650D02*
X10116182Y-13808650D01*
X10116182Y-13808650D02*
X10097134Y-13818174D01*
X10097134Y-13818174D02*
X10087611Y-13827698D01*
X10297134Y-13941984D02*
X10278087Y-13932460D01*
X10278087Y-13932460D02*
X10268563Y-13922936D01*
X10268563Y-13922936D02*
X10259039Y-13903888D01*
X10259039Y-13903888D02*
X10259039Y-13846746D01*
X10259039Y-13846746D02*
X10268563Y-13827698D01*
X10268563Y-13827698D02*
X10278087Y-13818174D01*
X10278087Y-13818174D02*
X10297134Y-13808650D01*
X10297134Y-13808650D02*
X10325706Y-13808650D01*
X10325706Y-13808650D02*
X10344753Y-13818174D01*
X10344753Y-13818174D02*
X10354277Y-13827698D01*
X10354277Y-13827698D02*
X10363801Y-13846746D01*
X10363801Y-13846746D02*
X10363801Y-13903888D01*
X10363801Y-13903888D02*
X10354277Y-13922936D01*
X10354277Y-13922936D02*
X10344753Y-13932460D01*
X10344753Y-13932460D02*
X10325706Y-13941984D01*
X10325706Y-13941984D02*
X10297134Y-13941984D01*
X10478087Y-13941984D02*
X10459039Y-13932460D01*
X10459039Y-13932460D02*
X10449515Y-13913412D01*
X10449515Y-13913412D02*
X10449515Y-13741984D01*
X10630468Y-13932460D02*
X10611420Y-13941984D01*
X10611420Y-13941984D02*
X10573325Y-13941984D01*
X10573325Y-13941984D02*
X10554277Y-13932460D01*
X10554277Y-13932460D02*
X10544753Y-13913412D01*
X10544753Y-13913412D02*
X10544753Y-13837222D01*
X10544753Y-13837222D02*
X10554277Y-13818174D01*
X10554277Y-13818174D02*
X10573325Y-13808650D01*
X10573325Y-13808650D02*
X10611420Y-13808650D01*
X10611420Y-13808650D02*
X10630468Y-13818174D01*
X10630468Y-13818174D02*
X10639992Y-13837222D01*
X10639992Y-13837222D02*
X10639992Y-13856269D01*
X10639992Y-13856269D02*
X10544753Y-13875317D01*
X10716182Y-13932460D02*
X10735230Y-13941984D01*
X10735230Y-13941984D02*
X10773325Y-13941984D01*
X10773325Y-13941984D02*
X10792373Y-13932460D01*
X10792373Y-13932460D02*
X10801896Y-13913412D01*
X10801896Y-13913412D02*
X10801896Y-13903888D01*
X10801896Y-13903888D02*
X10792373Y-13884841D01*
X10792373Y-13884841D02*
X10773325Y-13875317D01*
X10773325Y-13875317D02*
X10744753Y-13875317D01*
X10744753Y-13875317D02*
X10725706Y-13865793D01*
X10725706Y-13865793D02*
X10716182Y-13846746D01*
X10716182Y-13846746D02*
X10716182Y-13837222D01*
X10716182Y-13837222D02*
X10725706Y-13818174D01*
X10725706Y-13818174D02*
X10744753Y-13808650D01*
X10744753Y-13808650D02*
X10773325Y-13808650D01*
X10773325Y-13808650D02*
X10792373Y-13818174D01*
X10868563Y-14018174D02*
X10878087Y-14008650D01*
X10878087Y-14008650D02*
X10897134Y-13980079D01*
X10897134Y-13980079D02*
X10906658Y-13961031D01*
X10906658Y-13961031D02*
X10916182Y-13932460D01*
X10916182Y-13932460D02*
X10925706Y-13884841D01*
X10925706Y-13884841D02*
X10925706Y-13846746D01*
X10925706Y-13846746D02*
X10916182Y-13799127D01*
X10916182Y-13799127D02*
X10906658Y-13770555D01*
X10906658Y-13770555D02*
X10897134Y-13751508D01*
X10897134Y-13751508D02*
X10878087Y-13722936D01*
X10878087Y-13722936D02*
X10868563Y-13713412D01*
D12*
X6093500Y-14114500D02*
G75*
G02*
X6018500Y-14114500I-37500J0D01*
G01*
X6018500Y-14114500D02*
G75*
G02*
X6093500Y-14114500I37500J0D01*
G01*
D11*
X6392372Y-14005984D02*
X6411420Y-14005984D01*
X6411420Y-14005984D02*
X6430467Y-14015508D01*
X6430467Y-14015508D02*
X6439991Y-14025031D01*
X6439991Y-14025031D02*
X6449515Y-14044079D01*
X6449515Y-14044079D02*
X6459039Y-14082174D01*
X6459039Y-14082174D02*
X6459039Y-14129793D01*
X6459039Y-14129793D02*
X6449515Y-14167888D01*
X6449515Y-14167888D02*
X6439991Y-14186936D01*
X6439991Y-14186936D02*
X6430467Y-14196460D01*
X6430467Y-14196460D02*
X6411420Y-14205984D01*
X6411420Y-14205984D02*
X6392372Y-14205984D01*
X6392372Y-14205984D02*
X6373324Y-14196460D01*
X6373324Y-14196460D02*
X6363801Y-14186936D01*
X6363801Y-14186936D02*
X6354277Y-14167888D01*
X6354277Y-14167888D02*
X6344753Y-14129793D01*
X6344753Y-14129793D02*
X6344753Y-14082174D01*
X6344753Y-14082174D02*
X6354277Y-14044079D01*
X6354277Y-14044079D02*
X6363801Y-14025031D01*
X6363801Y-14025031D02*
X6373324Y-14015508D01*
X6373324Y-14015508D02*
X6392372Y-14005984D01*
X6544753Y-14186936D02*
X6554277Y-14196460D01*
X6554277Y-14196460D02*
X6544753Y-14205984D01*
X6544753Y-14205984D02*
X6535229Y-14196460D01*
X6535229Y-14196460D02*
X6544753Y-14186936D01*
X6544753Y-14186936D02*
X6544753Y-14205984D01*
X6620943Y-14005984D02*
X6754277Y-14005984D01*
X6754277Y-14005984D02*
X6668562Y-14205984D01*
X6925705Y-14005984D02*
X6830467Y-14005984D01*
X6830467Y-14005984D02*
X6820943Y-14101222D01*
X6820943Y-14101222D02*
X6830467Y-14091698D01*
X6830467Y-14091698D02*
X6849515Y-14082174D01*
X6849515Y-14082174D02*
X6897134Y-14082174D01*
X6897134Y-14082174D02*
X6916182Y-14091698D01*
X6916182Y-14091698D02*
X6925705Y-14101222D01*
X6925705Y-14101222D02*
X6935229Y-14120269D01*
X6935229Y-14120269D02*
X6935229Y-14167888D01*
X6935229Y-14167888D02*
X6925705Y-14186936D01*
X6925705Y-14186936D02*
X6916182Y-14196460D01*
X6916182Y-14196460D02*
X6897134Y-14205984D01*
X6897134Y-14205984D02*
X6849515Y-14205984D01*
X6849515Y-14205984D02*
X6830467Y-14196460D01*
X6830467Y-14196460D02*
X6820943Y-14186936D01*
X7059039Y-14005984D02*
X7078086Y-14005984D01*
X7078086Y-14005984D02*
X7097134Y-14015508D01*
X7097134Y-14015508D02*
X7106658Y-14025031D01*
X7106658Y-14025031D02*
X7116182Y-14044079D01*
X7116182Y-14044079D02*
X7125705Y-14082174D01*
X7125705Y-14082174D02*
X7125705Y-14129793D01*
X7125705Y-14129793D02*
X7116182Y-14167888D01*
X7116182Y-14167888D02*
X7106658Y-14186936D01*
X7106658Y-14186936D02*
X7097134Y-14196460D01*
X7097134Y-14196460D02*
X7078086Y-14205984D01*
X7078086Y-14205984D02*
X7059039Y-14205984D01*
X7059039Y-14205984D02*
X7039991Y-14196460D01*
X7039991Y-14196460D02*
X7030467Y-14186936D01*
X7030467Y-14186936D02*
X7020943Y-14167888D01*
X7020943Y-14167888D02*
X7011420Y-14129793D01*
X7011420Y-14129793D02*
X7011420Y-14082174D01*
X7011420Y-14082174D02*
X7020943Y-14044079D01*
X7020943Y-14044079D02*
X7030467Y-14025031D01*
X7030467Y-14025031D02*
X7039991Y-14015508D01*
X7039991Y-14015508D02*
X7059039Y-14005984D01*
X7211420Y-14205984D02*
X7211420Y-14072650D01*
X7211420Y-14091698D02*
X7220943Y-14082174D01*
X7220943Y-14082174D02*
X7239991Y-14072650D01*
X7239991Y-14072650D02*
X7268563Y-14072650D01*
X7268563Y-14072650D02*
X7287610Y-14082174D01*
X7287610Y-14082174D02*
X7297134Y-14101222D01*
X7297134Y-14101222D02*
X7297134Y-14205984D01*
X7297134Y-14101222D02*
X7306658Y-14082174D01*
X7306658Y-14082174D02*
X7325705Y-14072650D01*
X7325705Y-14072650D02*
X7354277Y-14072650D01*
X7354277Y-14072650D02*
X7373324Y-14082174D01*
X7373324Y-14082174D02*
X7382848Y-14101222D01*
X7382848Y-14101222D02*
X7382848Y-14205984D01*
X7478086Y-14205984D02*
X7478086Y-14072650D01*
X7478086Y-14091698D02*
X7487610Y-14082174D01*
X7487610Y-14082174D02*
X7506658Y-14072650D01*
X7506658Y-14072650D02*
X7535229Y-14072650D01*
X7535229Y-14072650D02*
X7554277Y-14082174D01*
X7554277Y-14082174D02*
X7563801Y-14101222D01*
X7563801Y-14101222D02*
X7563801Y-14205984D01*
X7563801Y-14101222D02*
X7573324Y-14082174D01*
X7573324Y-14082174D02*
X7592372Y-14072650D01*
X7592372Y-14072650D02*
X7620943Y-14072650D01*
X7620943Y-14072650D02*
X7639991Y-14082174D01*
X7639991Y-14082174D02*
X7649515Y-14101222D01*
X7649515Y-14101222D02*
X7649515Y-14205984D01*
X8039991Y-13996460D02*
X7868563Y-14253603D01*
X8297134Y-14005984D02*
X8316182Y-14005984D01*
X8316182Y-14005984D02*
X8335229Y-14015508D01*
X8335229Y-14015508D02*
X8344753Y-14025031D01*
X8344753Y-14025031D02*
X8354277Y-14044079D01*
X8354277Y-14044079D02*
X8363801Y-14082174D01*
X8363801Y-14082174D02*
X8363801Y-14129793D01*
X8363801Y-14129793D02*
X8354277Y-14167888D01*
X8354277Y-14167888D02*
X8344753Y-14186936D01*
X8344753Y-14186936D02*
X8335229Y-14196460D01*
X8335229Y-14196460D02*
X8316182Y-14205984D01*
X8316182Y-14205984D02*
X8297134Y-14205984D01*
X8297134Y-14205984D02*
X8278086Y-14196460D01*
X8278086Y-14196460D02*
X8268563Y-14186936D01*
X8268563Y-14186936D02*
X8259039Y-14167888D01*
X8259039Y-14167888D02*
X8249515Y-14129793D01*
X8249515Y-14129793D02*
X8249515Y-14082174D01*
X8249515Y-14082174D02*
X8259039Y-14044079D01*
X8259039Y-14044079D02*
X8268563Y-14025031D01*
X8268563Y-14025031D02*
X8278086Y-14015508D01*
X8278086Y-14015508D02*
X8297134Y-14005984D01*
X8449515Y-14186936D02*
X8459039Y-14196460D01*
X8459039Y-14196460D02*
X8449515Y-14205984D01*
X8449515Y-14205984D02*
X8439991Y-14196460D01*
X8439991Y-14196460D02*
X8449515Y-14186936D01*
X8449515Y-14186936D02*
X8449515Y-14205984D01*
X8582848Y-14005984D02*
X8601896Y-14005984D01*
X8601896Y-14005984D02*
X8620944Y-14015508D01*
X8620944Y-14015508D02*
X8630468Y-14025031D01*
X8630468Y-14025031D02*
X8639991Y-14044079D01*
X8639991Y-14044079D02*
X8649515Y-14082174D01*
X8649515Y-14082174D02*
X8649515Y-14129793D01*
X8649515Y-14129793D02*
X8639991Y-14167888D01*
X8639991Y-14167888D02*
X8630468Y-14186936D01*
X8630468Y-14186936D02*
X8620944Y-14196460D01*
X8620944Y-14196460D02*
X8601896Y-14205984D01*
X8601896Y-14205984D02*
X8582848Y-14205984D01*
X8582848Y-14205984D02*
X8563801Y-14196460D01*
X8563801Y-14196460D02*
X8554277Y-14186936D01*
X8554277Y-14186936D02*
X8544753Y-14167888D01*
X8544753Y-14167888D02*
X8535229Y-14129793D01*
X8535229Y-14129793D02*
X8535229Y-14082174D01*
X8535229Y-14082174D02*
X8544753Y-14044079D01*
X8544753Y-14044079D02*
X8554277Y-14025031D01*
X8554277Y-14025031D02*
X8563801Y-14015508D01*
X8563801Y-14015508D02*
X8582848Y-14005984D01*
X8725706Y-14025031D02*
X8735229Y-14015508D01*
X8735229Y-14015508D02*
X8754277Y-14005984D01*
X8754277Y-14005984D02*
X8801896Y-14005984D01*
X8801896Y-14005984D02*
X8820944Y-14015508D01*
X8820944Y-14015508D02*
X8830468Y-14025031D01*
X8830468Y-14025031D02*
X8839991Y-14044079D01*
X8839991Y-14044079D02*
X8839991Y-14063127D01*
X8839991Y-14063127D02*
X8830468Y-14091698D01*
X8830468Y-14091698D02*
X8716182Y-14205984D01*
X8716182Y-14205984D02*
X8839991Y-14205984D01*
X8935229Y-14205984D02*
X8973325Y-14205984D01*
X8973325Y-14205984D02*
X8992372Y-14196460D01*
X8992372Y-14196460D02*
X9001896Y-14186936D01*
X9001896Y-14186936D02*
X9020944Y-14158365D01*
X9020944Y-14158365D02*
X9030468Y-14120269D01*
X9030468Y-14120269D02*
X9030468Y-14044079D01*
X9030468Y-14044079D02*
X9020944Y-14025031D01*
X9020944Y-14025031D02*
X9011420Y-14015508D01*
X9011420Y-14015508D02*
X8992372Y-14005984D01*
X8992372Y-14005984D02*
X8954277Y-14005984D01*
X8954277Y-14005984D02*
X8935229Y-14015508D01*
X8935229Y-14015508D02*
X8925706Y-14025031D01*
X8925706Y-14025031D02*
X8916182Y-14044079D01*
X8916182Y-14044079D02*
X8916182Y-14091698D01*
X8916182Y-14091698D02*
X8925706Y-14110746D01*
X8925706Y-14110746D02*
X8935229Y-14120269D01*
X8935229Y-14120269D02*
X8954277Y-14129793D01*
X8954277Y-14129793D02*
X8992372Y-14129793D01*
X8992372Y-14129793D02*
X9011420Y-14120269D01*
X9011420Y-14120269D02*
X9020944Y-14110746D01*
X9020944Y-14110746D02*
X9030468Y-14091698D01*
X9211420Y-14005984D02*
X9116182Y-14005984D01*
X9116182Y-14005984D02*
X9106658Y-14101222D01*
X9106658Y-14101222D02*
X9116182Y-14091698D01*
X9116182Y-14091698D02*
X9135229Y-14082174D01*
X9135229Y-14082174D02*
X9182849Y-14082174D01*
X9182849Y-14082174D02*
X9201896Y-14091698D01*
X9201896Y-14091698D02*
X9211420Y-14101222D01*
X9211420Y-14101222D02*
X9220944Y-14120269D01*
X9220944Y-14120269D02*
X9220944Y-14167888D01*
X9220944Y-14167888D02*
X9211420Y-14186936D01*
X9211420Y-14186936D02*
X9201896Y-14196460D01*
X9201896Y-14196460D02*
X9182849Y-14205984D01*
X9182849Y-14205984D02*
X9135229Y-14205984D01*
X9135229Y-14205984D02*
X9116182Y-14196460D01*
X9116182Y-14196460D02*
X9106658Y-14186936D01*
X9297134Y-14005984D02*
X9297134Y-14044079D01*
X9373325Y-14005984D02*
X9373325Y-14044079D01*
X9668563Y-14282174D02*
X9659039Y-14272650D01*
X9659039Y-14272650D02*
X9639991Y-14244079D01*
X9639991Y-14244079D02*
X9630468Y-14225031D01*
X9630468Y-14225031D02*
X9620944Y-14196460D01*
X9620944Y-14196460D02*
X9611420Y-14148841D01*
X9611420Y-14148841D02*
X9611420Y-14110746D01*
X9611420Y-14110746D02*
X9620944Y-14063127D01*
X9620944Y-14063127D02*
X9630468Y-14034555D01*
X9630468Y-14034555D02*
X9639991Y-14015508D01*
X9639991Y-14015508D02*
X9659039Y-13986936D01*
X9659039Y-13986936D02*
X9668563Y-13977412D01*
X9725706Y-14005984D02*
X9849515Y-14005984D01*
X9849515Y-14005984D02*
X9782849Y-14082174D01*
X9782849Y-14082174D02*
X9811420Y-14082174D01*
X9811420Y-14082174D02*
X9830468Y-14091698D01*
X9830468Y-14091698D02*
X9839991Y-14101222D01*
X9839991Y-14101222D02*
X9849515Y-14120269D01*
X9849515Y-14120269D02*
X9849515Y-14167888D01*
X9849515Y-14167888D02*
X9839991Y-14186936D01*
X9839991Y-14186936D02*
X9830468Y-14196460D01*
X9830468Y-14196460D02*
X9811420Y-14205984D01*
X9811420Y-14205984D02*
X9754277Y-14205984D01*
X9754277Y-14205984D02*
X9735230Y-14196460D01*
X9735230Y-14196460D02*
X9725706Y-14186936D01*
X10087611Y-14205984D02*
X10087611Y-14005984D01*
X10173325Y-14205984D02*
X10173325Y-14101222D01*
X10173325Y-14101222D02*
X10163801Y-14082174D01*
X10163801Y-14082174D02*
X10144753Y-14072650D01*
X10144753Y-14072650D02*
X10116182Y-14072650D01*
X10116182Y-14072650D02*
X10097134Y-14082174D01*
X10097134Y-14082174D02*
X10087611Y-14091698D01*
X10297134Y-14205984D02*
X10278087Y-14196460D01*
X10278087Y-14196460D02*
X10268563Y-14186936D01*
X10268563Y-14186936D02*
X10259039Y-14167888D01*
X10259039Y-14167888D02*
X10259039Y-14110746D01*
X10259039Y-14110746D02*
X10268563Y-14091698D01*
X10268563Y-14091698D02*
X10278087Y-14082174D01*
X10278087Y-14082174D02*
X10297134Y-14072650D01*
X10297134Y-14072650D02*
X10325706Y-14072650D01*
X10325706Y-14072650D02*
X10344753Y-14082174D01*
X10344753Y-14082174D02*
X10354277Y-14091698D01*
X10354277Y-14091698D02*
X10363801Y-14110746D01*
X10363801Y-14110746D02*
X10363801Y-14167888D01*
X10363801Y-14167888D02*
X10354277Y-14186936D01*
X10354277Y-14186936D02*
X10344753Y-14196460D01*
X10344753Y-14196460D02*
X10325706Y-14205984D01*
X10325706Y-14205984D02*
X10297134Y-14205984D01*
X10478087Y-14205984D02*
X10459039Y-14196460D01*
X10459039Y-14196460D02*
X10449515Y-14177412D01*
X10449515Y-14177412D02*
X10449515Y-14005984D01*
X10630468Y-14196460D02*
X10611420Y-14205984D01*
X10611420Y-14205984D02*
X10573325Y-14205984D01*
X10573325Y-14205984D02*
X10554277Y-14196460D01*
X10554277Y-14196460D02*
X10544753Y-14177412D01*
X10544753Y-14177412D02*
X10544753Y-14101222D01*
X10544753Y-14101222D02*
X10554277Y-14082174D01*
X10554277Y-14082174D02*
X10573325Y-14072650D01*
X10573325Y-14072650D02*
X10611420Y-14072650D01*
X10611420Y-14072650D02*
X10630468Y-14082174D01*
X10630468Y-14082174D02*
X10639992Y-14101222D01*
X10639992Y-14101222D02*
X10639992Y-14120269D01*
X10639992Y-14120269D02*
X10544753Y-14139317D01*
X10716182Y-14196460D02*
X10735230Y-14205984D01*
X10735230Y-14205984D02*
X10773325Y-14205984D01*
X10773325Y-14205984D02*
X10792373Y-14196460D01*
X10792373Y-14196460D02*
X10801896Y-14177412D01*
X10801896Y-14177412D02*
X10801896Y-14167888D01*
X10801896Y-14167888D02*
X10792373Y-14148841D01*
X10792373Y-14148841D02*
X10773325Y-14139317D01*
X10773325Y-14139317D02*
X10744753Y-14139317D01*
X10744753Y-14139317D02*
X10725706Y-14129793D01*
X10725706Y-14129793D02*
X10716182Y-14110746D01*
X10716182Y-14110746D02*
X10716182Y-14101222D01*
X10716182Y-14101222D02*
X10725706Y-14082174D01*
X10725706Y-14082174D02*
X10744753Y-14072650D01*
X10744753Y-14072650D02*
X10773325Y-14072650D01*
X10773325Y-14072650D02*
X10792373Y-14082174D01*
X10868563Y-14282174D02*
X10878087Y-14272650D01*
X10878087Y-14272650D02*
X10897134Y-14244079D01*
X10897134Y-14244079D02*
X10906658Y-14225031D01*
X10906658Y-14225031D02*
X10916182Y-14196460D01*
X10916182Y-14196460D02*
X10925706Y-14148841D01*
X10925706Y-14148841D02*
X10925706Y-14110746D01*
X10925706Y-14110746D02*
X10916182Y-14063127D01*
X10916182Y-14063127D02*
X10906658Y-14034555D01*
X10906658Y-14034555D02*
X10897134Y-14015508D01*
X10897134Y-14015508D02*
X10878087Y-13986936D01*
X10878087Y-13986936D02*
X10868563Y-13977412D01*
D12*
X6053500Y-14338500D02*
X6053500Y-14418500D01*
X6013500Y-14378500D02*
X6093500Y-14378500D01*
D11*
X6392372Y-14269984D02*
X6411420Y-14269984D01*
X6411420Y-14269984D02*
X6430467Y-14279508D01*
X6430467Y-14279508D02*
X6439991Y-14289031D01*
X6439991Y-14289031D02*
X6449515Y-14308079D01*
X6449515Y-14308079D02*
X6459039Y-14346174D01*
X6459039Y-14346174D02*
X6459039Y-14393793D01*
X6459039Y-14393793D02*
X6449515Y-14431888D01*
X6449515Y-14431888D02*
X6439991Y-14450936D01*
X6439991Y-14450936D02*
X6430467Y-14460460D01*
X6430467Y-14460460D02*
X6411420Y-14469984D01*
X6411420Y-14469984D02*
X6392372Y-14469984D01*
X6392372Y-14469984D02*
X6373324Y-14460460D01*
X6373324Y-14460460D02*
X6363801Y-14450936D01*
X6363801Y-14450936D02*
X6354277Y-14431888D01*
X6354277Y-14431888D02*
X6344753Y-14393793D01*
X6344753Y-14393793D02*
X6344753Y-14346174D01*
X6344753Y-14346174D02*
X6354277Y-14308079D01*
X6354277Y-14308079D02*
X6363801Y-14289031D01*
X6363801Y-14289031D02*
X6373324Y-14279508D01*
X6373324Y-14279508D02*
X6392372Y-14269984D01*
X6544753Y-14450936D02*
X6554277Y-14460460D01*
X6554277Y-14460460D02*
X6544753Y-14469984D01*
X6544753Y-14469984D02*
X6535229Y-14460460D01*
X6535229Y-14460460D02*
X6544753Y-14450936D01*
X6544753Y-14450936D02*
X6544753Y-14469984D01*
X6668562Y-14355698D02*
X6649515Y-14346174D01*
X6649515Y-14346174D02*
X6639991Y-14336650D01*
X6639991Y-14336650D02*
X6630467Y-14317603D01*
X6630467Y-14317603D02*
X6630467Y-14308079D01*
X6630467Y-14308079D02*
X6639991Y-14289031D01*
X6639991Y-14289031D02*
X6649515Y-14279508D01*
X6649515Y-14279508D02*
X6668562Y-14269984D01*
X6668562Y-14269984D02*
X6706658Y-14269984D01*
X6706658Y-14269984D02*
X6725705Y-14279508D01*
X6725705Y-14279508D02*
X6735229Y-14289031D01*
X6735229Y-14289031D02*
X6744753Y-14308079D01*
X6744753Y-14308079D02*
X6744753Y-14317603D01*
X6744753Y-14317603D02*
X6735229Y-14336650D01*
X6735229Y-14336650D02*
X6725705Y-14346174D01*
X6725705Y-14346174D02*
X6706658Y-14355698D01*
X6706658Y-14355698D02*
X6668562Y-14355698D01*
X6668562Y-14355698D02*
X6649515Y-14365222D01*
X6649515Y-14365222D02*
X6639991Y-14374746D01*
X6639991Y-14374746D02*
X6630467Y-14393793D01*
X6630467Y-14393793D02*
X6630467Y-14431888D01*
X6630467Y-14431888D02*
X6639991Y-14450936D01*
X6639991Y-14450936D02*
X6649515Y-14460460D01*
X6649515Y-14460460D02*
X6668562Y-14469984D01*
X6668562Y-14469984D02*
X6706658Y-14469984D01*
X6706658Y-14469984D02*
X6725705Y-14460460D01*
X6725705Y-14460460D02*
X6735229Y-14450936D01*
X6735229Y-14450936D02*
X6744753Y-14431888D01*
X6744753Y-14431888D02*
X6744753Y-14393793D01*
X6744753Y-14393793D02*
X6735229Y-14374746D01*
X6735229Y-14374746D02*
X6725705Y-14365222D01*
X6725705Y-14365222D02*
X6706658Y-14355698D01*
X6868562Y-14269984D02*
X6887610Y-14269984D01*
X6887610Y-14269984D02*
X6906658Y-14279508D01*
X6906658Y-14279508D02*
X6916182Y-14289031D01*
X6916182Y-14289031D02*
X6925705Y-14308079D01*
X6925705Y-14308079D02*
X6935229Y-14346174D01*
X6935229Y-14346174D02*
X6935229Y-14393793D01*
X6935229Y-14393793D02*
X6925705Y-14431888D01*
X6925705Y-14431888D02*
X6916182Y-14450936D01*
X6916182Y-14450936D02*
X6906658Y-14460460D01*
X6906658Y-14460460D02*
X6887610Y-14469984D01*
X6887610Y-14469984D02*
X6868562Y-14469984D01*
X6868562Y-14469984D02*
X6849515Y-14460460D01*
X6849515Y-14460460D02*
X6839991Y-14450936D01*
X6839991Y-14450936D02*
X6830467Y-14431888D01*
X6830467Y-14431888D02*
X6820943Y-14393793D01*
X6820943Y-14393793D02*
X6820943Y-14346174D01*
X6820943Y-14346174D02*
X6830467Y-14308079D01*
X6830467Y-14308079D02*
X6839991Y-14289031D01*
X6839991Y-14289031D02*
X6849515Y-14279508D01*
X6849515Y-14279508D02*
X6868562Y-14269984D01*
X7059039Y-14269984D02*
X7078086Y-14269984D01*
X7078086Y-14269984D02*
X7097134Y-14279508D01*
X7097134Y-14279508D02*
X7106658Y-14289031D01*
X7106658Y-14289031D02*
X7116182Y-14308079D01*
X7116182Y-14308079D02*
X7125705Y-14346174D01*
X7125705Y-14346174D02*
X7125705Y-14393793D01*
X7125705Y-14393793D02*
X7116182Y-14431888D01*
X7116182Y-14431888D02*
X7106658Y-14450936D01*
X7106658Y-14450936D02*
X7097134Y-14460460D01*
X7097134Y-14460460D02*
X7078086Y-14469984D01*
X7078086Y-14469984D02*
X7059039Y-14469984D01*
X7059039Y-14469984D02*
X7039991Y-14460460D01*
X7039991Y-14460460D02*
X7030467Y-14450936D01*
X7030467Y-14450936D02*
X7020943Y-14431888D01*
X7020943Y-14431888D02*
X7011420Y-14393793D01*
X7011420Y-14393793D02*
X7011420Y-14346174D01*
X7011420Y-14346174D02*
X7020943Y-14308079D01*
X7020943Y-14308079D02*
X7030467Y-14289031D01*
X7030467Y-14289031D02*
X7039991Y-14279508D01*
X7039991Y-14279508D02*
X7059039Y-14269984D01*
X7211420Y-14469984D02*
X7211420Y-14336650D01*
X7211420Y-14355698D02*
X7220943Y-14346174D01*
X7220943Y-14346174D02*
X7239991Y-14336650D01*
X7239991Y-14336650D02*
X7268563Y-14336650D01*
X7268563Y-14336650D02*
X7287610Y-14346174D01*
X7287610Y-14346174D02*
X7297134Y-14365222D01*
X7297134Y-14365222D02*
X7297134Y-14469984D01*
X7297134Y-14365222D02*
X7306658Y-14346174D01*
X7306658Y-14346174D02*
X7325705Y-14336650D01*
X7325705Y-14336650D02*
X7354277Y-14336650D01*
X7354277Y-14336650D02*
X7373324Y-14346174D01*
X7373324Y-14346174D02*
X7382848Y-14365222D01*
X7382848Y-14365222D02*
X7382848Y-14469984D01*
X7478086Y-14469984D02*
X7478086Y-14336650D01*
X7478086Y-14355698D02*
X7487610Y-14346174D01*
X7487610Y-14346174D02*
X7506658Y-14336650D01*
X7506658Y-14336650D02*
X7535229Y-14336650D01*
X7535229Y-14336650D02*
X7554277Y-14346174D01*
X7554277Y-14346174D02*
X7563801Y-14365222D01*
X7563801Y-14365222D02*
X7563801Y-14469984D01*
X7563801Y-14365222D02*
X7573324Y-14346174D01*
X7573324Y-14346174D02*
X7592372Y-14336650D01*
X7592372Y-14336650D02*
X7620943Y-14336650D01*
X7620943Y-14336650D02*
X7639991Y-14346174D01*
X7639991Y-14346174D02*
X7649515Y-14365222D01*
X7649515Y-14365222D02*
X7649515Y-14469984D01*
X8039991Y-14260460D02*
X7868563Y-14517603D01*
X8297134Y-14269984D02*
X8316182Y-14269984D01*
X8316182Y-14269984D02*
X8335229Y-14279508D01*
X8335229Y-14279508D02*
X8344753Y-14289031D01*
X8344753Y-14289031D02*
X8354277Y-14308079D01*
X8354277Y-14308079D02*
X8363801Y-14346174D01*
X8363801Y-14346174D02*
X8363801Y-14393793D01*
X8363801Y-14393793D02*
X8354277Y-14431888D01*
X8354277Y-14431888D02*
X8344753Y-14450936D01*
X8344753Y-14450936D02*
X8335229Y-14460460D01*
X8335229Y-14460460D02*
X8316182Y-14469984D01*
X8316182Y-14469984D02*
X8297134Y-14469984D01*
X8297134Y-14469984D02*
X8278086Y-14460460D01*
X8278086Y-14460460D02*
X8268563Y-14450936D01*
X8268563Y-14450936D02*
X8259039Y-14431888D01*
X8259039Y-14431888D02*
X8249515Y-14393793D01*
X8249515Y-14393793D02*
X8249515Y-14346174D01*
X8249515Y-14346174D02*
X8259039Y-14308079D01*
X8259039Y-14308079D02*
X8268563Y-14289031D01*
X8268563Y-14289031D02*
X8278086Y-14279508D01*
X8278086Y-14279508D02*
X8297134Y-14269984D01*
X8449515Y-14450936D02*
X8459039Y-14460460D01*
X8459039Y-14460460D02*
X8449515Y-14469984D01*
X8449515Y-14469984D02*
X8439991Y-14460460D01*
X8439991Y-14460460D02*
X8449515Y-14450936D01*
X8449515Y-14450936D02*
X8449515Y-14469984D01*
X8582848Y-14269984D02*
X8601896Y-14269984D01*
X8601896Y-14269984D02*
X8620944Y-14279508D01*
X8620944Y-14279508D02*
X8630468Y-14289031D01*
X8630468Y-14289031D02*
X8639991Y-14308079D01*
X8639991Y-14308079D02*
X8649515Y-14346174D01*
X8649515Y-14346174D02*
X8649515Y-14393793D01*
X8649515Y-14393793D02*
X8639991Y-14431888D01*
X8639991Y-14431888D02*
X8630468Y-14450936D01*
X8630468Y-14450936D02*
X8620944Y-14460460D01*
X8620944Y-14460460D02*
X8601896Y-14469984D01*
X8601896Y-14469984D02*
X8582848Y-14469984D01*
X8582848Y-14469984D02*
X8563801Y-14460460D01*
X8563801Y-14460460D02*
X8554277Y-14450936D01*
X8554277Y-14450936D02*
X8544753Y-14431888D01*
X8544753Y-14431888D02*
X8535229Y-14393793D01*
X8535229Y-14393793D02*
X8535229Y-14346174D01*
X8535229Y-14346174D02*
X8544753Y-14308079D01*
X8544753Y-14308079D02*
X8554277Y-14289031D01*
X8554277Y-14289031D02*
X8563801Y-14279508D01*
X8563801Y-14279508D02*
X8582848Y-14269984D01*
X8716182Y-14269984D02*
X8839991Y-14269984D01*
X8839991Y-14269984D02*
X8773325Y-14346174D01*
X8773325Y-14346174D02*
X8801896Y-14346174D01*
X8801896Y-14346174D02*
X8820944Y-14355698D01*
X8820944Y-14355698D02*
X8830468Y-14365222D01*
X8830468Y-14365222D02*
X8839991Y-14384269D01*
X8839991Y-14384269D02*
X8839991Y-14431888D01*
X8839991Y-14431888D02*
X8830468Y-14450936D01*
X8830468Y-14450936D02*
X8820944Y-14460460D01*
X8820944Y-14460460D02*
X8801896Y-14469984D01*
X8801896Y-14469984D02*
X8744753Y-14469984D01*
X8744753Y-14469984D02*
X8725706Y-14460460D01*
X8725706Y-14460460D02*
X8716182Y-14450936D01*
X9030468Y-14469984D02*
X8916182Y-14469984D01*
X8973325Y-14469984D02*
X8973325Y-14269984D01*
X8973325Y-14269984D02*
X8954277Y-14298555D01*
X8954277Y-14298555D02*
X8935229Y-14317603D01*
X8935229Y-14317603D02*
X8916182Y-14327127D01*
X9211420Y-14269984D02*
X9116182Y-14269984D01*
X9116182Y-14269984D02*
X9106658Y-14365222D01*
X9106658Y-14365222D02*
X9116182Y-14355698D01*
X9116182Y-14355698D02*
X9135229Y-14346174D01*
X9135229Y-14346174D02*
X9182849Y-14346174D01*
X9182849Y-14346174D02*
X9201896Y-14355698D01*
X9201896Y-14355698D02*
X9211420Y-14365222D01*
X9211420Y-14365222D02*
X9220944Y-14384269D01*
X9220944Y-14384269D02*
X9220944Y-14431888D01*
X9220944Y-14431888D02*
X9211420Y-14450936D01*
X9211420Y-14450936D02*
X9201896Y-14460460D01*
X9201896Y-14460460D02*
X9182849Y-14469984D01*
X9182849Y-14469984D02*
X9135229Y-14469984D01*
X9135229Y-14469984D02*
X9116182Y-14460460D01*
X9116182Y-14460460D02*
X9106658Y-14450936D01*
X9297134Y-14269984D02*
X9297134Y-14308079D01*
X9373325Y-14269984D02*
X9373325Y-14308079D01*
X9668563Y-14546174D02*
X9659039Y-14536650D01*
X9659039Y-14536650D02*
X9639991Y-14508079D01*
X9639991Y-14508079D02*
X9630468Y-14489031D01*
X9630468Y-14489031D02*
X9620944Y-14460460D01*
X9620944Y-14460460D02*
X9611420Y-14412841D01*
X9611420Y-14412841D02*
X9611420Y-14374746D01*
X9611420Y-14374746D02*
X9620944Y-14327127D01*
X9620944Y-14327127D02*
X9630468Y-14298555D01*
X9630468Y-14298555D02*
X9639991Y-14279508D01*
X9639991Y-14279508D02*
X9659039Y-14250936D01*
X9659039Y-14250936D02*
X9668563Y-14241412D01*
X9773325Y-14355698D02*
X9754277Y-14346174D01*
X9754277Y-14346174D02*
X9744753Y-14336650D01*
X9744753Y-14336650D02*
X9735230Y-14317603D01*
X9735230Y-14317603D02*
X9735230Y-14308079D01*
X9735230Y-14308079D02*
X9744753Y-14289031D01*
X9744753Y-14289031D02*
X9754277Y-14279508D01*
X9754277Y-14279508D02*
X9773325Y-14269984D01*
X9773325Y-14269984D02*
X9811420Y-14269984D01*
X9811420Y-14269984D02*
X9830468Y-14279508D01*
X9830468Y-14279508D02*
X9839991Y-14289031D01*
X9839991Y-14289031D02*
X9849515Y-14308079D01*
X9849515Y-14308079D02*
X9849515Y-14317603D01*
X9849515Y-14317603D02*
X9839991Y-14336650D01*
X9839991Y-14336650D02*
X9830468Y-14346174D01*
X9830468Y-14346174D02*
X9811420Y-14355698D01*
X9811420Y-14355698D02*
X9773325Y-14355698D01*
X9773325Y-14355698D02*
X9754277Y-14365222D01*
X9754277Y-14365222D02*
X9744753Y-14374746D01*
X9744753Y-14374746D02*
X9735230Y-14393793D01*
X9735230Y-14393793D02*
X9735230Y-14431888D01*
X9735230Y-14431888D02*
X9744753Y-14450936D01*
X9744753Y-14450936D02*
X9754277Y-14460460D01*
X9754277Y-14460460D02*
X9773325Y-14469984D01*
X9773325Y-14469984D02*
X9811420Y-14469984D01*
X9811420Y-14469984D02*
X9830468Y-14460460D01*
X9830468Y-14460460D02*
X9839991Y-14450936D01*
X9839991Y-14450936D02*
X9849515Y-14431888D01*
X9849515Y-14431888D02*
X9849515Y-14393793D01*
X9849515Y-14393793D02*
X9839991Y-14374746D01*
X9839991Y-14374746D02*
X9830468Y-14365222D01*
X9830468Y-14365222D02*
X9811420Y-14355698D01*
X10087611Y-14469984D02*
X10087611Y-14269984D01*
X10173325Y-14469984D02*
X10173325Y-14365222D01*
X10173325Y-14365222D02*
X10163801Y-14346174D01*
X10163801Y-14346174D02*
X10144753Y-14336650D01*
X10144753Y-14336650D02*
X10116182Y-14336650D01*
X10116182Y-14336650D02*
X10097134Y-14346174D01*
X10097134Y-14346174D02*
X10087611Y-14355698D01*
X10297134Y-14469984D02*
X10278087Y-14460460D01*
X10278087Y-14460460D02*
X10268563Y-14450936D01*
X10268563Y-14450936D02*
X10259039Y-14431888D01*
X10259039Y-14431888D02*
X10259039Y-14374746D01*
X10259039Y-14374746D02*
X10268563Y-14355698D01*
X10268563Y-14355698D02*
X10278087Y-14346174D01*
X10278087Y-14346174D02*
X10297134Y-14336650D01*
X10297134Y-14336650D02*
X10325706Y-14336650D01*
X10325706Y-14336650D02*
X10344753Y-14346174D01*
X10344753Y-14346174D02*
X10354277Y-14355698D01*
X10354277Y-14355698D02*
X10363801Y-14374746D01*
X10363801Y-14374746D02*
X10363801Y-14431888D01*
X10363801Y-14431888D02*
X10354277Y-14450936D01*
X10354277Y-14450936D02*
X10344753Y-14460460D01*
X10344753Y-14460460D02*
X10325706Y-14469984D01*
X10325706Y-14469984D02*
X10297134Y-14469984D01*
X10478087Y-14469984D02*
X10459039Y-14460460D01*
X10459039Y-14460460D02*
X10449515Y-14441412D01*
X10449515Y-14441412D02*
X10449515Y-14269984D01*
X10630468Y-14460460D02*
X10611420Y-14469984D01*
X10611420Y-14469984D02*
X10573325Y-14469984D01*
X10573325Y-14469984D02*
X10554277Y-14460460D01*
X10554277Y-14460460D02*
X10544753Y-14441412D01*
X10544753Y-14441412D02*
X10544753Y-14365222D01*
X10544753Y-14365222D02*
X10554277Y-14346174D01*
X10554277Y-14346174D02*
X10573325Y-14336650D01*
X10573325Y-14336650D02*
X10611420Y-14336650D01*
X10611420Y-14336650D02*
X10630468Y-14346174D01*
X10630468Y-14346174D02*
X10639992Y-14365222D01*
X10639992Y-14365222D02*
X10639992Y-14384269D01*
X10639992Y-14384269D02*
X10544753Y-14403317D01*
X10716182Y-14460460D02*
X10735230Y-14469984D01*
X10735230Y-14469984D02*
X10773325Y-14469984D01*
X10773325Y-14469984D02*
X10792373Y-14460460D01*
X10792373Y-14460460D02*
X10801896Y-14441412D01*
X10801896Y-14441412D02*
X10801896Y-14431888D01*
X10801896Y-14431888D02*
X10792373Y-14412841D01*
X10792373Y-14412841D02*
X10773325Y-14403317D01*
X10773325Y-14403317D02*
X10744753Y-14403317D01*
X10744753Y-14403317D02*
X10725706Y-14393793D01*
X10725706Y-14393793D02*
X10716182Y-14374746D01*
X10716182Y-14374746D02*
X10716182Y-14365222D01*
X10716182Y-14365222D02*
X10725706Y-14346174D01*
X10725706Y-14346174D02*
X10744753Y-14336650D01*
X10744753Y-14336650D02*
X10773325Y-14336650D01*
X10773325Y-14336650D02*
X10792373Y-14346174D01*
X10868563Y-14546174D02*
X10878087Y-14536650D01*
X10878087Y-14536650D02*
X10897134Y-14508079D01*
X10897134Y-14508079D02*
X10906658Y-14489031D01*
X10906658Y-14489031D02*
X10916182Y-14460460D01*
X10916182Y-14460460D02*
X10925706Y-14412841D01*
X10925706Y-14412841D02*
X10925706Y-14374746D01*
X10925706Y-14374746D02*
X10916182Y-14327127D01*
X10916182Y-14327127D02*
X10906658Y-14298555D01*
X10906658Y-14298555D02*
X10897134Y-14279508D01*
X10897134Y-14279508D02*
X10878087Y-14250936D01*
X10878087Y-14250936D02*
X10868563Y-14241412D01*
D12*
X6080320Y-14674320D02*
X6080320Y-14610680D01*
X6016680Y-14610680D01*
X6016680Y-14674320D01*
X6080320Y-14674320D01*
D11*
X6392372Y-14533984D02*
X6411420Y-14533984D01*
X6411420Y-14533984D02*
X6430467Y-14543508D01*
X6430467Y-14543508D02*
X6439991Y-14553031D01*
X6439991Y-14553031D02*
X6449515Y-14572079D01*
X6449515Y-14572079D02*
X6459039Y-14610174D01*
X6459039Y-14610174D02*
X6459039Y-14657793D01*
X6459039Y-14657793D02*
X6449515Y-14695888D01*
X6449515Y-14695888D02*
X6439991Y-14714936D01*
X6439991Y-14714936D02*
X6430467Y-14724460D01*
X6430467Y-14724460D02*
X6411420Y-14733984D01*
X6411420Y-14733984D02*
X6392372Y-14733984D01*
X6392372Y-14733984D02*
X6373324Y-14724460D01*
X6373324Y-14724460D02*
X6363801Y-14714936D01*
X6363801Y-14714936D02*
X6354277Y-14695888D01*
X6354277Y-14695888D02*
X6344753Y-14657793D01*
X6344753Y-14657793D02*
X6344753Y-14610174D01*
X6344753Y-14610174D02*
X6354277Y-14572079D01*
X6354277Y-14572079D02*
X6363801Y-14553031D01*
X6363801Y-14553031D02*
X6373324Y-14543508D01*
X6373324Y-14543508D02*
X6392372Y-14533984D01*
X6544753Y-14714936D02*
X6554277Y-14724460D01*
X6554277Y-14724460D02*
X6544753Y-14733984D01*
X6544753Y-14733984D02*
X6535229Y-14724460D01*
X6535229Y-14724460D02*
X6544753Y-14714936D01*
X6544753Y-14714936D02*
X6544753Y-14733984D01*
X6649515Y-14733984D02*
X6687610Y-14733984D01*
X6687610Y-14733984D02*
X6706658Y-14724460D01*
X6706658Y-14724460D02*
X6716182Y-14714936D01*
X6716182Y-14714936D02*
X6735229Y-14686365D01*
X6735229Y-14686365D02*
X6744753Y-14648269D01*
X6744753Y-14648269D02*
X6744753Y-14572079D01*
X6744753Y-14572079D02*
X6735229Y-14553031D01*
X6735229Y-14553031D02*
X6725705Y-14543508D01*
X6725705Y-14543508D02*
X6706658Y-14533984D01*
X6706658Y-14533984D02*
X6668562Y-14533984D01*
X6668562Y-14533984D02*
X6649515Y-14543508D01*
X6649515Y-14543508D02*
X6639991Y-14553031D01*
X6639991Y-14553031D02*
X6630467Y-14572079D01*
X6630467Y-14572079D02*
X6630467Y-14619698D01*
X6630467Y-14619698D02*
X6639991Y-14638746D01*
X6639991Y-14638746D02*
X6649515Y-14648269D01*
X6649515Y-14648269D02*
X6668562Y-14657793D01*
X6668562Y-14657793D02*
X6706658Y-14657793D01*
X6706658Y-14657793D02*
X6725705Y-14648269D01*
X6725705Y-14648269D02*
X6735229Y-14638746D01*
X6735229Y-14638746D02*
X6744753Y-14619698D01*
X6868562Y-14533984D02*
X6887610Y-14533984D01*
X6887610Y-14533984D02*
X6906658Y-14543508D01*
X6906658Y-14543508D02*
X6916182Y-14553031D01*
X6916182Y-14553031D02*
X6925705Y-14572079D01*
X6925705Y-14572079D02*
X6935229Y-14610174D01*
X6935229Y-14610174D02*
X6935229Y-14657793D01*
X6935229Y-14657793D02*
X6925705Y-14695888D01*
X6925705Y-14695888D02*
X6916182Y-14714936D01*
X6916182Y-14714936D02*
X6906658Y-14724460D01*
X6906658Y-14724460D02*
X6887610Y-14733984D01*
X6887610Y-14733984D02*
X6868562Y-14733984D01*
X6868562Y-14733984D02*
X6849515Y-14724460D01*
X6849515Y-14724460D02*
X6839991Y-14714936D01*
X6839991Y-14714936D02*
X6830467Y-14695888D01*
X6830467Y-14695888D02*
X6820943Y-14657793D01*
X6820943Y-14657793D02*
X6820943Y-14610174D01*
X6820943Y-14610174D02*
X6830467Y-14572079D01*
X6830467Y-14572079D02*
X6839991Y-14553031D01*
X6839991Y-14553031D02*
X6849515Y-14543508D01*
X6849515Y-14543508D02*
X6868562Y-14533984D01*
X7059039Y-14533984D02*
X7078086Y-14533984D01*
X7078086Y-14533984D02*
X7097134Y-14543508D01*
X7097134Y-14543508D02*
X7106658Y-14553031D01*
X7106658Y-14553031D02*
X7116182Y-14572079D01*
X7116182Y-14572079D02*
X7125705Y-14610174D01*
X7125705Y-14610174D02*
X7125705Y-14657793D01*
X7125705Y-14657793D02*
X7116182Y-14695888D01*
X7116182Y-14695888D02*
X7106658Y-14714936D01*
X7106658Y-14714936D02*
X7097134Y-14724460D01*
X7097134Y-14724460D02*
X7078086Y-14733984D01*
X7078086Y-14733984D02*
X7059039Y-14733984D01*
X7059039Y-14733984D02*
X7039991Y-14724460D01*
X7039991Y-14724460D02*
X7030467Y-14714936D01*
X7030467Y-14714936D02*
X7020943Y-14695888D01*
X7020943Y-14695888D02*
X7011420Y-14657793D01*
X7011420Y-14657793D02*
X7011420Y-14610174D01*
X7011420Y-14610174D02*
X7020943Y-14572079D01*
X7020943Y-14572079D02*
X7030467Y-14553031D01*
X7030467Y-14553031D02*
X7039991Y-14543508D01*
X7039991Y-14543508D02*
X7059039Y-14533984D01*
X7211420Y-14733984D02*
X7211420Y-14600650D01*
X7211420Y-14619698D02*
X7220943Y-14610174D01*
X7220943Y-14610174D02*
X7239991Y-14600650D01*
X7239991Y-14600650D02*
X7268563Y-14600650D01*
X7268563Y-14600650D02*
X7287610Y-14610174D01*
X7287610Y-14610174D02*
X7297134Y-14629222D01*
X7297134Y-14629222D02*
X7297134Y-14733984D01*
X7297134Y-14629222D02*
X7306658Y-14610174D01*
X7306658Y-14610174D02*
X7325705Y-14600650D01*
X7325705Y-14600650D02*
X7354277Y-14600650D01*
X7354277Y-14600650D02*
X7373324Y-14610174D01*
X7373324Y-14610174D02*
X7382848Y-14629222D01*
X7382848Y-14629222D02*
X7382848Y-14733984D01*
X7478086Y-14733984D02*
X7478086Y-14600650D01*
X7478086Y-14619698D02*
X7487610Y-14610174D01*
X7487610Y-14610174D02*
X7506658Y-14600650D01*
X7506658Y-14600650D02*
X7535229Y-14600650D01*
X7535229Y-14600650D02*
X7554277Y-14610174D01*
X7554277Y-14610174D02*
X7563801Y-14629222D01*
X7563801Y-14629222D02*
X7563801Y-14733984D01*
X7563801Y-14629222D02*
X7573324Y-14610174D01*
X7573324Y-14610174D02*
X7592372Y-14600650D01*
X7592372Y-14600650D02*
X7620943Y-14600650D01*
X7620943Y-14600650D02*
X7639991Y-14610174D01*
X7639991Y-14610174D02*
X7649515Y-14629222D01*
X7649515Y-14629222D02*
X7649515Y-14733984D01*
X8039991Y-14524460D02*
X7868563Y-14781603D01*
X8297134Y-14533984D02*
X8316182Y-14533984D01*
X8316182Y-14533984D02*
X8335229Y-14543508D01*
X8335229Y-14543508D02*
X8344753Y-14553031D01*
X8344753Y-14553031D02*
X8354277Y-14572079D01*
X8354277Y-14572079D02*
X8363801Y-14610174D01*
X8363801Y-14610174D02*
X8363801Y-14657793D01*
X8363801Y-14657793D02*
X8354277Y-14695888D01*
X8354277Y-14695888D02*
X8344753Y-14714936D01*
X8344753Y-14714936D02*
X8335229Y-14724460D01*
X8335229Y-14724460D02*
X8316182Y-14733984D01*
X8316182Y-14733984D02*
X8297134Y-14733984D01*
X8297134Y-14733984D02*
X8278086Y-14724460D01*
X8278086Y-14724460D02*
X8268563Y-14714936D01*
X8268563Y-14714936D02*
X8259039Y-14695888D01*
X8259039Y-14695888D02*
X8249515Y-14657793D01*
X8249515Y-14657793D02*
X8249515Y-14610174D01*
X8249515Y-14610174D02*
X8259039Y-14572079D01*
X8259039Y-14572079D02*
X8268563Y-14553031D01*
X8268563Y-14553031D02*
X8278086Y-14543508D01*
X8278086Y-14543508D02*
X8297134Y-14533984D01*
X8449515Y-14714936D02*
X8459039Y-14724460D01*
X8459039Y-14724460D02*
X8449515Y-14733984D01*
X8449515Y-14733984D02*
X8439991Y-14724460D01*
X8439991Y-14724460D02*
X8449515Y-14714936D01*
X8449515Y-14714936D02*
X8449515Y-14733984D01*
X8582848Y-14533984D02*
X8601896Y-14533984D01*
X8601896Y-14533984D02*
X8620944Y-14543508D01*
X8620944Y-14543508D02*
X8630468Y-14553031D01*
X8630468Y-14553031D02*
X8639991Y-14572079D01*
X8639991Y-14572079D02*
X8649515Y-14610174D01*
X8649515Y-14610174D02*
X8649515Y-14657793D01*
X8649515Y-14657793D02*
X8639991Y-14695888D01*
X8639991Y-14695888D02*
X8630468Y-14714936D01*
X8630468Y-14714936D02*
X8620944Y-14724460D01*
X8620944Y-14724460D02*
X8601896Y-14733984D01*
X8601896Y-14733984D02*
X8582848Y-14733984D01*
X8582848Y-14733984D02*
X8563801Y-14724460D01*
X8563801Y-14724460D02*
X8554277Y-14714936D01*
X8554277Y-14714936D02*
X8544753Y-14695888D01*
X8544753Y-14695888D02*
X8535229Y-14657793D01*
X8535229Y-14657793D02*
X8535229Y-14610174D01*
X8535229Y-14610174D02*
X8544753Y-14572079D01*
X8544753Y-14572079D02*
X8554277Y-14553031D01*
X8554277Y-14553031D02*
X8563801Y-14543508D01*
X8563801Y-14543508D02*
X8582848Y-14533984D01*
X8716182Y-14533984D02*
X8839991Y-14533984D01*
X8839991Y-14533984D02*
X8773325Y-14610174D01*
X8773325Y-14610174D02*
X8801896Y-14610174D01*
X8801896Y-14610174D02*
X8820944Y-14619698D01*
X8820944Y-14619698D02*
X8830468Y-14629222D01*
X8830468Y-14629222D02*
X8839991Y-14648269D01*
X8839991Y-14648269D02*
X8839991Y-14695888D01*
X8839991Y-14695888D02*
X8830468Y-14714936D01*
X8830468Y-14714936D02*
X8820944Y-14724460D01*
X8820944Y-14724460D02*
X8801896Y-14733984D01*
X8801896Y-14733984D02*
X8744753Y-14733984D01*
X8744753Y-14733984D02*
X8725706Y-14724460D01*
X8725706Y-14724460D02*
X8716182Y-14714936D01*
X9020944Y-14533984D02*
X8925706Y-14533984D01*
X8925706Y-14533984D02*
X8916182Y-14629222D01*
X8916182Y-14629222D02*
X8925706Y-14619698D01*
X8925706Y-14619698D02*
X8944753Y-14610174D01*
X8944753Y-14610174D02*
X8992372Y-14610174D01*
X8992372Y-14610174D02*
X9011420Y-14619698D01*
X9011420Y-14619698D02*
X9020944Y-14629222D01*
X9020944Y-14629222D02*
X9030468Y-14648269D01*
X9030468Y-14648269D02*
X9030468Y-14695888D01*
X9030468Y-14695888D02*
X9020944Y-14714936D01*
X9020944Y-14714936D02*
X9011420Y-14724460D01*
X9011420Y-14724460D02*
X8992372Y-14733984D01*
X8992372Y-14733984D02*
X8944753Y-14733984D01*
X8944753Y-14733984D02*
X8925706Y-14724460D01*
X8925706Y-14724460D02*
X8916182Y-14714936D01*
X9201896Y-14600650D02*
X9201896Y-14733984D01*
X9154277Y-14524460D02*
X9106658Y-14667317D01*
X9106658Y-14667317D02*
X9230468Y-14667317D01*
X9297134Y-14533984D02*
X9297134Y-14572079D01*
X9373325Y-14533984D02*
X9373325Y-14572079D01*
X9668563Y-14810174D02*
X9659039Y-14800650D01*
X9659039Y-14800650D02*
X9639991Y-14772079D01*
X9639991Y-14772079D02*
X9630468Y-14753031D01*
X9630468Y-14753031D02*
X9620944Y-14724460D01*
X9620944Y-14724460D02*
X9611420Y-14676841D01*
X9611420Y-14676841D02*
X9611420Y-14638746D01*
X9611420Y-14638746D02*
X9620944Y-14591127D01*
X9620944Y-14591127D02*
X9630468Y-14562555D01*
X9630468Y-14562555D02*
X9639991Y-14543508D01*
X9639991Y-14543508D02*
X9659039Y-14514936D01*
X9659039Y-14514936D02*
X9668563Y-14505412D01*
X9735230Y-14553031D02*
X9744753Y-14543508D01*
X9744753Y-14543508D02*
X9763801Y-14533984D01*
X9763801Y-14533984D02*
X9811420Y-14533984D01*
X9811420Y-14533984D02*
X9830468Y-14543508D01*
X9830468Y-14543508D02*
X9839991Y-14553031D01*
X9839991Y-14553031D02*
X9849515Y-14572079D01*
X9849515Y-14572079D02*
X9849515Y-14591127D01*
X9849515Y-14591127D02*
X9839991Y-14619698D01*
X9839991Y-14619698D02*
X9725706Y-14733984D01*
X9725706Y-14733984D02*
X9849515Y-14733984D01*
X9973325Y-14533984D02*
X9992372Y-14533984D01*
X9992372Y-14533984D02*
X10011420Y-14543508D01*
X10011420Y-14543508D02*
X10020944Y-14553031D01*
X10020944Y-14553031D02*
X10030468Y-14572079D01*
X10030468Y-14572079D02*
X10039991Y-14610174D01*
X10039991Y-14610174D02*
X10039991Y-14657793D01*
X10039991Y-14657793D02*
X10030468Y-14695888D01*
X10030468Y-14695888D02*
X10020944Y-14714936D01*
X10020944Y-14714936D02*
X10011420Y-14724460D01*
X10011420Y-14724460D02*
X9992372Y-14733984D01*
X9992372Y-14733984D02*
X9973325Y-14733984D01*
X9973325Y-14733984D02*
X9954277Y-14724460D01*
X9954277Y-14724460D02*
X9944753Y-14714936D01*
X9944753Y-14714936D02*
X9935230Y-14695888D01*
X9935230Y-14695888D02*
X9925706Y-14657793D01*
X9925706Y-14657793D02*
X9925706Y-14610174D01*
X9925706Y-14610174D02*
X9935230Y-14572079D01*
X9935230Y-14572079D02*
X9944753Y-14553031D01*
X9944753Y-14553031D02*
X9954277Y-14543508D01*
X9954277Y-14543508D02*
X9973325Y-14533984D01*
X10278087Y-14733984D02*
X10278087Y-14533984D01*
X10363801Y-14733984D02*
X10363801Y-14629222D01*
X10363801Y-14629222D02*
X10354277Y-14610174D01*
X10354277Y-14610174D02*
X10335230Y-14600650D01*
X10335230Y-14600650D02*
X10306658Y-14600650D01*
X10306658Y-14600650D02*
X10287611Y-14610174D01*
X10287611Y-14610174D02*
X10278087Y-14619698D01*
X10487611Y-14733984D02*
X10468563Y-14724460D01*
X10468563Y-14724460D02*
X10459039Y-14714936D01*
X10459039Y-14714936D02*
X10449515Y-14695888D01*
X10449515Y-14695888D02*
X10449515Y-14638746D01*
X10449515Y-14638746D02*
X10459039Y-14619698D01*
X10459039Y-14619698D02*
X10468563Y-14610174D01*
X10468563Y-14610174D02*
X10487611Y-14600650D01*
X10487611Y-14600650D02*
X10516182Y-14600650D01*
X10516182Y-14600650D02*
X10535230Y-14610174D01*
X10535230Y-14610174D02*
X10544753Y-14619698D01*
X10544753Y-14619698D02*
X10554277Y-14638746D01*
X10554277Y-14638746D02*
X10554277Y-14695888D01*
X10554277Y-14695888D02*
X10544753Y-14714936D01*
X10544753Y-14714936D02*
X10535230Y-14724460D01*
X10535230Y-14724460D02*
X10516182Y-14733984D01*
X10516182Y-14733984D02*
X10487611Y-14733984D01*
X10668563Y-14733984D02*
X10649515Y-14724460D01*
X10649515Y-14724460D02*
X10639992Y-14705412D01*
X10639992Y-14705412D02*
X10639992Y-14533984D01*
X10820944Y-14724460D02*
X10801896Y-14733984D01*
X10801896Y-14733984D02*
X10763801Y-14733984D01*
X10763801Y-14733984D02*
X10744753Y-14724460D01*
X10744753Y-14724460D02*
X10735230Y-14705412D01*
X10735230Y-14705412D02*
X10735230Y-14629222D01*
X10735230Y-14629222D02*
X10744753Y-14610174D01*
X10744753Y-14610174D02*
X10763801Y-14600650D01*
X10763801Y-14600650D02*
X10801896Y-14600650D01*
X10801896Y-14600650D02*
X10820944Y-14610174D01*
X10820944Y-14610174D02*
X10830468Y-14629222D01*
X10830468Y-14629222D02*
X10830468Y-14648269D01*
X10830468Y-14648269D02*
X10735230Y-14667317D01*
X10906658Y-14724460D02*
X10925706Y-14733984D01*
X10925706Y-14733984D02*
X10963801Y-14733984D01*
X10963801Y-14733984D02*
X10982849Y-14724460D01*
X10982849Y-14724460D02*
X10992373Y-14705412D01*
X10992373Y-14705412D02*
X10992373Y-14695888D01*
X10992373Y-14695888D02*
X10982849Y-14676841D01*
X10982849Y-14676841D02*
X10963801Y-14667317D01*
X10963801Y-14667317D02*
X10935230Y-14667317D01*
X10935230Y-14667317D02*
X10916182Y-14657793D01*
X10916182Y-14657793D02*
X10906658Y-14638746D01*
X10906658Y-14638746D02*
X10906658Y-14629222D01*
X10906658Y-14629222D02*
X10916182Y-14610174D01*
X10916182Y-14610174D02*
X10935230Y-14600650D01*
X10935230Y-14600650D02*
X10963801Y-14600650D01*
X10963801Y-14600650D02*
X10982849Y-14610174D01*
X11059039Y-14810174D02*
X11068563Y-14800650D01*
X11068563Y-14800650D02*
X11087611Y-14772079D01*
X11087611Y-14772079D02*
X11097134Y-14753031D01*
X11097134Y-14753031D02*
X11106658Y-14724460D01*
X11106658Y-14724460D02*
X11116182Y-14676841D01*
X11116182Y-14676841D02*
X11116182Y-14638746D01*
X11116182Y-14638746D02*
X11106658Y-14591127D01*
X11106658Y-14591127D02*
X11097134Y-14562555D01*
X11097134Y-14562555D02*
X11087611Y-14543508D01*
X11087611Y-14543508D02*
X11068563Y-14514936D01*
X11068563Y-14514936D02*
X11059039Y-14505412D01*
D13*
X6038500Y-14961500D02*
X6093500Y-14906500D01*
X6038500Y-14851500D01*
X5983500Y-14906500D01*
X6038500Y-14961500D01*
D11*
X6459039Y-14997984D02*
X6344753Y-14997984D01*
X6401896Y-14997984D02*
X6401896Y-14797984D01*
X6401896Y-14797984D02*
X6382848Y-14826555D01*
X6382848Y-14826555D02*
X6363801Y-14845603D01*
X6363801Y-14845603D02*
X6344753Y-14855127D01*
X6544753Y-14978936D02*
X6554277Y-14988460D01*
X6554277Y-14988460D02*
X6544753Y-14997984D01*
X6544753Y-14997984D02*
X6535229Y-14988460D01*
X6535229Y-14988460D02*
X6544753Y-14978936D01*
X6544753Y-14978936D02*
X6544753Y-14997984D01*
X6744753Y-14997984D02*
X6630467Y-14997984D01*
X6687610Y-14997984D02*
X6687610Y-14797984D01*
X6687610Y-14797984D02*
X6668562Y-14826555D01*
X6668562Y-14826555D02*
X6649515Y-14845603D01*
X6649515Y-14845603D02*
X6630467Y-14855127D01*
X6868562Y-14797984D02*
X6887610Y-14797984D01*
X6887610Y-14797984D02*
X6906658Y-14807508D01*
X6906658Y-14807508D02*
X6916182Y-14817031D01*
X6916182Y-14817031D02*
X6925705Y-14836079D01*
X6925705Y-14836079D02*
X6935229Y-14874174D01*
X6935229Y-14874174D02*
X6935229Y-14921793D01*
X6935229Y-14921793D02*
X6925705Y-14959888D01*
X6925705Y-14959888D02*
X6916182Y-14978936D01*
X6916182Y-14978936D02*
X6906658Y-14988460D01*
X6906658Y-14988460D02*
X6887610Y-14997984D01*
X6887610Y-14997984D02*
X6868562Y-14997984D01*
X6868562Y-14997984D02*
X6849515Y-14988460D01*
X6849515Y-14988460D02*
X6839991Y-14978936D01*
X6839991Y-14978936D02*
X6830467Y-14959888D01*
X6830467Y-14959888D02*
X6820943Y-14921793D01*
X6820943Y-14921793D02*
X6820943Y-14874174D01*
X6820943Y-14874174D02*
X6830467Y-14836079D01*
X6830467Y-14836079D02*
X6839991Y-14817031D01*
X6839991Y-14817031D02*
X6849515Y-14807508D01*
X6849515Y-14807508D02*
X6868562Y-14797984D01*
X7059039Y-14797984D02*
X7078086Y-14797984D01*
X7078086Y-14797984D02*
X7097134Y-14807508D01*
X7097134Y-14807508D02*
X7106658Y-14817031D01*
X7106658Y-14817031D02*
X7116182Y-14836079D01*
X7116182Y-14836079D02*
X7125705Y-14874174D01*
X7125705Y-14874174D02*
X7125705Y-14921793D01*
X7125705Y-14921793D02*
X7116182Y-14959888D01*
X7116182Y-14959888D02*
X7106658Y-14978936D01*
X7106658Y-14978936D02*
X7097134Y-14988460D01*
X7097134Y-14988460D02*
X7078086Y-14997984D01*
X7078086Y-14997984D02*
X7059039Y-14997984D01*
X7059039Y-14997984D02*
X7039991Y-14988460D01*
X7039991Y-14988460D02*
X7030467Y-14978936D01*
X7030467Y-14978936D02*
X7020943Y-14959888D01*
X7020943Y-14959888D02*
X7011420Y-14921793D01*
X7011420Y-14921793D02*
X7011420Y-14874174D01*
X7011420Y-14874174D02*
X7020943Y-14836079D01*
X7020943Y-14836079D02*
X7030467Y-14817031D01*
X7030467Y-14817031D02*
X7039991Y-14807508D01*
X7039991Y-14807508D02*
X7059039Y-14797984D01*
X7211420Y-14997984D02*
X7211420Y-14864650D01*
X7211420Y-14883698D02*
X7220943Y-14874174D01*
X7220943Y-14874174D02*
X7239991Y-14864650D01*
X7239991Y-14864650D02*
X7268563Y-14864650D01*
X7268563Y-14864650D02*
X7287610Y-14874174D01*
X7287610Y-14874174D02*
X7297134Y-14893222D01*
X7297134Y-14893222D02*
X7297134Y-14997984D01*
X7297134Y-14893222D02*
X7306658Y-14874174D01*
X7306658Y-14874174D02*
X7325705Y-14864650D01*
X7325705Y-14864650D02*
X7354277Y-14864650D01*
X7354277Y-14864650D02*
X7373324Y-14874174D01*
X7373324Y-14874174D02*
X7382848Y-14893222D01*
X7382848Y-14893222D02*
X7382848Y-14997984D01*
X7478086Y-14997984D02*
X7478086Y-14864650D01*
X7478086Y-14883698D02*
X7487610Y-14874174D01*
X7487610Y-14874174D02*
X7506658Y-14864650D01*
X7506658Y-14864650D02*
X7535229Y-14864650D01*
X7535229Y-14864650D02*
X7554277Y-14874174D01*
X7554277Y-14874174D02*
X7563801Y-14893222D01*
X7563801Y-14893222D02*
X7563801Y-14997984D01*
X7563801Y-14893222D02*
X7573324Y-14874174D01*
X7573324Y-14874174D02*
X7592372Y-14864650D01*
X7592372Y-14864650D02*
X7620943Y-14864650D01*
X7620943Y-14864650D02*
X7639991Y-14874174D01*
X7639991Y-14874174D02*
X7649515Y-14893222D01*
X7649515Y-14893222D02*
X7649515Y-14997984D01*
X8039991Y-14788460D02*
X7868563Y-15045603D01*
X8297134Y-14797984D02*
X8316182Y-14797984D01*
X8316182Y-14797984D02*
X8335229Y-14807508D01*
X8335229Y-14807508D02*
X8344753Y-14817031D01*
X8344753Y-14817031D02*
X8354277Y-14836079D01*
X8354277Y-14836079D02*
X8363801Y-14874174D01*
X8363801Y-14874174D02*
X8363801Y-14921793D01*
X8363801Y-14921793D02*
X8354277Y-14959888D01*
X8354277Y-14959888D02*
X8344753Y-14978936D01*
X8344753Y-14978936D02*
X8335229Y-14988460D01*
X8335229Y-14988460D02*
X8316182Y-14997984D01*
X8316182Y-14997984D02*
X8297134Y-14997984D01*
X8297134Y-14997984D02*
X8278086Y-14988460D01*
X8278086Y-14988460D02*
X8268563Y-14978936D01*
X8268563Y-14978936D02*
X8259039Y-14959888D01*
X8259039Y-14959888D02*
X8249515Y-14921793D01*
X8249515Y-14921793D02*
X8249515Y-14874174D01*
X8249515Y-14874174D02*
X8259039Y-14836079D01*
X8259039Y-14836079D02*
X8268563Y-14817031D01*
X8268563Y-14817031D02*
X8278086Y-14807508D01*
X8278086Y-14807508D02*
X8297134Y-14797984D01*
X8449515Y-14978936D02*
X8459039Y-14988460D01*
X8459039Y-14988460D02*
X8449515Y-14997984D01*
X8449515Y-14997984D02*
X8439991Y-14988460D01*
X8439991Y-14988460D02*
X8449515Y-14978936D01*
X8449515Y-14978936D02*
X8449515Y-14997984D01*
X8582848Y-14797984D02*
X8601896Y-14797984D01*
X8601896Y-14797984D02*
X8620944Y-14807508D01*
X8620944Y-14807508D02*
X8630468Y-14817031D01*
X8630468Y-14817031D02*
X8639991Y-14836079D01*
X8639991Y-14836079D02*
X8649515Y-14874174D01*
X8649515Y-14874174D02*
X8649515Y-14921793D01*
X8649515Y-14921793D02*
X8639991Y-14959888D01*
X8639991Y-14959888D02*
X8630468Y-14978936D01*
X8630468Y-14978936D02*
X8620944Y-14988460D01*
X8620944Y-14988460D02*
X8601896Y-14997984D01*
X8601896Y-14997984D02*
X8582848Y-14997984D01*
X8582848Y-14997984D02*
X8563801Y-14988460D01*
X8563801Y-14988460D02*
X8554277Y-14978936D01*
X8554277Y-14978936D02*
X8544753Y-14959888D01*
X8544753Y-14959888D02*
X8535229Y-14921793D01*
X8535229Y-14921793D02*
X8535229Y-14874174D01*
X8535229Y-14874174D02*
X8544753Y-14836079D01*
X8544753Y-14836079D02*
X8554277Y-14817031D01*
X8554277Y-14817031D02*
X8563801Y-14807508D01*
X8563801Y-14807508D02*
X8582848Y-14797984D01*
X8820944Y-14864650D02*
X8820944Y-14997984D01*
X8773325Y-14788460D02*
X8725706Y-14931317D01*
X8725706Y-14931317D02*
X8849515Y-14931317D01*
X8906658Y-14797984D02*
X9030468Y-14797984D01*
X9030468Y-14797984D02*
X8963801Y-14874174D01*
X8963801Y-14874174D02*
X8992372Y-14874174D01*
X8992372Y-14874174D02*
X9011420Y-14883698D01*
X9011420Y-14883698D02*
X9020944Y-14893222D01*
X9020944Y-14893222D02*
X9030468Y-14912269D01*
X9030468Y-14912269D02*
X9030468Y-14959888D01*
X9030468Y-14959888D02*
X9020944Y-14978936D01*
X9020944Y-14978936D02*
X9011420Y-14988460D01*
X9011420Y-14988460D02*
X8992372Y-14997984D01*
X8992372Y-14997984D02*
X8935229Y-14997984D01*
X8935229Y-14997984D02*
X8916182Y-14988460D01*
X8916182Y-14988460D02*
X8906658Y-14978936D01*
X9097134Y-14797984D02*
X9220944Y-14797984D01*
X9220944Y-14797984D02*
X9154277Y-14874174D01*
X9154277Y-14874174D02*
X9182849Y-14874174D01*
X9182849Y-14874174D02*
X9201896Y-14883698D01*
X9201896Y-14883698D02*
X9211420Y-14893222D01*
X9211420Y-14893222D02*
X9220944Y-14912269D01*
X9220944Y-14912269D02*
X9220944Y-14959888D01*
X9220944Y-14959888D02*
X9211420Y-14978936D01*
X9211420Y-14978936D02*
X9201896Y-14988460D01*
X9201896Y-14988460D02*
X9182849Y-14997984D01*
X9182849Y-14997984D02*
X9125706Y-14997984D01*
X9125706Y-14997984D02*
X9106658Y-14988460D01*
X9106658Y-14988460D02*
X9097134Y-14978936D01*
X9297134Y-14797984D02*
X9297134Y-14836079D01*
X9373325Y-14797984D02*
X9373325Y-14836079D01*
X9668563Y-15074174D02*
X9659039Y-15064650D01*
X9659039Y-15064650D02*
X9639991Y-15036079D01*
X9639991Y-15036079D02*
X9630468Y-15017031D01*
X9630468Y-15017031D02*
X9620944Y-14988460D01*
X9620944Y-14988460D02*
X9611420Y-14940841D01*
X9611420Y-14940841D02*
X9611420Y-14902746D01*
X9611420Y-14902746D02*
X9620944Y-14855127D01*
X9620944Y-14855127D02*
X9630468Y-14826555D01*
X9630468Y-14826555D02*
X9639991Y-14807508D01*
X9639991Y-14807508D02*
X9659039Y-14778936D01*
X9659039Y-14778936D02*
X9668563Y-14769412D01*
X9725706Y-14797984D02*
X9849515Y-14797984D01*
X9849515Y-14797984D02*
X9782849Y-14874174D01*
X9782849Y-14874174D02*
X9811420Y-14874174D01*
X9811420Y-14874174D02*
X9830468Y-14883698D01*
X9830468Y-14883698D02*
X9839991Y-14893222D01*
X9839991Y-14893222D02*
X9849515Y-14912269D01*
X9849515Y-14912269D02*
X9849515Y-14959888D01*
X9849515Y-14959888D02*
X9839991Y-14978936D01*
X9839991Y-14978936D02*
X9830468Y-14988460D01*
X9830468Y-14988460D02*
X9811420Y-14997984D01*
X9811420Y-14997984D02*
X9754277Y-14997984D01*
X9754277Y-14997984D02*
X9735230Y-14988460D01*
X9735230Y-14988460D02*
X9725706Y-14978936D01*
X10087611Y-14997984D02*
X10087611Y-14797984D01*
X10173325Y-14997984D02*
X10173325Y-14893222D01*
X10173325Y-14893222D02*
X10163801Y-14874174D01*
X10163801Y-14874174D02*
X10144753Y-14864650D01*
X10144753Y-14864650D02*
X10116182Y-14864650D01*
X10116182Y-14864650D02*
X10097134Y-14874174D01*
X10097134Y-14874174D02*
X10087611Y-14883698D01*
X10297134Y-14997984D02*
X10278087Y-14988460D01*
X10278087Y-14988460D02*
X10268563Y-14978936D01*
X10268563Y-14978936D02*
X10259039Y-14959888D01*
X10259039Y-14959888D02*
X10259039Y-14902746D01*
X10259039Y-14902746D02*
X10268563Y-14883698D01*
X10268563Y-14883698D02*
X10278087Y-14874174D01*
X10278087Y-14874174D02*
X10297134Y-14864650D01*
X10297134Y-14864650D02*
X10325706Y-14864650D01*
X10325706Y-14864650D02*
X10344753Y-14874174D01*
X10344753Y-14874174D02*
X10354277Y-14883698D01*
X10354277Y-14883698D02*
X10363801Y-14902746D01*
X10363801Y-14902746D02*
X10363801Y-14959888D01*
X10363801Y-14959888D02*
X10354277Y-14978936D01*
X10354277Y-14978936D02*
X10344753Y-14988460D01*
X10344753Y-14988460D02*
X10325706Y-14997984D01*
X10325706Y-14997984D02*
X10297134Y-14997984D01*
X10478087Y-14997984D02*
X10459039Y-14988460D01*
X10459039Y-14988460D02*
X10449515Y-14969412D01*
X10449515Y-14969412D02*
X10449515Y-14797984D01*
X10630468Y-14988460D02*
X10611420Y-14997984D01*
X10611420Y-14997984D02*
X10573325Y-14997984D01*
X10573325Y-14997984D02*
X10554277Y-14988460D01*
X10554277Y-14988460D02*
X10544753Y-14969412D01*
X10544753Y-14969412D02*
X10544753Y-14893222D01*
X10544753Y-14893222D02*
X10554277Y-14874174D01*
X10554277Y-14874174D02*
X10573325Y-14864650D01*
X10573325Y-14864650D02*
X10611420Y-14864650D01*
X10611420Y-14864650D02*
X10630468Y-14874174D01*
X10630468Y-14874174D02*
X10639992Y-14893222D01*
X10639992Y-14893222D02*
X10639992Y-14912269D01*
X10639992Y-14912269D02*
X10544753Y-14931317D01*
X10716182Y-14988460D02*
X10735230Y-14997984D01*
X10735230Y-14997984D02*
X10773325Y-14997984D01*
X10773325Y-14997984D02*
X10792373Y-14988460D01*
X10792373Y-14988460D02*
X10801896Y-14969412D01*
X10801896Y-14969412D02*
X10801896Y-14959888D01*
X10801896Y-14959888D02*
X10792373Y-14940841D01*
X10792373Y-14940841D02*
X10773325Y-14931317D01*
X10773325Y-14931317D02*
X10744753Y-14931317D01*
X10744753Y-14931317D02*
X10725706Y-14921793D01*
X10725706Y-14921793D02*
X10716182Y-14902746D01*
X10716182Y-14902746D02*
X10716182Y-14893222D01*
X10716182Y-14893222D02*
X10725706Y-14874174D01*
X10725706Y-14874174D02*
X10744753Y-14864650D01*
X10744753Y-14864650D02*
X10773325Y-14864650D01*
X10773325Y-14864650D02*
X10792373Y-14874174D01*
X10868563Y-15074174D02*
X10878087Y-15064650D01*
X10878087Y-15064650D02*
X10897134Y-15036079D01*
X10897134Y-15036079D02*
X10906658Y-15017031D01*
X10906658Y-15017031D02*
X10916182Y-14988460D01*
X10916182Y-14988460D02*
X10925706Y-14940841D01*
X10925706Y-14940841D02*
X10925706Y-14902746D01*
X10925706Y-14902746D02*
X10916182Y-14855127D01*
X10916182Y-14855127D02*
X10906658Y-14826555D01*
X10906658Y-14826555D02*
X10897134Y-14807508D01*
X10897134Y-14807508D02*
X10878087Y-14778936D01*
X10878087Y-14778936D02*
X10868563Y-14769412D01*
D14*
X5973500Y-15110500D02*
X6093500Y-15230500D01*
X6093500Y-15110500D02*
X5973500Y-15230500D01*
X6093500Y-15170500D02*
G75*
G02*
X5973500Y-15170500I-60000J0D01*
G01*
X5973500Y-15170500D02*
G75*
G02*
X6093500Y-15170500I60000J0D01*
G01*
D11*
X6459039Y-15261984D02*
X6344753Y-15261984D01*
X6401896Y-15261984D02*
X6401896Y-15061984D01*
X6401896Y-15061984D02*
X6382848Y-15090555D01*
X6382848Y-15090555D02*
X6363801Y-15109603D01*
X6363801Y-15109603D02*
X6344753Y-15119127D01*
X6544753Y-15242936D02*
X6554277Y-15252460D01*
X6554277Y-15252460D02*
X6544753Y-15261984D01*
X6544753Y-15261984D02*
X6535229Y-15252460D01*
X6535229Y-15252460D02*
X6544753Y-15242936D01*
X6544753Y-15242936D02*
X6544753Y-15261984D01*
X6630467Y-15081031D02*
X6639991Y-15071508D01*
X6639991Y-15071508D02*
X6659039Y-15061984D01*
X6659039Y-15061984D02*
X6706658Y-15061984D01*
X6706658Y-15061984D02*
X6725705Y-15071508D01*
X6725705Y-15071508D02*
X6735229Y-15081031D01*
X6735229Y-15081031D02*
X6744753Y-15100079D01*
X6744753Y-15100079D02*
X6744753Y-15119127D01*
X6744753Y-15119127D02*
X6735229Y-15147698D01*
X6735229Y-15147698D02*
X6620943Y-15261984D01*
X6620943Y-15261984D02*
X6744753Y-15261984D01*
X6868562Y-15061984D02*
X6887610Y-15061984D01*
X6887610Y-15061984D02*
X6906658Y-15071508D01*
X6906658Y-15071508D02*
X6916182Y-15081031D01*
X6916182Y-15081031D02*
X6925705Y-15100079D01*
X6925705Y-15100079D02*
X6935229Y-15138174D01*
X6935229Y-15138174D02*
X6935229Y-15185793D01*
X6935229Y-15185793D02*
X6925705Y-15223888D01*
X6925705Y-15223888D02*
X6916182Y-15242936D01*
X6916182Y-15242936D02*
X6906658Y-15252460D01*
X6906658Y-15252460D02*
X6887610Y-15261984D01*
X6887610Y-15261984D02*
X6868562Y-15261984D01*
X6868562Y-15261984D02*
X6849515Y-15252460D01*
X6849515Y-15252460D02*
X6839991Y-15242936D01*
X6839991Y-15242936D02*
X6830467Y-15223888D01*
X6830467Y-15223888D02*
X6820943Y-15185793D01*
X6820943Y-15185793D02*
X6820943Y-15138174D01*
X6820943Y-15138174D02*
X6830467Y-15100079D01*
X6830467Y-15100079D02*
X6839991Y-15081031D01*
X6839991Y-15081031D02*
X6849515Y-15071508D01*
X6849515Y-15071508D02*
X6868562Y-15061984D01*
X7059039Y-15061984D02*
X7078086Y-15061984D01*
X7078086Y-15061984D02*
X7097134Y-15071508D01*
X7097134Y-15071508D02*
X7106658Y-15081031D01*
X7106658Y-15081031D02*
X7116182Y-15100079D01*
X7116182Y-15100079D02*
X7125705Y-15138174D01*
X7125705Y-15138174D02*
X7125705Y-15185793D01*
X7125705Y-15185793D02*
X7116182Y-15223888D01*
X7116182Y-15223888D02*
X7106658Y-15242936D01*
X7106658Y-15242936D02*
X7097134Y-15252460D01*
X7097134Y-15252460D02*
X7078086Y-15261984D01*
X7078086Y-15261984D02*
X7059039Y-15261984D01*
X7059039Y-15261984D02*
X7039991Y-15252460D01*
X7039991Y-15252460D02*
X7030467Y-15242936D01*
X7030467Y-15242936D02*
X7020943Y-15223888D01*
X7020943Y-15223888D02*
X7011420Y-15185793D01*
X7011420Y-15185793D02*
X7011420Y-15138174D01*
X7011420Y-15138174D02*
X7020943Y-15100079D01*
X7020943Y-15100079D02*
X7030467Y-15081031D01*
X7030467Y-15081031D02*
X7039991Y-15071508D01*
X7039991Y-15071508D02*
X7059039Y-15061984D01*
X7211420Y-15261984D02*
X7211420Y-15128650D01*
X7211420Y-15147698D02*
X7220943Y-15138174D01*
X7220943Y-15138174D02*
X7239991Y-15128650D01*
X7239991Y-15128650D02*
X7268563Y-15128650D01*
X7268563Y-15128650D02*
X7287610Y-15138174D01*
X7287610Y-15138174D02*
X7297134Y-15157222D01*
X7297134Y-15157222D02*
X7297134Y-15261984D01*
X7297134Y-15157222D02*
X7306658Y-15138174D01*
X7306658Y-15138174D02*
X7325705Y-15128650D01*
X7325705Y-15128650D02*
X7354277Y-15128650D01*
X7354277Y-15128650D02*
X7373324Y-15138174D01*
X7373324Y-15138174D02*
X7382848Y-15157222D01*
X7382848Y-15157222D02*
X7382848Y-15261984D01*
X7478086Y-15261984D02*
X7478086Y-15128650D01*
X7478086Y-15147698D02*
X7487610Y-15138174D01*
X7487610Y-15138174D02*
X7506658Y-15128650D01*
X7506658Y-15128650D02*
X7535229Y-15128650D01*
X7535229Y-15128650D02*
X7554277Y-15138174D01*
X7554277Y-15138174D02*
X7563801Y-15157222D01*
X7563801Y-15157222D02*
X7563801Y-15261984D01*
X7563801Y-15157222D02*
X7573324Y-15138174D01*
X7573324Y-15138174D02*
X7592372Y-15128650D01*
X7592372Y-15128650D02*
X7620943Y-15128650D01*
X7620943Y-15128650D02*
X7639991Y-15138174D01*
X7639991Y-15138174D02*
X7649515Y-15157222D01*
X7649515Y-15157222D02*
X7649515Y-15261984D01*
X8039991Y-15052460D02*
X7868563Y-15309603D01*
X8297134Y-15061984D02*
X8316182Y-15061984D01*
X8316182Y-15061984D02*
X8335229Y-15071508D01*
X8335229Y-15071508D02*
X8344753Y-15081031D01*
X8344753Y-15081031D02*
X8354277Y-15100079D01*
X8354277Y-15100079D02*
X8363801Y-15138174D01*
X8363801Y-15138174D02*
X8363801Y-15185793D01*
X8363801Y-15185793D02*
X8354277Y-15223888D01*
X8354277Y-15223888D02*
X8344753Y-15242936D01*
X8344753Y-15242936D02*
X8335229Y-15252460D01*
X8335229Y-15252460D02*
X8316182Y-15261984D01*
X8316182Y-15261984D02*
X8297134Y-15261984D01*
X8297134Y-15261984D02*
X8278086Y-15252460D01*
X8278086Y-15252460D02*
X8268563Y-15242936D01*
X8268563Y-15242936D02*
X8259039Y-15223888D01*
X8259039Y-15223888D02*
X8249515Y-15185793D01*
X8249515Y-15185793D02*
X8249515Y-15138174D01*
X8249515Y-15138174D02*
X8259039Y-15100079D01*
X8259039Y-15100079D02*
X8268563Y-15081031D01*
X8268563Y-15081031D02*
X8278086Y-15071508D01*
X8278086Y-15071508D02*
X8297134Y-15061984D01*
X8449515Y-15242936D02*
X8459039Y-15252460D01*
X8459039Y-15252460D02*
X8449515Y-15261984D01*
X8449515Y-15261984D02*
X8439991Y-15252460D01*
X8439991Y-15252460D02*
X8449515Y-15242936D01*
X8449515Y-15242936D02*
X8449515Y-15261984D01*
X8582848Y-15061984D02*
X8601896Y-15061984D01*
X8601896Y-15061984D02*
X8620944Y-15071508D01*
X8620944Y-15071508D02*
X8630468Y-15081031D01*
X8630468Y-15081031D02*
X8639991Y-15100079D01*
X8639991Y-15100079D02*
X8649515Y-15138174D01*
X8649515Y-15138174D02*
X8649515Y-15185793D01*
X8649515Y-15185793D02*
X8639991Y-15223888D01*
X8639991Y-15223888D02*
X8630468Y-15242936D01*
X8630468Y-15242936D02*
X8620944Y-15252460D01*
X8620944Y-15252460D02*
X8601896Y-15261984D01*
X8601896Y-15261984D02*
X8582848Y-15261984D01*
X8582848Y-15261984D02*
X8563801Y-15252460D01*
X8563801Y-15252460D02*
X8554277Y-15242936D01*
X8554277Y-15242936D02*
X8544753Y-15223888D01*
X8544753Y-15223888D02*
X8535229Y-15185793D01*
X8535229Y-15185793D02*
X8535229Y-15138174D01*
X8535229Y-15138174D02*
X8544753Y-15100079D01*
X8544753Y-15100079D02*
X8554277Y-15081031D01*
X8554277Y-15081031D02*
X8563801Y-15071508D01*
X8563801Y-15071508D02*
X8582848Y-15061984D01*
X8820944Y-15128650D02*
X8820944Y-15261984D01*
X8773325Y-15052460D02*
X8725706Y-15195317D01*
X8725706Y-15195317D02*
X8849515Y-15195317D01*
X8906658Y-15061984D02*
X9039991Y-15061984D01*
X9039991Y-15061984D02*
X8954277Y-15261984D01*
X9106658Y-15081031D02*
X9116182Y-15071508D01*
X9116182Y-15071508D02*
X9135229Y-15061984D01*
X9135229Y-15061984D02*
X9182849Y-15061984D01*
X9182849Y-15061984D02*
X9201896Y-15071508D01*
X9201896Y-15071508D02*
X9211420Y-15081031D01*
X9211420Y-15081031D02*
X9220944Y-15100079D01*
X9220944Y-15100079D02*
X9220944Y-15119127D01*
X9220944Y-15119127D02*
X9211420Y-15147698D01*
X9211420Y-15147698D02*
X9097134Y-15261984D01*
X9097134Y-15261984D02*
X9220944Y-15261984D01*
X9297134Y-15061984D02*
X9297134Y-15100079D01*
X9373325Y-15061984D02*
X9373325Y-15100079D01*
X9668563Y-15338174D02*
X9659039Y-15328650D01*
X9659039Y-15328650D02*
X9639991Y-15300079D01*
X9639991Y-15300079D02*
X9630468Y-15281031D01*
X9630468Y-15281031D02*
X9620944Y-15252460D01*
X9620944Y-15252460D02*
X9611420Y-15204841D01*
X9611420Y-15204841D02*
X9611420Y-15166746D01*
X9611420Y-15166746D02*
X9620944Y-15119127D01*
X9620944Y-15119127D02*
X9630468Y-15090555D01*
X9630468Y-15090555D02*
X9639991Y-15071508D01*
X9639991Y-15071508D02*
X9659039Y-15042936D01*
X9659039Y-15042936D02*
X9668563Y-15033412D01*
X9830468Y-15061984D02*
X9792372Y-15061984D01*
X9792372Y-15061984D02*
X9773325Y-15071508D01*
X9773325Y-15071508D02*
X9763801Y-15081031D01*
X9763801Y-15081031D02*
X9744753Y-15109603D01*
X9744753Y-15109603D02*
X9735230Y-15147698D01*
X9735230Y-15147698D02*
X9735230Y-15223888D01*
X9735230Y-15223888D02*
X9744753Y-15242936D01*
X9744753Y-15242936D02*
X9754277Y-15252460D01*
X9754277Y-15252460D02*
X9773325Y-15261984D01*
X9773325Y-15261984D02*
X9811420Y-15261984D01*
X9811420Y-15261984D02*
X9830468Y-15252460D01*
X9830468Y-15252460D02*
X9839991Y-15242936D01*
X9839991Y-15242936D02*
X9849515Y-15223888D01*
X9849515Y-15223888D02*
X9849515Y-15176269D01*
X9849515Y-15176269D02*
X9839991Y-15157222D01*
X9839991Y-15157222D02*
X9830468Y-15147698D01*
X9830468Y-15147698D02*
X9811420Y-15138174D01*
X9811420Y-15138174D02*
X9773325Y-15138174D01*
X9773325Y-15138174D02*
X9754277Y-15147698D01*
X9754277Y-15147698D02*
X9744753Y-15157222D01*
X9744753Y-15157222D02*
X9735230Y-15176269D01*
X10087611Y-15261984D02*
X10087611Y-15061984D01*
X10173325Y-15261984D02*
X10173325Y-15157222D01*
X10173325Y-15157222D02*
X10163801Y-15138174D01*
X10163801Y-15138174D02*
X10144753Y-15128650D01*
X10144753Y-15128650D02*
X10116182Y-15128650D01*
X10116182Y-15128650D02*
X10097134Y-15138174D01*
X10097134Y-15138174D02*
X10087611Y-15147698D01*
X10297134Y-15261984D02*
X10278087Y-15252460D01*
X10278087Y-15252460D02*
X10268563Y-15242936D01*
X10268563Y-15242936D02*
X10259039Y-15223888D01*
X10259039Y-15223888D02*
X10259039Y-15166746D01*
X10259039Y-15166746D02*
X10268563Y-15147698D01*
X10268563Y-15147698D02*
X10278087Y-15138174D01*
X10278087Y-15138174D02*
X10297134Y-15128650D01*
X10297134Y-15128650D02*
X10325706Y-15128650D01*
X10325706Y-15128650D02*
X10344753Y-15138174D01*
X10344753Y-15138174D02*
X10354277Y-15147698D01*
X10354277Y-15147698D02*
X10363801Y-15166746D01*
X10363801Y-15166746D02*
X10363801Y-15223888D01*
X10363801Y-15223888D02*
X10354277Y-15242936D01*
X10354277Y-15242936D02*
X10344753Y-15252460D01*
X10344753Y-15252460D02*
X10325706Y-15261984D01*
X10325706Y-15261984D02*
X10297134Y-15261984D01*
X10478087Y-15261984D02*
X10459039Y-15252460D01*
X10459039Y-15252460D02*
X10449515Y-15233412D01*
X10449515Y-15233412D02*
X10449515Y-15061984D01*
X10630468Y-15252460D02*
X10611420Y-15261984D01*
X10611420Y-15261984D02*
X10573325Y-15261984D01*
X10573325Y-15261984D02*
X10554277Y-15252460D01*
X10554277Y-15252460D02*
X10544753Y-15233412D01*
X10544753Y-15233412D02*
X10544753Y-15157222D01*
X10544753Y-15157222D02*
X10554277Y-15138174D01*
X10554277Y-15138174D02*
X10573325Y-15128650D01*
X10573325Y-15128650D02*
X10611420Y-15128650D01*
X10611420Y-15128650D02*
X10630468Y-15138174D01*
X10630468Y-15138174D02*
X10639992Y-15157222D01*
X10639992Y-15157222D02*
X10639992Y-15176269D01*
X10639992Y-15176269D02*
X10544753Y-15195317D01*
X10716182Y-15252460D02*
X10735230Y-15261984D01*
X10735230Y-15261984D02*
X10773325Y-15261984D01*
X10773325Y-15261984D02*
X10792373Y-15252460D01*
X10792373Y-15252460D02*
X10801896Y-15233412D01*
X10801896Y-15233412D02*
X10801896Y-15223888D01*
X10801896Y-15223888D02*
X10792373Y-15204841D01*
X10792373Y-15204841D02*
X10773325Y-15195317D01*
X10773325Y-15195317D02*
X10744753Y-15195317D01*
X10744753Y-15195317D02*
X10725706Y-15185793D01*
X10725706Y-15185793D02*
X10716182Y-15166746D01*
X10716182Y-15166746D02*
X10716182Y-15157222D01*
X10716182Y-15157222D02*
X10725706Y-15138174D01*
X10725706Y-15138174D02*
X10744753Y-15128650D01*
X10744753Y-15128650D02*
X10773325Y-15128650D01*
X10773325Y-15128650D02*
X10792373Y-15138174D01*
X10868563Y-15338174D02*
X10878087Y-15328650D01*
X10878087Y-15328650D02*
X10897134Y-15300079D01*
X10897134Y-15300079D02*
X10906658Y-15281031D01*
X10906658Y-15281031D02*
X10916182Y-15252460D01*
X10916182Y-15252460D02*
X10925706Y-15204841D01*
X10925706Y-15204841D02*
X10925706Y-15166746D01*
X10925706Y-15166746D02*
X10916182Y-15119127D01*
X10916182Y-15119127D02*
X10906658Y-15090555D01*
X10906658Y-15090555D02*
X10897134Y-15071508D01*
X10897134Y-15071508D02*
X10878087Y-15042936D01*
X10878087Y-15042936D02*
X10868563Y-15033412D01*
D15*
X5943500Y-15359500D02*
X6093500Y-15509500D01*
X6093500Y-15359500D02*
X5943500Y-15509500D01*
X6018500Y-15359500D02*
X6018500Y-15509500D01*
X5943500Y-15434500D02*
X6093500Y-15434500D01*
D11*
X6459039Y-15525984D02*
X6344753Y-15525984D01*
X6401896Y-15525984D02*
X6401896Y-15325984D01*
X6401896Y-15325984D02*
X6382848Y-15354555D01*
X6382848Y-15354555D02*
X6363801Y-15373603D01*
X6363801Y-15373603D02*
X6344753Y-15383127D01*
X6544753Y-15506936D02*
X6554277Y-15516460D01*
X6554277Y-15516460D02*
X6544753Y-15525984D01*
X6544753Y-15525984D02*
X6535229Y-15516460D01*
X6535229Y-15516460D02*
X6544753Y-15506936D01*
X6544753Y-15506936D02*
X6544753Y-15525984D01*
X6735229Y-15325984D02*
X6639991Y-15325984D01*
X6639991Y-15325984D02*
X6630467Y-15421222D01*
X6630467Y-15421222D02*
X6639991Y-15411698D01*
X6639991Y-15411698D02*
X6659039Y-15402174D01*
X6659039Y-15402174D02*
X6706658Y-15402174D01*
X6706658Y-15402174D02*
X6725705Y-15411698D01*
X6725705Y-15411698D02*
X6735229Y-15421222D01*
X6735229Y-15421222D02*
X6744753Y-15440269D01*
X6744753Y-15440269D02*
X6744753Y-15487888D01*
X6744753Y-15487888D02*
X6735229Y-15506936D01*
X6735229Y-15506936D02*
X6725705Y-15516460D01*
X6725705Y-15516460D02*
X6706658Y-15525984D01*
X6706658Y-15525984D02*
X6659039Y-15525984D01*
X6659039Y-15525984D02*
X6639991Y-15516460D01*
X6639991Y-15516460D02*
X6630467Y-15506936D01*
X6868562Y-15325984D02*
X6887610Y-15325984D01*
X6887610Y-15325984D02*
X6906658Y-15335508D01*
X6906658Y-15335508D02*
X6916182Y-15345031D01*
X6916182Y-15345031D02*
X6925705Y-15364079D01*
X6925705Y-15364079D02*
X6935229Y-15402174D01*
X6935229Y-15402174D02*
X6935229Y-15449793D01*
X6935229Y-15449793D02*
X6925705Y-15487888D01*
X6925705Y-15487888D02*
X6916182Y-15506936D01*
X6916182Y-15506936D02*
X6906658Y-15516460D01*
X6906658Y-15516460D02*
X6887610Y-15525984D01*
X6887610Y-15525984D02*
X6868562Y-15525984D01*
X6868562Y-15525984D02*
X6849515Y-15516460D01*
X6849515Y-15516460D02*
X6839991Y-15506936D01*
X6839991Y-15506936D02*
X6830467Y-15487888D01*
X6830467Y-15487888D02*
X6820943Y-15449793D01*
X6820943Y-15449793D02*
X6820943Y-15402174D01*
X6820943Y-15402174D02*
X6830467Y-15364079D01*
X6830467Y-15364079D02*
X6839991Y-15345031D01*
X6839991Y-15345031D02*
X6849515Y-15335508D01*
X6849515Y-15335508D02*
X6868562Y-15325984D01*
X7059039Y-15325984D02*
X7078086Y-15325984D01*
X7078086Y-15325984D02*
X7097134Y-15335508D01*
X7097134Y-15335508D02*
X7106658Y-15345031D01*
X7106658Y-15345031D02*
X7116182Y-15364079D01*
X7116182Y-15364079D02*
X7125705Y-15402174D01*
X7125705Y-15402174D02*
X7125705Y-15449793D01*
X7125705Y-15449793D02*
X7116182Y-15487888D01*
X7116182Y-15487888D02*
X7106658Y-15506936D01*
X7106658Y-15506936D02*
X7097134Y-15516460D01*
X7097134Y-15516460D02*
X7078086Y-15525984D01*
X7078086Y-15525984D02*
X7059039Y-15525984D01*
X7059039Y-15525984D02*
X7039991Y-15516460D01*
X7039991Y-15516460D02*
X7030467Y-15506936D01*
X7030467Y-15506936D02*
X7020943Y-15487888D01*
X7020943Y-15487888D02*
X7011420Y-15449793D01*
X7011420Y-15449793D02*
X7011420Y-15402174D01*
X7011420Y-15402174D02*
X7020943Y-15364079D01*
X7020943Y-15364079D02*
X7030467Y-15345031D01*
X7030467Y-15345031D02*
X7039991Y-15335508D01*
X7039991Y-15335508D02*
X7059039Y-15325984D01*
X7211420Y-15525984D02*
X7211420Y-15392650D01*
X7211420Y-15411698D02*
X7220943Y-15402174D01*
X7220943Y-15402174D02*
X7239991Y-15392650D01*
X7239991Y-15392650D02*
X7268563Y-15392650D01*
X7268563Y-15392650D02*
X7287610Y-15402174D01*
X7287610Y-15402174D02*
X7297134Y-15421222D01*
X7297134Y-15421222D02*
X7297134Y-15525984D01*
X7297134Y-15421222D02*
X7306658Y-15402174D01*
X7306658Y-15402174D02*
X7325705Y-15392650D01*
X7325705Y-15392650D02*
X7354277Y-15392650D01*
X7354277Y-15392650D02*
X7373324Y-15402174D01*
X7373324Y-15402174D02*
X7382848Y-15421222D01*
X7382848Y-15421222D02*
X7382848Y-15525984D01*
X7478086Y-15525984D02*
X7478086Y-15392650D01*
X7478086Y-15411698D02*
X7487610Y-15402174D01*
X7487610Y-15402174D02*
X7506658Y-15392650D01*
X7506658Y-15392650D02*
X7535229Y-15392650D01*
X7535229Y-15392650D02*
X7554277Y-15402174D01*
X7554277Y-15402174D02*
X7563801Y-15421222D01*
X7563801Y-15421222D02*
X7563801Y-15525984D01*
X7563801Y-15421222D02*
X7573324Y-15402174D01*
X7573324Y-15402174D02*
X7592372Y-15392650D01*
X7592372Y-15392650D02*
X7620943Y-15392650D01*
X7620943Y-15392650D02*
X7639991Y-15402174D01*
X7639991Y-15402174D02*
X7649515Y-15421222D01*
X7649515Y-15421222D02*
X7649515Y-15525984D01*
X8039991Y-15316460D02*
X7868563Y-15573603D01*
X8297134Y-15325984D02*
X8316182Y-15325984D01*
X8316182Y-15325984D02*
X8335229Y-15335508D01*
X8335229Y-15335508D02*
X8344753Y-15345031D01*
X8344753Y-15345031D02*
X8354277Y-15364079D01*
X8354277Y-15364079D02*
X8363801Y-15402174D01*
X8363801Y-15402174D02*
X8363801Y-15449793D01*
X8363801Y-15449793D02*
X8354277Y-15487888D01*
X8354277Y-15487888D02*
X8344753Y-15506936D01*
X8344753Y-15506936D02*
X8335229Y-15516460D01*
X8335229Y-15516460D02*
X8316182Y-15525984D01*
X8316182Y-15525984D02*
X8297134Y-15525984D01*
X8297134Y-15525984D02*
X8278086Y-15516460D01*
X8278086Y-15516460D02*
X8268563Y-15506936D01*
X8268563Y-15506936D02*
X8259039Y-15487888D01*
X8259039Y-15487888D02*
X8249515Y-15449793D01*
X8249515Y-15449793D02*
X8249515Y-15402174D01*
X8249515Y-15402174D02*
X8259039Y-15364079D01*
X8259039Y-15364079D02*
X8268563Y-15345031D01*
X8268563Y-15345031D02*
X8278086Y-15335508D01*
X8278086Y-15335508D02*
X8297134Y-15325984D01*
X8449515Y-15506936D02*
X8459039Y-15516460D01*
X8459039Y-15516460D02*
X8449515Y-15525984D01*
X8449515Y-15525984D02*
X8439991Y-15516460D01*
X8439991Y-15516460D02*
X8449515Y-15506936D01*
X8449515Y-15506936D02*
X8449515Y-15525984D01*
X8582848Y-15325984D02*
X8601896Y-15325984D01*
X8601896Y-15325984D02*
X8620944Y-15335508D01*
X8620944Y-15335508D02*
X8630468Y-15345031D01*
X8630468Y-15345031D02*
X8639991Y-15364079D01*
X8639991Y-15364079D02*
X8649515Y-15402174D01*
X8649515Y-15402174D02*
X8649515Y-15449793D01*
X8649515Y-15449793D02*
X8639991Y-15487888D01*
X8639991Y-15487888D02*
X8630468Y-15506936D01*
X8630468Y-15506936D02*
X8620944Y-15516460D01*
X8620944Y-15516460D02*
X8601896Y-15525984D01*
X8601896Y-15525984D02*
X8582848Y-15525984D01*
X8582848Y-15525984D02*
X8563801Y-15516460D01*
X8563801Y-15516460D02*
X8554277Y-15506936D01*
X8554277Y-15506936D02*
X8544753Y-15487888D01*
X8544753Y-15487888D02*
X8535229Y-15449793D01*
X8535229Y-15449793D02*
X8535229Y-15402174D01*
X8535229Y-15402174D02*
X8544753Y-15364079D01*
X8544753Y-15364079D02*
X8554277Y-15345031D01*
X8554277Y-15345031D02*
X8563801Y-15335508D01*
X8563801Y-15335508D02*
X8582848Y-15325984D01*
X8830468Y-15325984D02*
X8735229Y-15325984D01*
X8735229Y-15325984D02*
X8725706Y-15421222D01*
X8725706Y-15421222D02*
X8735229Y-15411698D01*
X8735229Y-15411698D02*
X8754277Y-15402174D01*
X8754277Y-15402174D02*
X8801896Y-15402174D01*
X8801896Y-15402174D02*
X8820944Y-15411698D01*
X8820944Y-15411698D02*
X8830468Y-15421222D01*
X8830468Y-15421222D02*
X8839991Y-15440269D01*
X8839991Y-15440269D02*
X8839991Y-15487888D01*
X8839991Y-15487888D02*
X8830468Y-15506936D01*
X8830468Y-15506936D02*
X8820944Y-15516460D01*
X8820944Y-15516460D02*
X8801896Y-15525984D01*
X8801896Y-15525984D02*
X8754277Y-15525984D01*
X8754277Y-15525984D02*
X8735229Y-15516460D01*
X8735229Y-15516460D02*
X8725706Y-15506936D01*
X8935229Y-15525984D02*
X8973325Y-15525984D01*
X8973325Y-15525984D02*
X8992372Y-15516460D01*
X8992372Y-15516460D02*
X9001896Y-15506936D01*
X9001896Y-15506936D02*
X9020944Y-15478365D01*
X9020944Y-15478365D02*
X9030468Y-15440269D01*
X9030468Y-15440269D02*
X9030468Y-15364079D01*
X9030468Y-15364079D02*
X9020944Y-15345031D01*
X9020944Y-15345031D02*
X9011420Y-15335508D01*
X9011420Y-15335508D02*
X8992372Y-15325984D01*
X8992372Y-15325984D02*
X8954277Y-15325984D01*
X8954277Y-15325984D02*
X8935229Y-15335508D01*
X8935229Y-15335508D02*
X8925706Y-15345031D01*
X8925706Y-15345031D02*
X8916182Y-15364079D01*
X8916182Y-15364079D02*
X8916182Y-15411698D01*
X8916182Y-15411698D02*
X8925706Y-15430746D01*
X8925706Y-15430746D02*
X8935229Y-15440269D01*
X8935229Y-15440269D02*
X8954277Y-15449793D01*
X8954277Y-15449793D02*
X8992372Y-15449793D01*
X8992372Y-15449793D02*
X9011420Y-15440269D01*
X9011420Y-15440269D02*
X9020944Y-15430746D01*
X9020944Y-15430746D02*
X9030468Y-15411698D01*
X9220944Y-15525984D02*
X9106658Y-15525984D01*
X9163801Y-15525984D02*
X9163801Y-15325984D01*
X9163801Y-15325984D02*
X9144753Y-15354555D01*
X9144753Y-15354555D02*
X9125706Y-15373603D01*
X9125706Y-15373603D02*
X9106658Y-15383127D01*
X9297134Y-15325984D02*
X9297134Y-15364079D01*
X9373325Y-15325984D02*
X9373325Y-15364079D01*
X9668563Y-15602174D02*
X9659039Y-15592650D01*
X9659039Y-15592650D02*
X9639991Y-15564079D01*
X9639991Y-15564079D02*
X9630468Y-15545031D01*
X9630468Y-15545031D02*
X9620944Y-15516460D01*
X9620944Y-15516460D02*
X9611420Y-15468841D01*
X9611420Y-15468841D02*
X9611420Y-15430746D01*
X9611420Y-15430746D02*
X9620944Y-15383127D01*
X9620944Y-15383127D02*
X9630468Y-15354555D01*
X9630468Y-15354555D02*
X9639991Y-15335508D01*
X9639991Y-15335508D02*
X9659039Y-15306936D01*
X9659039Y-15306936D02*
X9668563Y-15297412D01*
X9735230Y-15345031D02*
X9744753Y-15335508D01*
X9744753Y-15335508D02*
X9763801Y-15325984D01*
X9763801Y-15325984D02*
X9811420Y-15325984D01*
X9811420Y-15325984D02*
X9830468Y-15335508D01*
X9830468Y-15335508D02*
X9839991Y-15345031D01*
X9839991Y-15345031D02*
X9849515Y-15364079D01*
X9849515Y-15364079D02*
X9849515Y-15383127D01*
X9849515Y-15383127D02*
X9839991Y-15411698D01*
X9839991Y-15411698D02*
X9725706Y-15525984D01*
X9725706Y-15525984D02*
X9849515Y-15525984D01*
X10087611Y-15525984D02*
X10087611Y-15325984D01*
X10173325Y-15525984D02*
X10173325Y-15421222D01*
X10173325Y-15421222D02*
X10163801Y-15402174D01*
X10163801Y-15402174D02*
X10144753Y-15392650D01*
X10144753Y-15392650D02*
X10116182Y-15392650D01*
X10116182Y-15392650D02*
X10097134Y-15402174D01*
X10097134Y-15402174D02*
X10087611Y-15411698D01*
X10297134Y-15525984D02*
X10278087Y-15516460D01*
X10278087Y-15516460D02*
X10268563Y-15506936D01*
X10268563Y-15506936D02*
X10259039Y-15487888D01*
X10259039Y-15487888D02*
X10259039Y-15430746D01*
X10259039Y-15430746D02*
X10268563Y-15411698D01*
X10268563Y-15411698D02*
X10278087Y-15402174D01*
X10278087Y-15402174D02*
X10297134Y-15392650D01*
X10297134Y-15392650D02*
X10325706Y-15392650D01*
X10325706Y-15392650D02*
X10344753Y-15402174D01*
X10344753Y-15402174D02*
X10354277Y-15411698D01*
X10354277Y-15411698D02*
X10363801Y-15430746D01*
X10363801Y-15430746D02*
X10363801Y-15487888D01*
X10363801Y-15487888D02*
X10354277Y-15506936D01*
X10354277Y-15506936D02*
X10344753Y-15516460D01*
X10344753Y-15516460D02*
X10325706Y-15525984D01*
X10325706Y-15525984D02*
X10297134Y-15525984D01*
X10478087Y-15525984D02*
X10459039Y-15516460D01*
X10459039Y-15516460D02*
X10449515Y-15497412D01*
X10449515Y-15497412D02*
X10449515Y-15325984D01*
X10630468Y-15516460D02*
X10611420Y-15525984D01*
X10611420Y-15525984D02*
X10573325Y-15525984D01*
X10573325Y-15525984D02*
X10554277Y-15516460D01*
X10554277Y-15516460D02*
X10544753Y-15497412D01*
X10544753Y-15497412D02*
X10544753Y-15421222D01*
X10544753Y-15421222D02*
X10554277Y-15402174D01*
X10554277Y-15402174D02*
X10573325Y-15392650D01*
X10573325Y-15392650D02*
X10611420Y-15392650D01*
X10611420Y-15392650D02*
X10630468Y-15402174D01*
X10630468Y-15402174D02*
X10639992Y-15421222D01*
X10639992Y-15421222D02*
X10639992Y-15440269D01*
X10639992Y-15440269D02*
X10544753Y-15459317D01*
X10716182Y-15516460D02*
X10735230Y-15525984D01*
X10735230Y-15525984D02*
X10773325Y-15525984D01*
X10773325Y-15525984D02*
X10792373Y-15516460D01*
X10792373Y-15516460D02*
X10801896Y-15497412D01*
X10801896Y-15497412D02*
X10801896Y-15487888D01*
X10801896Y-15487888D02*
X10792373Y-15468841D01*
X10792373Y-15468841D02*
X10773325Y-15459317D01*
X10773325Y-15459317D02*
X10744753Y-15459317D01*
X10744753Y-15459317D02*
X10725706Y-15449793D01*
X10725706Y-15449793D02*
X10716182Y-15430746D01*
X10716182Y-15430746D02*
X10716182Y-15421222D01*
X10716182Y-15421222D02*
X10725706Y-15402174D01*
X10725706Y-15402174D02*
X10744753Y-15392650D01*
X10744753Y-15392650D02*
X10773325Y-15392650D01*
X10773325Y-15392650D02*
X10792373Y-15402174D01*
X10868563Y-15602174D02*
X10878087Y-15592650D01*
X10878087Y-15592650D02*
X10897134Y-15564079D01*
X10897134Y-15564079D02*
X10906658Y-15545031D01*
X10906658Y-15545031D02*
X10916182Y-15516460D01*
X10916182Y-15516460D02*
X10925706Y-15468841D01*
X10925706Y-15468841D02*
X10925706Y-15430746D01*
X10925706Y-15430746D02*
X10916182Y-15383127D01*
X10916182Y-15383127D02*
X10906658Y-15354555D01*
X10906658Y-15354555D02*
X10897134Y-15335508D01*
X10897134Y-15335508D02*
X10878087Y-15306936D01*
X10878087Y-15306936D02*
X10868563Y-15297412D01*
M02*
