M48
; DRILL file {KiCad 9.0.6} date 2026-06-19T22:16:40+0200
; FORMAT={-:-/ absolute / metric / decimal}
; #@! TF.CreationDate,2026-06-19T22:16:40+02:00
; #@! TF.GenerationSoftware,Kicad,Pcbnew,9.0.6
; #@! TF.FileFunction,Plated,1,2,PTH
FMAT,2
METRIC
; #@! TA.AperFunction,Plated,PTH,ViaDrill
T1C0.300
; #@! TA.AperFunction,Plated,PTH,ComponentDrill
T2C0.750
; #@! TA.AperFunction,Plated,PTH,ComponentDrill
T3C0.800
; #@! TA.AperFunction,Plated,PTH,ComponentDrill
T4C0.900
; #@! TA.AperFunction,Plated,PTH,ComponentDrill
T5C1.100
; #@! TA.AperFunction,Plated,PTH,ComponentDrill
T6C1.200
; #@! TA.AperFunction,Plated,PTH,ComponentDrill
T7C1.500
%
G90
G05
T1
X105.41Y-86.5
X109.71Y-81.3
X111.31Y-65.62
X113.11Y-84.1
X145.51Y-94.4
X150.16Y-90.35
X150.16Y-93.0
X151.71Y-93.6
X152.885Y-93.35
T2
X127.02Y-64.35
X127.02Y-65.62
X127.02Y-66.89
T3
X98.69Y-60.62
X98.69Y-63.16
X98.69Y-65.7
X98.69Y-68.24
X106.31Y-60.62
X106.31Y-63.16
X106.31Y-65.7
X106.31Y-68.24
T4
X112.02Y-99.46
X112.02Y-102.0
X112.02Y-104.54
X112.02Y-107.08
X112.02Y-109.62
X112.02Y-112.16
X112.02Y-114.7
X112.02Y-117.24
X112.02Y-119.78
X112.02Y-122.32
X139.96Y-99.46
X139.96Y-102.0
X139.96Y-104.54
X139.96Y-107.08
X139.96Y-109.62
X139.96Y-112.16
X139.96Y-114.7
X139.96Y-117.24
X139.96Y-119.78
X139.96Y-122.32
T5
X134.51Y-64.42
X134.51Y-66.96
X134.51Y-69.5
T6
X69.627Y-83.835
X69.627Y-86.375
X99.91Y-48.3
X102.45Y-48.3
X116.635Y-48.417
X119.175Y-48.417
T7
X155.11Y-66.843
X155.11Y-87.643
M30
