%TF.GenerationSoftware,KiCad,Pcbnew,9.0.6*%
%TF.CreationDate,2026-06-19T22:07:23+02:00*%
%TF.ProjectId,Seminarni rad ver 2,53656d69-6e61-4726-9e69-207261642076,rev?*%
%TF.SameCoordinates,Original*%
%TF.FileFunction,AssemblyDrawing,Top*%
%FSLAX46Y46*%
G04 Gerber Fmt 4.6, Leading zero omitted, Abs format (unit mm)*
G04 Created by KiCad (PCBNEW 9.0.6) date 2026-06-19 22:07:23*
%MOMM*%
%LPD*%
G01*
G04 APERTURE LIST*
%ADD10C,0.150000*%
%ADD11C,0.120000*%
%ADD12C,0.060000*%
%ADD13C,0.100000*%
G04 APERTURE END LIST*
D10*
X148514819Y-107466666D02*
X148514819Y-108038094D01*
X148514819Y-107752380D02*
X147514819Y-107752380D01*
X147514819Y-107752380D02*
X147657676Y-107847618D01*
X147657676Y-107847618D02*
X147752914Y-107942856D01*
X147752914Y-107942856D02*
X147800533Y-108038094D01*
X147514819Y-106847618D02*
X147514819Y-106752380D01*
X147514819Y-106752380D02*
X147562438Y-106657142D01*
X147562438Y-106657142D02*
X147610057Y-106609523D01*
X147610057Y-106609523D02*
X147705295Y-106561904D01*
X147705295Y-106561904D02*
X147895771Y-106514285D01*
X147895771Y-106514285D02*
X148133866Y-106514285D01*
X148133866Y-106514285D02*
X148324342Y-106561904D01*
X148324342Y-106561904D02*
X148419580Y-106609523D01*
X148419580Y-106609523D02*
X148467200Y-106657142D01*
X148467200Y-106657142D02*
X148514819Y-106752380D01*
X148514819Y-106752380D02*
X148514819Y-106847618D01*
X148514819Y-106847618D02*
X148467200Y-106942856D01*
X148467200Y-106942856D02*
X148419580Y-106990475D01*
X148419580Y-106990475D02*
X148324342Y-107038094D01*
X148324342Y-107038094D02*
X148133866Y-107085713D01*
X148133866Y-107085713D02*
X147895771Y-107085713D01*
X147895771Y-107085713D02*
X147705295Y-107038094D01*
X147705295Y-107038094D02*
X147610057Y-106990475D01*
X147610057Y-106990475D02*
X147562438Y-106942856D01*
X147562438Y-106942856D02*
X147514819Y-106847618D01*
X147514819Y-105895237D02*
X147514819Y-105799999D01*
X147514819Y-105799999D02*
X147562438Y-105704761D01*
X147562438Y-105704761D02*
X147610057Y-105657142D01*
X147610057Y-105657142D02*
X147705295Y-105609523D01*
X147705295Y-105609523D02*
X147895771Y-105561904D01*
X147895771Y-105561904D02*
X148133866Y-105561904D01*
X148133866Y-105561904D02*
X148324342Y-105609523D01*
X148324342Y-105609523D02*
X148419580Y-105657142D01*
X148419580Y-105657142D02*
X148467200Y-105704761D01*
X148467200Y-105704761D02*
X148514819Y-105799999D01*
X148514819Y-105799999D02*
X148514819Y-105895237D01*
X148514819Y-105895237D02*
X148467200Y-105990475D01*
X148467200Y-105990475D02*
X148419580Y-106038094D01*
X148419580Y-106038094D02*
X148324342Y-106085713D01*
X148324342Y-106085713D02*
X148133866Y-106133332D01*
X148133866Y-106133332D02*
X147895771Y-106133332D01*
X147895771Y-106133332D02*
X147705295Y-106085713D01*
X147705295Y-106085713D02*
X147610057Y-106038094D01*
X147610057Y-106038094D02*
X147562438Y-105990475D01*
X147562438Y-105990475D02*
X147514819Y-105895237D01*
X150714819Y-107442857D02*
X150238628Y-107776190D01*
X150714819Y-108014285D02*
X149714819Y-108014285D01*
X149714819Y-108014285D02*
X149714819Y-107633333D01*
X149714819Y-107633333D02*
X149762438Y-107538095D01*
X149762438Y-107538095D02*
X149810057Y-107490476D01*
X149810057Y-107490476D02*
X149905295Y-107442857D01*
X149905295Y-107442857D02*
X150048152Y-107442857D01*
X150048152Y-107442857D02*
X150143390Y-107490476D01*
X150143390Y-107490476D02*
X150191009Y-107538095D01*
X150191009Y-107538095D02*
X150238628Y-107633333D01*
X150238628Y-107633333D02*
X150238628Y-108014285D01*
X149714819Y-106538095D02*
X149714819Y-107014285D01*
X149714819Y-107014285D02*
X150191009Y-107061904D01*
X150191009Y-107061904D02*
X150143390Y-107014285D01*
X150143390Y-107014285D02*
X150095771Y-106919047D01*
X150095771Y-106919047D02*
X150095771Y-106680952D01*
X150095771Y-106680952D02*
X150143390Y-106585714D01*
X150143390Y-106585714D02*
X150191009Y-106538095D01*
X150191009Y-106538095D02*
X150286247Y-106490476D01*
X150286247Y-106490476D02*
X150524342Y-106490476D01*
X150524342Y-106490476D02*
X150619580Y-106538095D01*
X150619580Y-106538095D02*
X150667200Y-106585714D01*
X150667200Y-106585714D02*
X150714819Y-106680952D01*
X150714819Y-106680952D02*
X150714819Y-106919047D01*
X150714819Y-106919047D02*
X150667200Y-107014285D01*
X150667200Y-107014285D02*
X150619580Y-107061904D01*
X149714819Y-105633333D02*
X149714819Y-105823809D01*
X149714819Y-105823809D02*
X149762438Y-105919047D01*
X149762438Y-105919047D02*
X149810057Y-105966666D01*
X149810057Y-105966666D02*
X149952914Y-106061904D01*
X149952914Y-106061904D02*
X150143390Y-106109523D01*
X150143390Y-106109523D02*
X150524342Y-106109523D01*
X150524342Y-106109523D02*
X150619580Y-106061904D01*
X150619580Y-106061904D02*
X150667200Y-106014285D01*
X150667200Y-106014285D02*
X150714819Y-105919047D01*
X150714819Y-105919047D02*
X150714819Y-105728571D01*
X150714819Y-105728571D02*
X150667200Y-105633333D01*
X150667200Y-105633333D02*
X150619580Y-105585714D01*
X150619580Y-105585714D02*
X150524342Y-105538095D01*
X150524342Y-105538095D02*
X150286247Y-105538095D01*
X150286247Y-105538095D02*
X150191009Y-105585714D01*
X150191009Y-105585714D02*
X150143390Y-105633333D01*
X150143390Y-105633333D02*
X150095771Y-105728571D01*
X150095771Y-105728571D02*
X150095771Y-105919047D01*
X150095771Y-105919047D02*
X150143390Y-106014285D01*
X150143390Y-106014285D02*
X150191009Y-106061904D01*
X150191009Y-106061904D02*
X150286247Y-106109523D01*
X107252800Y-77202381D02*
X107205180Y-77345238D01*
X107205180Y-77345238D02*
X107205180Y-77583333D01*
X107205180Y-77583333D02*
X107252800Y-77678571D01*
X107252800Y-77678571D02*
X107300419Y-77726190D01*
X107300419Y-77726190D02*
X107395657Y-77773809D01*
X107395657Y-77773809D02*
X107490895Y-77773809D01*
X107490895Y-77773809D02*
X107586133Y-77726190D01*
X107586133Y-77726190D02*
X107633752Y-77678571D01*
X107633752Y-77678571D02*
X107681371Y-77583333D01*
X107681371Y-77583333D02*
X107728990Y-77392857D01*
X107728990Y-77392857D02*
X107776609Y-77297619D01*
X107776609Y-77297619D02*
X107824228Y-77250000D01*
X107824228Y-77250000D02*
X107919466Y-77202381D01*
X107919466Y-77202381D02*
X108014704Y-77202381D01*
X108014704Y-77202381D02*
X108109942Y-77250000D01*
X108109942Y-77250000D02*
X108157561Y-77297619D01*
X108157561Y-77297619D02*
X108205180Y-77392857D01*
X108205180Y-77392857D02*
X108205180Y-77630952D01*
X108205180Y-77630952D02*
X108157561Y-77773809D01*
X108205180Y-78107143D02*
X107205180Y-78345238D01*
X107205180Y-78345238D02*
X107919466Y-78535714D01*
X107919466Y-78535714D02*
X107205180Y-78726190D01*
X107205180Y-78726190D02*
X108205180Y-78964286D01*
X107109942Y-79107143D02*
X107109942Y-79869047D01*
X107205180Y-80107143D02*
X108205180Y-80107143D01*
X108205180Y-80107143D02*
X107205180Y-80678571D01*
X107205180Y-80678571D02*
X108205180Y-80678571D01*
X107205180Y-81154762D02*
X107871847Y-81154762D01*
X108205180Y-81154762D02*
X108157561Y-81107143D01*
X108157561Y-81107143D02*
X108109942Y-81154762D01*
X108109942Y-81154762D02*
X108157561Y-81202381D01*
X108157561Y-81202381D02*
X108205180Y-81154762D01*
X108205180Y-81154762D02*
X108109942Y-81154762D01*
X107205180Y-82059523D02*
X108205180Y-82059523D01*
X107252800Y-82059523D02*
X107205180Y-81964285D01*
X107205180Y-81964285D02*
X107205180Y-81773809D01*
X107205180Y-81773809D02*
X107252800Y-81678571D01*
X107252800Y-81678571D02*
X107300419Y-81630952D01*
X107300419Y-81630952D02*
X107395657Y-81583333D01*
X107395657Y-81583333D02*
X107681371Y-81583333D01*
X107681371Y-81583333D02*
X107776609Y-81630952D01*
X107776609Y-81630952D02*
X107824228Y-81678571D01*
X107824228Y-81678571D02*
X107871847Y-81773809D01*
X107871847Y-81773809D02*
X107871847Y-81964285D01*
X107871847Y-81964285D02*
X107824228Y-82059523D01*
X107252800Y-82916666D02*
X107205180Y-82821428D01*
X107205180Y-82821428D02*
X107205180Y-82630952D01*
X107205180Y-82630952D02*
X107252800Y-82535714D01*
X107252800Y-82535714D02*
X107348038Y-82488095D01*
X107348038Y-82488095D02*
X107728990Y-82488095D01*
X107728990Y-82488095D02*
X107824228Y-82535714D01*
X107824228Y-82535714D02*
X107871847Y-82630952D01*
X107871847Y-82630952D02*
X107871847Y-82821428D01*
X107871847Y-82821428D02*
X107824228Y-82916666D01*
X107824228Y-82916666D02*
X107728990Y-82964285D01*
X107728990Y-82964285D02*
X107633752Y-82964285D01*
X107633752Y-82964285D02*
X107538514Y-82488095D01*
X107252800Y-83821428D02*
X107205180Y-83726190D01*
X107205180Y-83726190D02*
X107205180Y-83535714D01*
X107205180Y-83535714D02*
X107252800Y-83440476D01*
X107252800Y-83440476D02*
X107300419Y-83392857D01*
X107300419Y-83392857D02*
X107395657Y-83345238D01*
X107395657Y-83345238D02*
X107681371Y-83345238D01*
X107681371Y-83345238D02*
X107776609Y-83392857D01*
X107776609Y-83392857D02*
X107824228Y-83440476D01*
X107824228Y-83440476D02*
X107871847Y-83535714D01*
X107871847Y-83535714D02*
X107871847Y-83726190D01*
X107871847Y-83726190D02*
X107824228Y-83821428D01*
X107109942Y-84011905D02*
X107109942Y-84773809D01*
X107300419Y-85583333D02*
X107252800Y-85535714D01*
X107252800Y-85535714D02*
X107205180Y-85392857D01*
X107205180Y-85392857D02*
X107205180Y-85297619D01*
X107205180Y-85297619D02*
X107252800Y-85154762D01*
X107252800Y-85154762D02*
X107348038Y-85059524D01*
X107348038Y-85059524D02*
X107443276Y-85011905D01*
X107443276Y-85011905D02*
X107633752Y-84964286D01*
X107633752Y-84964286D02*
X107776609Y-84964286D01*
X107776609Y-84964286D02*
X107967085Y-85011905D01*
X107967085Y-85011905D02*
X108062323Y-85059524D01*
X108062323Y-85059524D02*
X108157561Y-85154762D01*
X108157561Y-85154762D02*
X108205180Y-85297619D01*
X108205180Y-85297619D02*
X108205180Y-85392857D01*
X108205180Y-85392857D02*
X108157561Y-85535714D01*
X108157561Y-85535714D02*
X108109942Y-85583333D01*
X107490895Y-85964286D02*
X107490895Y-86440476D01*
X107205180Y-85869048D02*
X108205180Y-86202381D01*
X108205180Y-86202381D02*
X107205180Y-86535714D01*
X107252800Y-86821429D02*
X107205180Y-86964286D01*
X107205180Y-86964286D02*
X107205180Y-87202381D01*
X107205180Y-87202381D02*
X107252800Y-87297619D01*
X107252800Y-87297619D02*
X107300419Y-87345238D01*
X107300419Y-87345238D02*
X107395657Y-87392857D01*
X107395657Y-87392857D02*
X107490895Y-87392857D01*
X107490895Y-87392857D02*
X107586133Y-87345238D01*
X107586133Y-87345238D02*
X107633752Y-87297619D01*
X107633752Y-87297619D02*
X107681371Y-87202381D01*
X107681371Y-87202381D02*
X107728990Y-87011905D01*
X107728990Y-87011905D02*
X107776609Y-86916667D01*
X107776609Y-86916667D02*
X107824228Y-86869048D01*
X107824228Y-86869048D02*
X107919466Y-86821429D01*
X107919466Y-86821429D02*
X108014704Y-86821429D01*
X108014704Y-86821429D02*
X108109942Y-86869048D01*
X108109942Y-86869048D02*
X108157561Y-86916667D01*
X108157561Y-86916667D02*
X108205180Y-87011905D01*
X108205180Y-87011905D02*
X108205180Y-87250000D01*
X108205180Y-87250000D02*
X108157561Y-87392857D01*
X107586133Y-87821429D02*
X107586133Y-88583334D01*
X107205180Y-89583333D02*
X107205180Y-89011905D01*
X107205180Y-89297619D02*
X108205180Y-89297619D01*
X108205180Y-89297619D02*
X108062323Y-89202381D01*
X108062323Y-89202381D02*
X107967085Y-89107143D01*
X107967085Y-89107143D02*
X107919466Y-89011905D01*
X108109942Y-89964286D02*
X108157561Y-90011905D01*
X108157561Y-90011905D02*
X108205180Y-90107143D01*
X108205180Y-90107143D02*
X108205180Y-90345238D01*
X108205180Y-90345238D02*
X108157561Y-90440476D01*
X108157561Y-90440476D02*
X108109942Y-90488095D01*
X108109942Y-90488095D02*
X108014704Y-90535714D01*
X108014704Y-90535714D02*
X107919466Y-90535714D01*
X107919466Y-90535714D02*
X107776609Y-90488095D01*
X107776609Y-90488095D02*
X107205180Y-89916667D01*
X107205180Y-89916667D02*
X107205180Y-90535714D01*
X108205180Y-91154762D02*
X108205180Y-91250000D01*
X108205180Y-91250000D02*
X108157561Y-91345238D01*
X108157561Y-91345238D02*
X108109942Y-91392857D01*
X108109942Y-91392857D02*
X108014704Y-91440476D01*
X108014704Y-91440476D02*
X107824228Y-91488095D01*
X107824228Y-91488095D02*
X107586133Y-91488095D01*
X107586133Y-91488095D02*
X107395657Y-91440476D01*
X107395657Y-91440476D02*
X107300419Y-91392857D01*
X107300419Y-91392857D02*
X107252800Y-91345238D01*
X107252800Y-91345238D02*
X107205180Y-91250000D01*
X107205180Y-91250000D02*
X107205180Y-91154762D01*
X107205180Y-91154762D02*
X107252800Y-91059524D01*
X107252800Y-91059524D02*
X107300419Y-91011905D01*
X107300419Y-91011905D02*
X107395657Y-90964286D01*
X107395657Y-90964286D02*
X107586133Y-90916667D01*
X107586133Y-90916667D02*
X107824228Y-90916667D01*
X107824228Y-90916667D02*
X108014704Y-90964286D01*
X108014704Y-90964286D02*
X108109942Y-91011905D01*
X108109942Y-91011905D02*
X108157561Y-91059524D01*
X108157561Y-91059524D02*
X108205180Y-91154762D01*
X107490895Y-91869048D02*
X107490895Y-92345238D01*
X107205180Y-91773810D02*
X108205180Y-92107143D01*
X108205180Y-92107143D02*
X107205180Y-92440476D01*
X107205180Y-93297619D02*
X107205180Y-92726191D01*
X107205180Y-93011905D02*
X108205180Y-93011905D01*
X108205180Y-93011905D02*
X108062323Y-92916667D01*
X108062323Y-92916667D02*
X107967085Y-92821429D01*
X107967085Y-92821429D02*
X107919466Y-92726191D01*
D11*
X111034240Y-84183332D02*
X110996144Y-84297618D01*
X110996144Y-84297618D02*
X110996144Y-84488094D01*
X110996144Y-84488094D02*
X111034240Y-84564285D01*
X111034240Y-84564285D02*
X111072335Y-84602380D01*
X111072335Y-84602380D02*
X111148525Y-84640475D01*
X111148525Y-84640475D02*
X111224716Y-84640475D01*
X111224716Y-84640475D02*
X111300906Y-84602380D01*
X111300906Y-84602380D02*
X111339001Y-84564285D01*
X111339001Y-84564285D02*
X111377097Y-84488094D01*
X111377097Y-84488094D02*
X111415192Y-84335713D01*
X111415192Y-84335713D02*
X111453287Y-84259523D01*
X111453287Y-84259523D02*
X111491382Y-84221428D01*
X111491382Y-84221428D02*
X111567573Y-84183332D01*
X111567573Y-84183332D02*
X111643763Y-84183332D01*
X111643763Y-84183332D02*
X111719954Y-84221428D01*
X111719954Y-84221428D02*
X111758049Y-84259523D01*
X111758049Y-84259523D02*
X111796144Y-84335713D01*
X111796144Y-84335713D02*
X111796144Y-84526190D01*
X111796144Y-84526190D02*
X111758049Y-84640475D01*
X111796144Y-84907142D02*
X110996144Y-85097618D01*
X110996144Y-85097618D02*
X111567573Y-85249999D01*
X111567573Y-85249999D02*
X110996144Y-85402380D01*
X110996144Y-85402380D02*
X111796144Y-85592857D01*
X110996144Y-86316666D02*
X110996144Y-85859523D01*
X110996144Y-86088095D02*
X111796144Y-86088095D01*
X111796144Y-86088095D02*
X111681859Y-86011904D01*
X111681859Y-86011904D02*
X111605668Y-85935714D01*
X111605668Y-85935714D02*
X111567573Y-85859523D01*
D10*
X139298152Y-92878571D02*
X139964819Y-92878571D01*
X138917200Y-93116666D02*
X139631485Y-93354761D01*
X139631485Y-93354761D02*
X139631485Y-92735714D01*
X139869580Y-92354761D02*
X139917200Y-92307142D01*
X139917200Y-92307142D02*
X139964819Y-92354761D01*
X139964819Y-92354761D02*
X139917200Y-92402380D01*
X139917200Y-92402380D02*
X139869580Y-92354761D01*
X139869580Y-92354761D02*
X139964819Y-92354761D01*
X138964819Y-91973809D02*
X138964819Y-91307143D01*
X138964819Y-91307143D02*
X139964819Y-91735714D01*
X139964819Y-90926190D02*
X138964819Y-90926190D01*
X139583866Y-90830952D02*
X139964819Y-90545238D01*
X139298152Y-90545238D02*
X139679104Y-90926190D01*
X142164819Y-92592857D02*
X141688628Y-92926190D01*
X142164819Y-93164285D02*
X141164819Y-93164285D01*
X141164819Y-93164285D02*
X141164819Y-92783333D01*
X141164819Y-92783333D02*
X141212438Y-92688095D01*
X141212438Y-92688095D02*
X141260057Y-92640476D01*
X141260057Y-92640476D02*
X141355295Y-92592857D01*
X141355295Y-92592857D02*
X141498152Y-92592857D01*
X141498152Y-92592857D02*
X141593390Y-92640476D01*
X141593390Y-92640476D02*
X141641009Y-92688095D01*
X141641009Y-92688095D02*
X141688628Y-92783333D01*
X141688628Y-92783333D02*
X141688628Y-93164285D01*
X141498152Y-91735714D02*
X142164819Y-91735714D01*
X141117200Y-91973809D02*
X141831485Y-92211904D01*
X141831485Y-92211904D02*
X141831485Y-91592857D01*
X141260057Y-91259523D02*
X141212438Y-91211904D01*
X141212438Y-91211904D02*
X141164819Y-91116666D01*
X141164819Y-91116666D02*
X141164819Y-90878571D01*
X141164819Y-90878571D02*
X141212438Y-90783333D01*
X141212438Y-90783333D02*
X141260057Y-90735714D01*
X141260057Y-90735714D02*
X141355295Y-90688095D01*
X141355295Y-90688095D02*
X141450533Y-90688095D01*
X141450533Y-90688095D02*
X141593390Y-90735714D01*
X141593390Y-90735714D02*
X142164819Y-91307142D01*
X142164819Y-91307142D02*
X142164819Y-90688095D01*
X133098152Y-92878571D02*
X133764819Y-92878571D01*
X132717200Y-93116666D02*
X133431485Y-93354761D01*
X133431485Y-93354761D02*
X133431485Y-92735714D01*
X133669580Y-92354761D02*
X133717200Y-92307142D01*
X133717200Y-92307142D02*
X133764819Y-92354761D01*
X133764819Y-92354761D02*
X133717200Y-92402380D01*
X133717200Y-92402380D02*
X133669580Y-92354761D01*
X133669580Y-92354761D02*
X133764819Y-92354761D01*
X132764819Y-91973809D02*
X132764819Y-91307143D01*
X132764819Y-91307143D02*
X133764819Y-91735714D01*
X133764819Y-90926190D02*
X132764819Y-90926190D01*
X133383866Y-90830952D02*
X133764819Y-90545238D01*
X133098152Y-90545238D02*
X133479104Y-90926190D01*
X135964819Y-92592857D02*
X135488628Y-92926190D01*
X135964819Y-93164285D02*
X134964819Y-93164285D01*
X134964819Y-93164285D02*
X134964819Y-92783333D01*
X134964819Y-92783333D02*
X135012438Y-92688095D01*
X135012438Y-92688095D02*
X135060057Y-92640476D01*
X135060057Y-92640476D02*
X135155295Y-92592857D01*
X135155295Y-92592857D02*
X135298152Y-92592857D01*
X135298152Y-92592857D02*
X135393390Y-92640476D01*
X135393390Y-92640476D02*
X135441009Y-92688095D01*
X135441009Y-92688095D02*
X135488628Y-92783333D01*
X135488628Y-92783333D02*
X135488628Y-93164285D01*
X135298152Y-91735714D02*
X135964819Y-91735714D01*
X134917200Y-91973809D02*
X135631485Y-92211904D01*
X135631485Y-92211904D02*
X135631485Y-91592857D01*
X135964819Y-90688095D02*
X135964819Y-91259523D01*
X135964819Y-90973809D02*
X134964819Y-90973809D01*
X134964819Y-90973809D02*
X135107676Y-91069047D01*
X135107676Y-91069047D02*
X135202914Y-91164285D01*
X135202914Y-91164285D02*
X135250533Y-91259523D01*
X107428808Y-53344700D02*
X107571665Y-53392319D01*
X107571665Y-53392319D02*
X107809760Y-53392319D01*
X107809760Y-53392319D02*
X107904998Y-53344700D01*
X107904998Y-53344700D02*
X107952617Y-53297080D01*
X107952617Y-53297080D02*
X108000236Y-53201842D01*
X108000236Y-53201842D02*
X108000236Y-53106604D01*
X108000236Y-53106604D02*
X107952617Y-53011366D01*
X107952617Y-53011366D02*
X107904998Y-52963747D01*
X107904998Y-52963747D02*
X107809760Y-52916128D01*
X107809760Y-52916128D02*
X107619284Y-52868509D01*
X107619284Y-52868509D02*
X107524046Y-52820890D01*
X107524046Y-52820890D02*
X107476427Y-52773271D01*
X107476427Y-52773271D02*
X107428808Y-52678033D01*
X107428808Y-52678033D02*
X107428808Y-52582795D01*
X107428808Y-52582795D02*
X107476427Y-52487557D01*
X107476427Y-52487557D02*
X107524046Y-52439938D01*
X107524046Y-52439938D02*
X107619284Y-52392319D01*
X107619284Y-52392319D02*
X107857379Y-52392319D01*
X107857379Y-52392319D02*
X108000236Y-52439938D01*
X108857379Y-53344700D02*
X108762141Y-53392319D01*
X108762141Y-53392319D02*
X108571665Y-53392319D01*
X108571665Y-53392319D02*
X108476427Y-53344700D01*
X108476427Y-53344700D02*
X108428808Y-53297080D01*
X108428808Y-53297080D02*
X108381189Y-53201842D01*
X108381189Y-53201842D02*
X108381189Y-52916128D01*
X108381189Y-52916128D02*
X108428808Y-52820890D01*
X108428808Y-52820890D02*
X108476427Y-52773271D01*
X108476427Y-52773271D02*
X108571665Y-52725652D01*
X108571665Y-52725652D02*
X108762141Y-52725652D01*
X108762141Y-52725652D02*
X108857379Y-52773271D01*
X109285951Y-53392319D02*
X109285951Y-52725652D01*
X109285951Y-52916128D02*
X109333570Y-52820890D01*
X109333570Y-52820890D02*
X109381189Y-52773271D01*
X109381189Y-52773271D02*
X109476427Y-52725652D01*
X109476427Y-52725652D02*
X109571665Y-52725652D01*
X110285951Y-53344700D02*
X110190713Y-53392319D01*
X110190713Y-53392319D02*
X110000237Y-53392319D01*
X110000237Y-53392319D02*
X109904999Y-53344700D01*
X109904999Y-53344700D02*
X109857380Y-53249461D01*
X109857380Y-53249461D02*
X109857380Y-52868509D01*
X109857380Y-52868509D02*
X109904999Y-52773271D01*
X109904999Y-52773271D02*
X110000237Y-52725652D01*
X110000237Y-52725652D02*
X110190713Y-52725652D01*
X110190713Y-52725652D02*
X110285951Y-52773271D01*
X110285951Y-52773271D02*
X110333570Y-52868509D01*
X110333570Y-52868509D02*
X110333570Y-52963747D01*
X110333570Y-52963747D02*
X109857380Y-53058985D01*
X110666904Y-52725652D02*
X110857380Y-53392319D01*
X110857380Y-53392319D02*
X111047856Y-52916128D01*
X111047856Y-52916128D02*
X111238332Y-53392319D01*
X111238332Y-53392319D02*
X111428808Y-52725652D01*
X111571666Y-53487557D02*
X112333570Y-53487557D01*
X112428809Y-52392319D02*
X113000237Y-52392319D01*
X112714523Y-53392319D02*
X112714523Y-52392319D01*
X113714523Y-53344700D02*
X113619285Y-53392319D01*
X113619285Y-53392319D02*
X113428809Y-53392319D01*
X113428809Y-53392319D02*
X113333571Y-53344700D01*
X113333571Y-53344700D02*
X113285952Y-53249461D01*
X113285952Y-53249461D02*
X113285952Y-52868509D01*
X113285952Y-52868509D02*
X113333571Y-52773271D01*
X113333571Y-52773271D02*
X113428809Y-52725652D01*
X113428809Y-52725652D02*
X113619285Y-52725652D01*
X113619285Y-52725652D02*
X113714523Y-52773271D01*
X113714523Y-52773271D02*
X113762142Y-52868509D01*
X113762142Y-52868509D02*
X113762142Y-52963747D01*
X113762142Y-52963747D02*
X113285952Y-53058985D01*
X114190714Y-53392319D02*
X114190714Y-52725652D01*
X114190714Y-52916128D02*
X114238333Y-52820890D01*
X114238333Y-52820890D02*
X114285952Y-52773271D01*
X114285952Y-52773271D02*
X114381190Y-52725652D01*
X114381190Y-52725652D02*
X114476428Y-52725652D01*
X114809762Y-53392319D02*
X114809762Y-52725652D01*
X114809762Y-52820890D02*
X114857381Y-52773271D01*
X114857381Y-52773271D02*
X114952619Y-52725652D01*
X114952619Y-52725652D02*
X115095476Y-52725652D01*
X115095476Y-52725652D02*
X115190714Y-52773271D01*
X115190714Y-52773271D02*
X115238333Y-52868509D01*
X115238333Y-52868509D02*
X115238333Y-53392319D01*
X115238333Y-52868509D02*
X115285952Y-52773271D01*
X115285952Y-52773271D02*
X115381190Y-52725652D01*
X115381190Y-52725652D02*
X115524047Y-52725652D01*
X115524047Y-52725652D02*
X115619286Y-52773271D01*
X115619286Y-52773271D02*
X115666905Y-52868509D01*
X115666905Y-52868509D02*
X115666905Y-53392319D01*
X116143095Y-53392319D02*
X116143095Y-52725652D01*
X116143095Y-52392319D02*
X116095476Y-52439938D01*
X116095476Y-52439938D02*
X116143095Y-52487557D01*
X116143095Y-52487557D02*
X116190714Y-52439938D01*
X116190714Y-52439938D02*
X116143095Y-52392319D01*
X116143095Y-52392319D02*
X116143095Y-52487557D01*
X116619285Y-52725652D02*
X116619285Y-53392319D01*
X116619285Y-52820890D02*
X116666904Y-52773271D01*
X116666904Y-52773271D02*
X116762142Y-52725652D01*
X116762142Y-52725652D02*
X116904999Y-52725652D01*
X116904999Y-52725652D02*
X117000237Y-52773271D01*
X117000237Y-52773271D02*
X117047856Y-52868509D01*
X117047856Y-52868509D02*
X117047856Y-53392319D01*
X117952618Y-53392319D02*
X117952618Y-52868509D01*
X117952618Y-52868509D02*
X117904999Y-52773271D01*
X117904999Y-52773271D02*
X117809761Y-52725652D01*
X117809761Y-52725652D02*
X117619285Y-52725652D01*
X117619285Y-52725652D02*
X117524047Y-52773271D01*
X117952618Y-53344700D02*
X117857380Y-53392319D01*
X117857380Y-53392319D02*
X117619285Y-53392319D01*
X117619285Y-53392319D02*
X117524047Y-53344700D01*
X117524047Y-53344700D02*
X117476428Y-53249461D01*
X117476428Y-53249461D02*
X117476428Y-53154223D01*
X117476428Y-53154223D02*
X117524047Y-53058985D01*
X117524047Y-53058985D02*
X117619285Y-53011366D01*
X117619285Y-53011366D02*
X117857380Y-53011366D01*
X117857380Y-53011366D02*
X117952618Y-52963747D01*
X118571666Y-53392319D02*
X118476428Y-53344700D01*
X118476428Y-53344700D02*
X118428809Y-53249461D01*
X118428809Y-53249461D02*
X118428809Y-52392319D01*
X118714524Y-53487557D02*
X119476428Y-53487557D01*
X119905000Y-52392319D02*
X120000238Y-52392319D01*
X120000238Y-52392319D02*
X120095476Y-52439938D01*
X120095476Y-52439938D02*
X120143095Y-52487557D01*
X120143095Y-52487557D02*
X120190714Y-52582795D01*
X120190714Y-52582795D02*
X120238333Y-52773271D01*
X120238333Y-52773271D02*
X120238333Y-53011366D01*
X120238333Y-53011366D02*
X120190714Y-53201842D01*
X120190714Y-53201842D02*
X120143095Y-53297080D01*
X120143095Y-53297080D02*
X120095476Y-53344700D01*
X120095476Y-53344700D02*
X120000238Y-53392319D01*
X120000238Y-53392319D02*
X119905000Y-53392319D01*
X119905000Y-53392319D02*
X119809762Y-53344700D01*
X119809762Y-53344700D02*
X119762143Y-53297080D01*
X119762143Y-53297080D02*
X119714524Y-53201842D01*
X119714524Y-53201842D02*
X119666905Y-53011366D01*
X119666905Y-53011366D02*
X119666905Y-52773271D01*
X119666905Y-52773271D02*
X119714524Y-52582795D01*
X119714524Y-52582795D02*
X119762143Y-52487557D01*
X119762143Y-52487557D02*
X119809762Y-52439938D01*
X119809762Y-52439938D02*
X119905000Y-52392319D01*
X121190714Y-53392319D02*
X120619286Y-53392319D01*
X120905000Y-53392319D02*
X120905000Y-52392319D01*
X120905000Y-52392319D02*
X120809762Y-52535176D01*
X120809762Y-52535176D02*
X120714524Y-52630414D01*
X120714524Y-52630414D02*
X120619286Y-52678033D01*
X121524048Y-53392319D02*
X122047857Y-52725652D01*
X121524048Y-52725652D02*
X122047857Y-53392319D01*
X122619286Y-52392319D02*
X122714524Y-52392319D01*
X122714524Y-52392319D02*
X122809762Y-52439938D01*
X122809762Y-52439938D02*
X122857381Y-52487557D01*
X122857381Y-52487557D02*
X122905000Y-52582795D01*
X122905000Y-52582795D02*
X122952619Y-52773271D01*
X122952619Y-52773271D02*
X122952619Y-53011366D01*
X122952619Y-53011366D02*
X122905000Y-53201842D01*
X122905000Y-53201842D02*
X122857381Y-53297080D01*
X122857381Y-53297080D02*
X122809762Y-53344700D01*
X122809762Y-53344700D02*
X122714524Y-53392319D01*
X122714524Y-53392319D02*
X122619286Y-53392319D01*
X122619286Y-53392319D02*
X122524048Y-53344700D01*
X122524048Y-53344700D02*
X122476429Y-53297080D01*
X122476429Y-53297080D02*
X122428810Y-53201842D01*
X122428810Y-53201842D02*
X122381191Y-53011366D01*
X122381191Y-53011366D02*
X122381191Y-52773271D01*
X122381191Y-52773271D02*
X122428810Y-52582795D01*
X122428810Y-52582795D02*
X122476429Y-52487557D01*
X122476429Y-52487557D02*
X122524048Y-52439938D01*
X122524048Y-52439938D02*
X122619286Y-52392319D01*
X123333572Y-52487557D02*
X123381191Y-52439938D01*
X123381191Y-52439938D02*
X123476429Y-52392319D01*
X123476429Y-52392319D02*
X123714524Y-52392319D01*
X123714524Y-52392319D02*
X123809762Y-52439938D01*
X123809762Y-52439938D02*
X123857381Y-52487557D01*
X123857381Y-52487557D02*
X123905000Y-52582795D01*
X123905000Y-52582795D02*
X123905000Y-52678033D01*
X123905000Y-52678033D02*
X123857381Y-52820890D01*
X123857381Y-52820890D02*
X123285953Y-53392319D01*
X123285953Y-53392319D02*
X123905000Y-53392319D01*
X124619286Y-53773271D02*
X124571667Y-53725652D01*
X124571667Y-53725652D02*
X124476429Y-53582795D01*
X124476429Y-53582795D02*
X124428810Y-53487557D01*
X124428810Y-53487557D02*
X124381191Y-53344700D01*
X124381191Y-53344700D02*
X124333572Y-53106604D01*
X124333572Y-53106604D02*
X124333572Y-52916128D01*
X124333572Y-52916128D02*
X124381191Y-52678033D01*
X124381191Y-52678033D02*
X124428810Y-52535176D01*
X124428810Y-52535176D02*
X124476429Y-52439938D01*
X124476429Y-52439938D02*
X124571667Y-52297080D01*
X124571667Y-52297080D02*
X124619286Y-52249461D01*
X125428810Y-52725652D02*
X125428810Y-53392319D01*
X125000239Y-52725652D02*
X125000239Y-53249461D01*
X125000239Y-53249461D02*
X125047858Y-53344700D01*
X125047858Y-53344700D02*
X125143096Y-53392319D01*
X125143096Y-53392319D02*
X125285953Y-53392319D01*
X125285953Y-53392319D02*
X125381191Y-53344700D01*
X125381191Y-53344700D02*
X125428810Y-53297080D01*
X126047858Y-53392319D02*
X125952620Y-53344700D01*
X125952620Y-53344700D02*
X125905001Y-53249461D01*
X125905001Y-53249461D02*
X125905001Y-52392319D01*
X126857382Y-53392319D02*
X126857382Y-52868509D01*
X126857382Y-52868509D02*
X126809763Y-52773271D01*
X126809763Y-52773271D02*
X126714525Y-52725652D01*
X126714525Y-52725652D02*
X126524049Y-52725652D01*
X126524049Y-52725652D02*
X126428811Y-52773271D01*
X126857382Y-53344700D02*
X126762144Y-53392319D01*
X126762144Y-53392319D02*
X126524049Y-53392319D01*
X126524049Y-53392319D02*
X126428811Y-53344700D01*
X126428811Y-53344700D02*
X126381192Y-53249461D01*
X126381192Y-53249461D02*
X126381192Y-53154223D01*
X126381192Y-53154223D02*
X126428811Y-53058985D01*
X126428811Y-53058985D02*
X126524049Y-53011366D01*
X126524049Y-53011366D02*
X126762144Y-53011366D01*
X126762144Y-53011366D02*
X126857382Y-52963747D01*
X127238335Y-52725652D02*
X127762144Y-52725652D01*
X127762144Y-52725652D02*
X127238335Y-53392319D01*
X127238335Y-53392319D02*
X127762144Y-53392319D01*
X128047859Y-53773271D02*
X128095478Y-53725652D01*
X128095478Y-53725652D02*
X128190716Y-53582795D01*
X128190716Y-53582795D02*
X128238335Y-53487557D01*
X128238335Y-53487557D02*
X128285954Y-53344700D01*
X128285954Y-53344700D02*
X128333573Y-53106604D01*
X128333573Y-53106604D02*
X128333573Y-52916128D01*
X128333573Y-52916128D02*
X128285954Y-52678033D01*
X128285954Y-52678033D02*
X128238335Y-52535176D01*
X128238335Y-52535176D02*
X128190716Y-52439938D01*
X128190716Y-52439938D02*
X128095478Y-52297080D01*
X128095478Y-52297080D02*
X128047859Y-52249461D01*
X117571666Y-50022319D02*
X117571666Y-50736604D01*
X117571666Y-50736604D02*
X117524047Y-50879461D01*
X117524047Y-50879461D02*
X117428809Y-50974700D01*
X117428809Y-50974700D02*
X117285952Y-51022319D01*
X117285952Y-51022319D02*
X117190714Y-51022319D01*
X117952619Y-50022319D02*
X118571666Y-50022319D01*
X118571666Y-50022319D02*
X118238333Y-50403271D01*
X118238333Y-50403271D02*
X118381190Y-50403271D01*
X118381190Y-50403271D02*
X118476428Y-50450890D01*
X118476428Y-50450890D02*
X118524047Y-50498509D01*
X118524047Y-50498509D02*
X118571666Y-50593747D01*
X118571666Y-50593747D02*
X118571666Y-50831842D01*
X118571666Y-50831842D02*
X118524047Y-50927080D01*
X118524047Y-50927080D02*
X118476428Y-50974700D01*
X118476428Y-50974700D02*
X118381190Y-51022319D01*
X118381190Y-51022319D02*
X118095476Y-51022319D01*
X118095476Y-51022319D02*
X118000238Y-50974700D01*
X118000238Y-50974700D02*
X117952619Y-50927080D01*
X103146904Y-75438152D02*
X103146904Y-76104819D01*
X102908809Y-75057200D02*
X102670714Y-75771485D01*
X102670714Y-75771485D02*
X103289761Y-75771485D01*
X103575476Y-75104819D02*
X104242142Y-75104819D01*
X104242142Y-75104819D02*
X103813571Y-76104819D01*
X105051666Y-75438152D02*
X105051666Y-76104819D01*
X104623095Y-75438152D02*
X104623095Y-75961961D01*
X104623095Y-75961961D02*
X104670714Y-76057200D01*
X104670714Y-76057200D02*
X104765952Y-76104819D01*
X104765952Y-76104819D02*
X104908809Y-76104819D01*
X104908809Y-76104819D02*
X105004047Y-76057200D01*
X105004047Y-76057200D02*
X105051666Y-76009580D01*
D12*
X103627857Y-74363832D02*
X103608809Y-74382880D01*
X103608809Y-74382880D02*
X103551667Y-74401927D01*
X103551667Y-74401927D02*
X103513571Y-74401927D01*
X103513571Y-74401927D02*
X103456428Y-74382880D01*
X103456428Y-74382880D02*
X103418333Y-74344784D01*
X103418333Y-74344784D02*
X103399286Y-74306689D01*
X103399286Y-74306689D02*
X103380238Y-74230499D01*
X103380238Y-74230499D02*
X103380238Y-74173356D01*
X103380238Y-74173356D02*
X103399286Y-74097165D01*
X103399286Y-74097165D02*
X103418333Y-74059070D01*
X103418333Y-74059070D02*
X103456428Y-74020975D01*
X103456428Y-74020975D02*
X103513571Y-74001927D01*
X103513571Y-74001927D02*
X103551667Y-74001927D01*
X103551667Y-74001927D02*
X103608809Y-74020975D01*
X103608809Y-74020975D02*
X103627857Y-74040022D01*
X104008809Y-74401927D02*
X103780238Y-74401927D01*
X103894524Y-74401927D02*
X103894524Y-74001927D01*
X103894524Y-74001927D02*
X103856428Y-74059070D01*
X103856428Y-74059070D02*
X103818333Y-74097165D01*
X103818333Y-74097165D02*
X103780238Y-74116213D01*
X104389761Y-74401927D02*
X104161190Y-74401927D01*
X104275476Y-74401927D02*
X104275476Y-74001927D01*
X104275476Y-74001927D02*
X104237380Y-74059070D01*
X104237380Y-74059070D02*
X104199285Y-74097165D01*
X104199285Y-74097165D02*
X104161190Y-74116213D01*
D10*
X99833333Y-71024819D02*
X99833333Y-70024819D01*
X99833333Y-70024819D02*
X100404761Y-71024819D01*
X100404761Y-71024819D02*
X100404761Y-70024819D01*
X100880952Y-70501009D02*
X101214285Y-70501009D01*
X101357142Y-71024819D02*
X100880952Y-71024819D01*
X100880952Y-71024819D02*
X100880952Y-70024819D01*
X100880952Y-70024819D02*
X101357142Y-70024819D01*
X102261904Y-70024819D02*
X101785714Y-70024819D01*
X101785714Y-70024819D02*
X101738095Y-70501009D01*
X101738095Y-70501009D02*
X101785714Y-70453390D01*
X101785714Y-70453390D02*
X101880952Y-70405771D01*
X101880952Y-70405771D02*
X102119047Y-70405771D01*
X102119047Y-70405771D02*
X102214285Y-70453390D01*
X102214285Y-70453390D02*
X102261904Y-70501009D01*
X102261904Y-70501009D02*
X102309523Y-70596247D01*
X102309523Y-70596247D02*
X102309523Y-70834342D01*
X102309523Y-70834342D02*
X102261904Y-70929580D01*
X102261904Y-70929580D02*
X102214285Y-70977200D01*
X102214285Y-70977200D02*
X102119047Y-71024819D01*
X102119047Y-71024819D02*
X101880952Y-71024819D01*
X101880952Y-71024819D02*
X101785714Y-70977200D01*
X101785714Y-70977200D02*
X101738095Y-70929580D01*
X103214285Y-70024819D02*
X102738095Y-70024819D01*
X102738095Y-70024819D02*
X102690476Y-70501009D01*
X102690476Y-70501009D02*
X102738095Y-70453390D01*
X102738095Y-70453390D02*
X102833333Y-70405771D01*
X102833333Y-70405771D02*
X103071428Y-70405771D01*
X103071428Y-70405771D02*
X103166666Y-70453390D01*
X103166666Y-70453390D02*
X103214285Y-70501009D01*
X103214285Y-70501009D02*
X103261904Y-70596247D01*
X103261904Y-70596247D02*
X103261904Y-70834342D01*
X103261904Y-70834342D02*
X103214285Y-70929580D01*
X103214285Y-70929580D02*
X103166666Y-70977200D01*
X103166666Y-70977200D02*
X103071428Y-71024819D01*
X103071428Y-71024819D02*
X102833333Y-71024819D01*
X102833333Y-71024819D02*
X102738095Y-70977200D01*
X102738095Y-70977200D02*
X102690476Y-70929580D01*
X104166666Y-70024819D02*
X103690476Y-70024819D01*
X103690476Y-70024819D02*
X103642857Y-70501009D01*
X103642857Y-70501009D02*
X103690476Y-70453390D01*
X103690476Y-70453390D02*
X103785714Y-70405771D01*
X103785714Y-70405771D02*
X104023809Y-70405771D01*
X104023809Y-70405771D02*
X104119047Y-70453390D01*
X104119047Y-70453390D02*
X104166666Y-70501009D01*
X104166666Y-70501009D02*
X104214285Y-70596247D01*
X104214285Y-70596247D02*
X104214285Y-70834342D01*
X104214285Y-70834342D02*
X104166666Y-70929580D01*
X104166666Y-70929580D02*
X104119047Y-70977200D01*
X104119047Y-70977200D02*
X104023809Y-71024819D01*
X104023809Y-71024819D02*
X103785714Y-71024819D01*
X103785714Y-71024819D02*
X103690476Y-70977200D01*
X103690476Y-70977200D02*
X103642857Y-70929580D01*
X104642857Y-71024819D02*
X104642857Y-70024819D01*
X104642857Y-70024819D02*
X105023809Y-70024819D01*
X105023809Y-70024819D02*
X105119047Y-70072438D01*
X105119047Y-70072438D02*
X105166666Y-70120057D01*
X105166666Y-70120057D02*
X105214285Y-70215295D01*
X105214285Y-70215295D02*
X105214285Y-70358152D01*
X105214285Y-70358152D02*
X105166666Y-70453390D01*
X105166666Y-70453390D02*
X105119047Y-70501009D01*
X105119047Y-70501009D02*
X105023809Y-70548628D01*
X105023809Y-70548628D02*
X104642857Y-70548628D01*
X101954819Y-65191904D02*
X102764342Y-65191904D01*
X102764342Y-65191904D02*
X102859580Y-65144285D01*
X102859580Y-65144285D02*
X102907200Y-65096666D01*
X102907200Y-65096666D02*
X102954819Y-65001428D01*
X102954819Y-65001428D02*
X102954819Y-64810952D01*
X102954819Y-64810952D02*
X102907200Y-64715714D01*
X102907200Y-64715714D02*
X102859580Y-64668095D01*
X102859580Y-64668095D02*
X102764342Y-64620476D01*
X102764342Y-64620476D02*
X101954819Y-64620476D01*
X102050057Y-64191904D02*
X102002438Y-64144285D01*
X102002438Y-64144285D02*
X101954819Y-64049047D01*
X101954819Y-64049047D02*
X101954819Y-63810952D01*
X101954819Y-63810952D02*
X102002438Y-63715714D01*
X102002438Y-63715714D02*
X102050057Y-63668095D01*
X102050057Y-63668095D02*
X102145295Y-63620476D01*
X102145295Y-63620476D02*
X102240533Y-63620476D01*
X102240533Y-63620476D02*
X102383390Y-63668095D01*
X102383390Y-63668095D02*
X102954819Y-64239523D01*
X102954819Y-64239523D02*
X102954819Y-63620476D01*
X169614819Y-107466666D02*
X169614819Y-108038094D01*
X169614819Y-107752380D02*
X168614819Y-107752380D01*
X168614819Y-107752380D02*
X168757676Y-107847618D01*
X168757676Y-107847618D02*
X168852914Y-107942856D01*
X168852914Y-107942856D02*
X168900533Y-108038094D01*
X168614819Y-106847618D02*
X168614819Y-106752380D01*
X168614819Y-106752380D02*
X168662438Y-106657142D01*
X168662438Y-106657142D02*
X168710057Y-106609523D01*
X168710057Y-106609523D02*
X168805295Y-106561904D01*
X168805295Y-106561904D02*
X168995771Y-106514285D01*
X168995771Y-106514285D02*
X169233866Y-106514285D01*
X169233866Y-106514285D02*
X169424342Y-106561904D01*
X169424342Y-106561904D02*
X169519580Y-106609523D01*
X169519580Y-106609523D02*
X169567200Y-106657142D01*
X169567200Y-106657142D02*
X169614819Y-106752380D01*
X169614819Y-106752380D02*
X169614819Y-106847618D01*
X169614819Y-106847618D02*
X169567200Y-106942856D01*
X169567200Y-106942856D02*
X169519580Y-106990475D01*
X169519580Y-106990475D02*
X169424342Y-107038094D01*
X169424342Y-107038094D02*
X169233866Y-107085713D01*
X169233866Y-107085713D02*
X168995771Y-107085713D01*
X168995771Y-107085713D02*
X168805295Y-107038094D01*
X168805295Y-107038094D02*
X168710057Y-106990475D01*
X168710057Y-106990475D02*
X168662438Y-106942856D01*
X168662438Y-106942856D02*
X168614819Y-106847618D01*
X168614819Y-105895237D02*
X168614819Y-105799999D01*
X168614819Y-105799999D02*
X168662438Y-105704761D01*
X168662438Y-105704761D02*
X168710057Y-105657142D01*
X168710057Y-105657142D02*
X168805295Y-105609523D01*
X168805295Y-105609523D02*
X168995771Y-105561904D01*
X168995771Y-105561904D02*
X169233866Y-105561904D01*
X169233866Y-105561904D02*
X169424342Y-105609523D01*
X169424342Y-105609523D02*
X169519580Y-105657142D01*
X169519580Y-105657142D02*
X169567200Y-105704761D01*
X169567200Y-105704761D02*
X169614819Y-105799999D01*
X169614819Y-105799999D02*
X169614819Y-105895237D01*
X169614819Y-105895237D02*
X169567200Y-105990475D01*
X169567200Y-105990475D02*
X169519580Y-106038094D01*
X169519580Y-106038094D02*
X169424342Y-106085713D01*
X169424342Y-106085713D02*
X169233866Y-106133332D01*
X169233866Y-106133332D02*
X168995771Y-106133332D01*
X168995771Y-106133332D02*
X168805295Y-106085713D01*
X168805295Y-106085713D02*
X168710057Y-106038094D01*
X168710057Y-106038094D02*
X168662438Y-105990475D01*
X168662438Y-105990475D02*
X168614819Y-105895237D01*
X171814819Y-107442857D02*
X171338628Y-107776190D01*
X171814819Y-108014285D02*
X170814819Y-108014285D01*
X170814819Y-108014285D02*
X170814819Y-107633333D01*
X170814819Y-107633333D02*
X170862438Y-107538095D01*
X170862438Y-107538095D02*
X170910057Y-107490476D01*
X170910057Y-107490476D02*
X171005295Y-107442857D01*
X171005295Y-107442857D02*
X171148152Y-107442857D01*
X171148152Y-107442857D02*
X171243390Y-107490476D01*
X171243390Y-107490476D02*
X171291009Y-107538095D01*
X171291009Y-107538095D02*
X171338628Y-107633333D01*
X171338628Y-107633333D02*
X171338628Y-108014285D01*
X170814819Y-106538095D02*
X170814819Y-107014285D01*
X170814819Y-107014285D02*
X171291009Y-107061904D01*
X171291009Y-107061904D02*
X171243390Y-107014285D01*
X171243390Y-107014285D02*
X171195771Y-106919047D01*
X171195771Y-106919047D02*
X171195771Y-106680952D01*
X171195771Y-106680952D02*
X171243390Y-106585714D01*
X171243390Y-106585714D02*
X171291009Y-106538095D01*
X171291009Y-106538095D02*
X171386247Y-106490476D01*
X171386247Y-106490476D02*
X171624342Y-106490476D01*
X171624342Y-106490476D02*
X171719580Y-106538095D01*
X171719580Y-106538095D02*
X171767200Y-106585714D01*
X171767200Y-106585714D02*
X171814819Y-106680952D01*
X171814819Y-106680952D02*
X171814819Y-106919047D01*
X171814819Y-106919047D02*
X171767200Y-107014285D01*
X171767200Y-107014285D02*
X171719580Y-107061904D01*
X171814819Y-105538095D02*
X171814819Y-106109523D01*
X171814819Y-105823809D02*
X170814819Y-105823809D01*
X170814819Y-105823809D02*
X170957676Y-105919047D01*
X170957676Y-105919047D02*
X171052914Y-106014285D01*
X171052914Y-106014285D02*
X171100533Y-106109523D01*
X76585652Y-86649285D02*
X77252319Y-86649285D01*
X76204700Y-86887380D02*
X76918985Y-87125475D01*
X76918985Y-87125475D02*
X76918985Y-86506428D01*
X76252319Y-86220713D02*
X76252319Y-85554047D01*
X76252319Y-85554047D02*
X77252319Y-85982618D01*
X76252319Y-84982618D02*
X76252319Y-84887380D01*
X76252319Y-84887380D02*
X76299938Y-84792142D01*
X76299938Y-84792142D02*
X76347557Y-84744523D01*
X76347557Y-84744523D02*
X76442795Y-84696904D01*
X76442795Y-84696904D02*
X76633271Y-84649285D01*
X76633271Y-84649285D02*
X76871366Y-84649285D01*
X76871366Y-84649285D02*
X77061842Y-84696904D01*
X77061842Y-84696904D02*
X77157080Y-84744523D01*
X77157080Y-84744523D02*
X77204700Y-84792142D01*
X77204700Y-84792142D02*
X77252319Y-84887380D01*
X77252319Y-84887380D02*
X77252319Y-84982618D01*
X77252319Y-84982618D02*
X77204700Y-85077856D01*
X77204700Y-85077856D02*
X77157080Y-85125475D01*
X77157080Y-85125475D02*
X77061842Y-85173094D01*
X77061842Y-85173094D02*
X76871366Y-85220713D01*
X76871366Y-85220713D02*
X76633271Y-85220713D01*
X76633271Y-85220713D02*
X76442795Y-85173094D01*
X76442795Y-85173094D02*
X76347557Y-85125475D01*
X76347557Y-85125475D02*
X76299938Y-85077856D01*
X76299938Y-85077856D02*
X76252319Y-84982618D01*
X76585652Y-84220713D02*
X77252319Y-84220713D01*
X76680890Y-84220713D02*
X76633271Y-84173094D01*
X76633271Y-84173094D02*
X76585652Y-84077856D01*
X76585652Y-84077856D02*
X76585652Y-83934999D01*
X76585652Y-83934999D02*
X76633271Y-83839761D01*
X76633271Y-83839761D02*
X76728509Y-83792142D01*
X76728509Y-83792142D02*
X77252319Y-83792142D01*
D12*
X78371332Y-85501666D02*
X78390380Y-85520714D01*
X78390380Y-85520714D02*
X78409427Y-85577856D01*
X78409427Y-85577856D02*
X78409427Y-85615952D01*
X78409427Y-85615952D02*
X78390380Y-85673095D01*
X78390380Y-85673095D02*
X78352284Y-85711190D01*
X78352284Y-85711190D02*
X78314189Y-85730237D01*
X78314189Y-85730237D02*
X78237999Y-85749285D01*
X78237999Y-85749285D02*
X78180856Y-85749285D01*
X78180856Y-85749285D02*
X78104665Y-85730237D01*
X78104665Y-85730237D02*
X78066570Y-85711190D01*
X78066570Y-85711190D02*
X78028475Y-85673095D01*
X78028475Y-85673095D02*
X78009427Y-85615952D01*
X78009427Y-85615952D02*
X78009427Y-85577856D01*
X78009427Y-85577856D02*
X78028475Y-85520714D01*
X78028475Y-85520714D02*
X78047522Y-85501666D01*
X78409427Y-85120714D02*
X78409427Y-85349285D01*
X78409427Y-85234999D02*
X78009427Y-85234999D01*
X78009427Y-85234999D02*
X78066570Y-85273095D01*
X78066570Y-85273095D02*
X78104665Y-85311190D01*
X78104665Y-85311190D02*
X78123713Y-85349285D01*
D10*
X74554700Y-96152620D02*
X74602319Y-96009763D01*
X74602319Y-96009763D02*
X74602319Y-95771668D01*
X74602319Y-95771668D02*
X74554700Y-95676430D01*
X74554700Y-95676430D02*
X74507080Y-95628811D01*
X74507080Y-95628811D02*
X74411842Y-95581192D01*
X74411842Y-95581192D02*
X74316604Y-95581192D01*
X74316604Y-95581192D02*
X74221366Y-95628811D01*
X74221366Y-95628811D02*
X74173747Y-95676430D01*
X74173747Y-95676430D02*
X74126128Y-95771668D01*
X74126128Y-95771668D02*
X74078509Y-95962144D01*
X74078509Y-95962144D02*
X74030890Y-96057382D01*
X74030890Y-96057382D02*
X73983271Y-96105001D01*
X73983271Y-96105001D02*
X73888033Y-96152620D01*
X73888033Y-96152620D02*
X73792795Y-96152620D01*
X73792795Y-96152620D02*
X73697557Y-96105001D01*
X73697557Y-96105001D02*
X73649938Y-96057382D01*
X73649938Y-96057382D02*
X73602319Y-95962144D01*
X73602319Y-95962144D02*
X73602319Y-95724049D01*
X73602319Y-95724049D02*
X73649938Y-95581192D01*
X74554700Y-94724049D02*
X74602319Y-94819287D01*
X74602319Y-94819287D02*
X74602319Y-95009763D01*
X74602319Y-95009763D02*
X74554700Y-95105001D01*
X74554700Y-95105001D02*
X74507080Y-95152620D01*
X74507080Y-95152620D02*
X74411842Y-95200239D01*
X74411842Y-95200239D02*
X74126128Y-95200239D01*
X74126128Y-95200239D02*
X74030890Y-95152620D01*
X74030890Y-95152620D02*
X73983271Y-95105001D01*
X73983271Y-95105001D02*
X73935652Y-95009763D01*
X73935652Y-95009763D02*
X73935652Y-94819287D01*
X73935652Y-94819287D02*
X73983271Y-94724049D01*
X74602319Y-94295477D02*
X73935652Y-94295477D01*
X74126128Y-94295477D02*
X74030890Y-94247858D01*
X74030890Y-94247858D02*
X73983271Y-94200239D01*
X73983271Y-94200239D02*
X73935652Y-94105001D01*
X73935652Y-94105001D02*
X73935652Y-94009763D01*
X74554700Y-93295477D02*
X74602319Y-93390715D01*
X74602319Y-93390715D02*
X74602319Y-93581191D01*
X74602319Y-93581191D02*
X74554700Y-93676429D01*
X74554700Y-93676429D02*
X74459461Y-93724048D01*
X74459461Y-93724048D02*
X74078509Y-93724048D01*
X74078509Y-93724048D02*
X73983271Y-93676429D01*
X73983271Y-93676429D02*
X73935652Y-93581191D01*
X73935652Y-93581191D02*
X73935652Y-93390715D01*
X73935652Y-93390715D02*
X73983271Y-93295477D01*
X73983271Y-93295477D02*
X74078509Y-93247858D01*
X74078509Y-93247858D02*
X74173747Y-93247858D01*
X74173747Y-93247858D02*
X74268985Y-93724048D01*
X73935652Y-92914524D02*
X74602319Y-92724048D01*
X74602319Y-92724048D02*
X74126128Y-92533572D01*
X74126128Y-92533572D02*
X74602319Y-92343096D01*
X74602319Y-92343096D02*
X73935652Y-92152620D01*
X74697557Y-92009763D02*
X74697557Y-91247858D01*
X73602319Y-91152619D02*
X73602319Y-90581191D01*
X74602319Y-90866905D02*
X73602319Y-90866905D01*
X74554700Y-89866905D02*
X74602319Y-89962143D01*
X74602319Y-89962143D02*
X74602319Y-90152619D01*
X74602319Y-90152619D02*
X74554700Y-90247857D01*
X74554700Y-90247857D02*
X74459461Y-90295476D01*
X74459461Y-90295476D02*
X74078509Y-90295476D01*
X74078509Y-90295476D02*
X73983271Y-90247857D01*
X73983271Y-90247857D02*
X73935652Y-90152619D01*
X73935652Y-90152619D02*
X73935652Y-89962143D01*
X73935652Y-89962143D02*
X73983271Y-89866905D01*
X73983271Y-89866905D02*
X74078509Y-89819286D01*
X74078509Y-89819286D02*
X74173747Y-89819286D01*
X74173747Y-89819286D02*
X74268985Y-90295476D01*
X74602319Y-89390714D02*
X73935652Y-89390714D01*
X74126128Y-89390714D02*
X74030890Y-89343095D01*
X74030890Y-89343095D02*
X73983271Y-89295476D01*
X73983271Y-89295476D02*
X73935652Y-89200238D01*
X73935652Y-89200238D02*
X73935652Y-89105000D01*
X74602319Y-88771666D02*
X73935652Y-88771666D01*
X74030890Y-88771666D02*
X73983271Y-88724047D01*
X73983271Y-88724047D02*
X73935652Y-88628809D01*
X73935652Y-88628809D02*
X73935652Y-88485952D01*
X73935652Y-88485952D02*
X73983271Y-88390714D01*
X73983271Y-88390714D02*
X74078509Y-88343095D01*
X74078509Y-88343095D02*
X74602319Y-88343095D01*
X74078509Y-88343095D02*
X73983271Y-88295476D01*
X73983271Y-88295476D02*
X73935652Y-88200238D01*
X73935652Y-88200238D02*
X73935652Y-88057381D01*
X73935652Y-88057381D02*
X73983271Y-87962142D01*
X73983271Y-87962142D02*
X74078509Y-87914523D01*
X74078509Y-87914523D02*
X74602319Y-87914523D01*
X74602319Y-87438333D02*
X73935652Y-87438333D01*
X73602319Y-87438333D02*
X73649938Y-87485952D01*
X73649938Y-87485952D02*
X73697557Y-87438333D01*
X73697557Y-87438333D02*
X73649938Y-87390714D01*
X73649938Y-87390714D02*
X73602319Y-87438333D01*
X73602319Y-87438333D02*
X73697557Y-87438333D01*
X73935652Y-86962143D02*
X74602319Y-86962143D01*
X74030890Y-86962143D02*
X73983271Y-86914524D01*
X73983271Y-86914524D02*
X73935652Y-86819286D01*
X73935652Y-86819286D02*
X73935652Y-86676429D01*
X73935652Y-86676429D02*
X73983271Y-86581191D01*
X73983271Y-86581191D02*
X74078509Y-86533572D01*
X74078509Y-86533572D02*
X74602319Y-86533572D01*
X74602319Y-85628810D02*
X74078509Y-85628810D01*
X74078509Y-85628810D02*
X73983271Y-85676429D01*
X73983271Y-85676429D02*
X73935652Y-85771667D01*
X73935652Y-85771667D02*
X73935652Y-85962143D01*
X73935652Y-85962143D02*
X73983271Y-86057381D01*
X74554700Y-85628810D02*
X74602319Y-85724048D01*
X74602319Y-85724048D02*
X74602319Y-85962143D01*
X74602319Y-85962143D02*
X74554700Y-86057381D01*
X74554700Y-86057381D02*
X74459461Y-86105000D01*
X74459461Y-86105000D02*
X74364223Y-86105000D01*
X74364223Y-86105000D02*
X74268985Y-86057381D01*
X74268985Y-86057381D02*
X74221366Y-85962143D01*
X74221366Y-85962143D02*
X74221366Y-85724048D01*
X74221366Y-85724048D02*
X74173747Y-85628810D01*
X74602319Y-85009762D02*
X74554700Y-85105000D01*
X74554700Y-85105000D02*
X74459461Y-85152619D01*
X74459461Y-85152619D02*
X73602319Y-85152619D01*
X74697557Y-84866905D02*
X74697557Y-84105000D01*
X73602319Y-83676428D02*
X73602319Y-83581190D01*
X73602319Y-83581190D02*
X73649938Y-83485952D01*
X73649938Y-83485952D02*
X73697557Y-83438333D01*
X73697557Y-83438333D02*
X73792795Y-83390714D01*
X73792795Y-83390714D02*
X73983271Y-83343095D01*
X73983271Y-83343095D02*
X74221366Y-83343095D01*
X74221366Y-83343095D02*
X74411842Y-83390714D01*
X74411842Y-83390714D02*
X74507080Y-83438333D01*
X74507080Y-83438333D02*
X74554700Y-83485952D01*
X74554700Y-83485952D02*
X74602319Y-83581190D01*
X74602319Y-83581190D02*
X74602319Y-83676428D01*
X74602319Y-83676428D02*
X74554700Y-83771666D01*
X74554700Y-83771666D02*
X74507080Y-83819285D01*
X74507080Y-83819285D02*
X74411842Y-83866904D01*
X74411842Y-83866904D02*
X74221366Y-83914523D01*
X74221366Y-83914523D02*
X73983271Y-83914523D01*
X73983271Y-83914523D02*
X73792795Y-83866904D01*
X73792795Y-83866904D02*
X73697557Y-83819285D01*
X73697557Y-83819285D02*
X73649938Y-83771666D01*
X73649938Y-83771666D02*
X73602319Y-83676428D01*
X74602319Y-82390714D02*
X74602319Y-82962142D01*
X74602319Y-82676428D02*
X73602319Y-82676428D01*
X73602319Y-82676428D02*
X73745176Y-82771666D01*
X73745176Y-82771666D02*
X73840414Y-82866904D01*
X73840414Y-82866904D02*
X73888033Y-82962142D01*
X74602319Y-82057380D02*
X73935652Y-81533571D01*
X73935652Y-82057380D02*
X74602319Y-81533571D01*
X73602319Y-80962142D02*
X73602319Y-80866904D01*
X73602319Y-80866904D02*
X73649938Y-80771666D01*
X73649938Y-80771666D02*
X73697557Y-80724047D01*
X73697557Y-80724047D02*
X73792795Y-80676428D01*
X73792795Y-80676428D02*
X73983271Y-80628809D01*
X73983271Y-80628809D02*
X74221366Y-80628809D01*
X74221366Y-80628809D02*
X74411842Y-80676428D01*
X74411842Y-80676428D02*
X74507080Y-80724047D01*
X74507080Y-80724047D02*
X74554700Y-80771666D01*
X74554700Y-80771666D02*
X74602319Y-80866904D01*
X74602319Y-80866904D02*
X74602319Y-80962142D01*
X74602319Y-80962142D02*
X74554700Y-81057380D01*
X74554700Y-81057380D02*
X74507080Y-81104999D01*
X74507080Y-81104999D02*
X74411842Y-81152618D01*
X74411842Y-81152618D02*
X74221366Y-81200237D01*
X74221366Y-81200237D02*
X73983271Y-81200237D01*
X73983271Y-81200237D02*
X73792795Y-81152618D01*
X73792795Y-81152618D02*
X73697557Y-81104999D01*
X73697557Y-81104999D02*
X73649938Y-81057380D01*
X73649938Y-81057380D02*
X73602319Y-80962142D01*
X73697557Y-80247856D02*
X73649938Y-80200237D01*
X73649938Y-80200237D02*
X73602319Y-80104999D01*
X73602319Y-80104999D02*
X73602319Y-79866904D01*
X73602319Y-79866904D02*
X73649938Y-79771666D01*
X73649938Y-79771666D02*
X73697557Y-79724047D01*
X73697557Y-79724047D02*
X73792795Y-79676428D01*
X73792795Y-79676428D02*
X73888033Y-79676428D01*
X73888033Y-79676428D02*
X74030890Y-79724047D01*
X74030890Y-79724047D02*
X74602319Y-80295475D01*
X74602319Y-80295475D02*
X74602319Y-79676428D01*
X74983271Y-78200237D02*
X74935652Y-78247856D01*
X74935652Y-78247856D02*
X74792795Y-78343094D01*
X74792795Y-78343094D02*
X74697557Y-78390713D01*
X74697557Y-78390713D02*
X74554700Y-78438332D01*
X74554700Y-78438332D02*
X74316604Y-78485951D01*
X74316604Y-78485951D02*
X74126128Y-78485951D01*
X74126128Y-78485951D02*
X73888033Y-78438332D01*
X73888033Y-78438332D02*
X73745176Y-78390713D01*
X73745176Y-78390713D02*
X73649938Y-78343094D01*
X73649938Y-78343094D02*
X73507080Y-78247856D01*
X73507080Y-78247856D02*
X73459461Y-78200237D01*
X74602319Y-77819284D02*
X73602319Y-77819284D01*
X73935652Y-77438332D02*
X73935652Y-76914523D01*
X73935652Y-76914523D02*
X74602319Y-77438332D01*
X74602319Y-77438332D02*
X74602319Y-76914523D01*
X74602319Y-76390713D02*
X74554700Y-76485951D01*
X74554700Y-76485951D02*
X74459461Y-76533570D01*
X74459461Y-76533570D02*
X73602319Y-76533570D01*
X74602319Y-75581189D02*
X74078509Y-75581189D01*
X74078509Y-75581189D02*
X73983271Y-75628808D01*
X73983271Y-75628808D02*
X73935652Y-75724046D01*
X73935652Y-75724046D02*
X73935652Y-75914522D01*
X73935652Y-75914522D02*
X73983271Y-76009760D01*
X74554700Y-75581189D02*
X74602319Y-75676427D01*
X74602319Y-75676427D02*
X74602319Y-75914522D01*
X74602319Y-75914522D02*
X74554700Y-76009760D01*
X74554700Y-76009760D02*
X74459461Y-76057379D01*
X74459461Y-76057379D02*
X74364223Y-76057379D01*
X74364223Y-76057379D02*
X74268985Y-76009760D01*
X74268985Y-76009760D02*
X74221366Y-75914522D01*
X74221366Y-75914522D02*
X74221366Y-75676427D01*
X74221366Y-75676427D02*
X74173747Y-75581189D01*
X73935652Y-75200236D02*
X73935652Y-74676427D01*
X73935652Y-74676427D02*
X74602319Y-75200236D01*
X74602319Y-75200236D02*
X74602319Y-74676427D01*
X74983271Y-74390712D02*
X74935652Y-74343093D01*
X74935652Y-74343093D02*
X74792795Y-74247855D01*
X74792795Y-74247855D02*
X74697557Y-74200236D01*
X74697557Y-74200236D02*
X74554700Y-74152617D01*
X74554700Y-74152617D02*
X74316604Y-74104998D01*
X74316604Y-74104998D02*
X74126128Y-74104998D01*
X74126128Y-74104998D02*
X73888033Y-74152617D01*
X73888033Y-74152617D02*
X73745176Y-74200236D01*
X73745176Y-74200236D02*
X73649938Y-74247855D01*
X73649938Y-74247855D02*
X73507080Y-74343093D01*
X73507080Y-74343093D02*
X73459461Y-74390712D01*
X71232319Y-85438333D02*
X71946604Y-85438333D01*
X71946604Y-85438333D02*
X72089461Y-85485952D01*
X72089461Y-85485952D02*
X72184700Y-85581190D01*
X72184700Y-85581190D02*
X72232319Y-85724047D01*
X72232319Y-85724047D02*
X72232319Y-85819285D01*
X72232319Y-84438333D02*
X72232319Y-85009761D01*
X72232319Y-84724047D02*
X71232319Y-84724047D01*
X71232319Y-84724047D02*
X71375176Y-84819285D01*
X71375176Y-84819285D02*
X71470414Y-84914523D01*
X71470414Y-84914523D02*
X71518033Y-85009761D01*
X126695714Y-83178152D02*
X126695714Y-83844819D01*
X126457619Y-82797200D02*
X126219524Y-83511485D01*
X126219524Y-83511485D02*
X126838571Y-83511485D01*
X127124286Y-82844819D02*
X127790952Y-82844819D01*
X127790952Y-82844819D02*
X127362381Y-83844819D01*
X128362381Y-82844819D02*
X128457619Y-82844819D01*
X128457619Y-82844819D02*
X128552857Y-82892438D01*
X128552857Y-82892438D02*
X128600476Y-82940057D01*
X128600476Y-82940057D02*
X128648095Y-83035295D01*
X128648095Y-83035295D02*
X128695714Y-83225771D01*
X128695714Y-83225771D02*
X128695714Y-83463866D01*
X128695714Y-83463866D02*
X128648095Y-83654342D01*
X128648095Y-83654342D02*
X128600476Y-83749580D01*
X128600476Y-83749580D02*
X128552857Y-83797200D01*
X128552857Y-83797200D02*
X128457619Y-83844819D01*
X128457619Y-83844819D02*
X128362381Y-83844819D01*
X128362381Y-83844819D02*
X128267143Y-83797200D01*
X128267143Y-83797200D02*
X128219524Y-83749580D01*
X128219524Y-83749580D02*
X128171905Y-83654342D01*
X128171905Y-83654342D02*
X128124286Y-83463866D01*
X128124286Y-83463866D02*
X128124286Y-83225771D01*
X128124286Y-83225771D02*
X128171905Y-83035295D01*
X128171905Y-83035295D02*
X128219524Y-82940057D01*
X128219524Y-82940057D02*
X128267143Y-82892438D01*
X128267143Y-82892438D02*
X128362381Y-82844819D01*
X129124286Y-83178152D02*
X129124286Y-83844819D01*
X129124286Y-83273390D02*
X129171905Y-83225771D01*
X129171905Y-83225771D02*
X129267143Y-83178152D01*
X129267143Y-83178152D02*
X129410000Y-83178152D01*
X129410000Y-83178152D02*
X129505238Y-83225771D01*
X129505238Y-83225771D02*
X129552857Y-83321009D01*
X129552857Y-83321009D02*
X129552857Y-83844819D01*
D12*
X127652857Y-84963832D02*
X127633809Y-84982880D01*
X127633809Y-84982880D02*
X127576667Y-85001927D01*
X127576667Y-85001927D02*
X127538571Y-85001927D01*
X127538571Y-85001927D02*
X127481428Y-84982880D01*
X127481428Y-84982880D02*
X127443333Y-84944784D01*
X127443333Y-84944784D02*
X127424286Y-84906689D01*
X127424286Y-84906689D02*
X127405238Y-84830499D01*
X127405238Y-84830499D02*
X127405238Y-84773356D01*
X127405238Y-84773356D02*
X127424286Y-84697165D01*
X127424286Y-84697165D02*
X127443333Y-84659070D01*
X127443333Y-84659070D02*
X127481428Y-84620975D01*
X127481428Y-84620975D02*
X127538571Y-84601927D01*
X127538571Y-84601927D02*
X127576667Y-84601927D01*
X127576667Y-84601927D02*
X127633809Y-84620975D01*
X127633809Y-84620975D02*
X127652857Y-84640022D01*
X127805238Y-84640022D02*
X127824286Y-84620975D01*
X127824286Y-84620975D02*
X127862381Y-84601927D01*
X127862381Y-84601927D02*
X127957619Y-84601927D01*
X127957619Y-84601927D02*
X127995714Y-84620975D01*
X127995714Y-84620975D02*
X128014762Y-84640022D01*
X128014762Y-84640022D02*
X128033809Y-84678118D01*
X128033809Y-84678118D02*
X128033809Y-84716213D01*
X128033809Y-84716213D02*
X128014762Y-84773356D01*
X128014762Y-84773356D02*
X127786190Y-85001927D01*
X127786190Y-85001927D02*
X128033809Y-85001927D01*
X128414761Y-85001927D02*
X128186190Y-85001927D01*
X128300476Y-85001927D02*
X128300476Y-84601927D01*
X128300476Y-84601927D02*
X128262380Y-84659070D01*
X128262380Y-84659070D02*
X128224285Y-84697165D01*
X128224285Y-84697165D02*
X128186190Y-84716213D01*
D10*
X125274819Y-73415238D02*
X125274819Y-73986666D01*
X125274819Y-73700952D02*
X124274819Y-73700952D01*
X124274819Y-73700952D02*
X124417676Y-73796190D01*
X124417676Y-73796190D02*
X124512914Y-73891428D01*
X124512914Y-73891428D02*
X124560533Y-73986666D01*
X124274819Y-72796190D02*
X124274819Y-72700952D01*
X124274819Y-72700952D02*
X124322438Y-72605714D01*
X124322438Y-72605714D02*
X124370057Y-72558095D01*
X124370057Y-72558095D02*
X124465295Y-72510476D01*
X124465295Y-72510476D02*
X124655771Y-72462857D01*
X124655771Y-72462857D02*
X124893866Y-72462857D01*
X124893866Y-72462857D02*
X125084342Y-72510476D01*
X125084342Y-72510476D02*
X125179580Y-72558095D01*
X125179580Y-72558095D02*
X125227200Y-72605714D01*
X125227200Y-72605714D02*
X125274819Y-72700952D01*
X125274819Y-72700952D02*
X125274819Y-72796190D01*
X125274819Y-72796190D02*
X125227200Y-72891428D01*
X125227200Y-72891428D02*
X125179580Y-72939047D01*
X125179580Y-72939047D02*
X125084342Y-72986666D01*
X125084342Y-72986666D02*
X124893866Y-73034285D01*
X124893866Y-73034285D02*
X124655771Y-73034285D01*
X124655771Y-73034285D02*
X124465295Y-72986666D01*
X124465295Y-72986666D02*
X124370057Y-72939047D01*
X124370057Y-72939047D02*
X124322438Y-72891428D01*
X124322438Y-72891428D02*
X124274819Y-72796190D01*
X125274819Y-72034285D02*
X124274819Y-72034285D01*
X124893866Y-71939047D02*
X125274819Y-71653333D01*
X124608152Y-71653333D02*
X124989104Y-72034285D01*
X127474819Y-73462857D02*
X126998628Y-73796190D01*
X127474819Y-74034285D02*
X126474819Y-74034285D01*
X126474819Y-74034285D02*
X126474819Y-73653333D01*
X126474819Y-73653333D02*
X126522438Y-73558095D01*
X126522438Y-73558095D02*
X126570057Y-73510476D01*
X126570057Y-73510476D02*
X126665295Y-73462857D01*
X126665295Y-73462857D02*
X126808152Y-73462857D01*
X126808152Y-73462857D02*
X126903390Y-73510476D01*
X126903390Y-73510476D02*
X126951009Y-73558095D01*
X126951009Y-73558095D02*
X126998628Y-73653333D01*
X126998628Y-73653333D02*
X126998628Y-74034285D01*
X126570057Y-73081904D02*
X126522438Y-73034285D01*
X126522438Y-73034285D02*
X126474819Y-72939047D01*
X126474819Y-72939047D02*
X126474819Y-72700952D01*
X126474819Y-72700952D02*
X126522438Y-72605714D01*
X126522438Y-72605714D02*
X126570057Y-72558095D01*
X126570057Y-72558095D02*
X126665295Y-72510476D01*
X126665295Y-72510476D02*
X126760533Y-72510476D01*
X126760533Y-72510476D02*
X126903390Y-72558095D01*
X126903390Y-72558095D02*
X127474819Y-73129523D01*
X127474819Y-73129523D02*
X127474819Y-72510476D01*
X127474819Y-71558095D02*
X127474819Y-72129523D01*
X127474819Y-71843809D02*
X126474819Y-71843809D01*
X126474819Y-71843809D02*
X126617676Y-71939047D01*
X126617676Y-71939047D02*
X126712914Y-72034285D01*
X126712914Y-72034285D02*
X126760533Y-72129523D01*
X110210571Y-125568819D02*
X110210571Y-124568819D01*
X110210571Y-124568819D02*
X110448666Y-124568819D01*
X110448666Y-124568819D02*
X110591523Y-124616438D01*
X110591523Y-124616438D02*
X110686761Y-124711676D01*
X110686761Y-124711676D02*
X110734380Y-124806914D01*
X110734380Y-124806914D02*
X110781999Y-124997390D01*
X110781999Y-124997390D02*
X110781999Y-125140247D01*
X110781999Y-125140247D02*
X110734380Y-125330723D01*
X110734380Y-125330723D02*
X110686761Y-125425961D01*
X110686761Y-125425961D02*
X110591523Y-125521200D01*
X110591523Y-125521200D02*
X110448666Y-125568819D01*
X110448666Y-125568819D02*
X110210571Y-125568819D01*
X111686761Y-125568819D02*
X111210571Y-125568819D01*
X111210571Y-125568819D02*
X111210571Y-124568819D01*
X112543904Y-125568819D02*
X111972476Y-125568819D01*
X112258190Y-125568819D02*
X112258190Y-124568819D01*
X112258190Y-124568819D02*
X112162952Y-124711676D01*
X112162952Y-124711676D02*
X112067714Y-124806914D01*
X112067714Y-124806914D02*
X111972476Y-124854533D01*
X113401047Y-124902152D02*
X113401047Y-125568819D01*
X113162952Y-124521200D02*
X112924857Y-125235485D01*
X112924857Y-125235485D02*
X113543904Y-125235485D01*
X114448666Y-125568819D02*
X113877238Y-125568819D01*
X114162952Y-125568819D02*
X114162952Y-124568819D01*
X114162952Y-124568819D02*
X114067714Y-124711676D01*
X114067714Y-124711676D02*
X113972476Y-124806914D01*
X113972476Y-124806914D02*
X113877238Y-124854533D01*
X115305809Y-124568819D02*
X115115333Y-124568819D01*
X115115333Y-124568819D02*
X115020095Y-124616438D01*
X115020095Y-124616438D02*
X114972476Y-124664057D01*
X114972476Y-124664057D02*
X114877238Y-124806914D01*
X114877238Y-124806914D02*
X114829619Y-124997390D01*
X114829619Y-124997390D02*
X114829619Y-125378342D01*
X114829619Y-125378342D02*
X114877238Y-125473580D01*
X114877238Y-125473580D02*
X114924857Y-125521200D01*
X114924857Y-125521200D02*
X115020095Y-125568819D01*
X115020095Y-125568819D02*
X115210571Y-125568819D01*
X115210571Y-125568819D02*
X115305809Y-125521200D01*
X115305809Y-125521200D02*
X115353428Y-125473580D01*
X115353428Y-125473580D02*
X115401047Y-125378342D01*
X115401047Y-125378342D02*
X115401047Y-125140247D01*
X115401047Y-125140247D02*
X115353428Y-125045009D01*
X115353428Y-125045009D02*
X115305809Y-124997390D01*
X115305809Y-124997390D02*
X115210571Y-124949771D01*
X115210571Y-124949771D02*
X115020095Y-124949771D01*
X115020095Y-124949771D02*
X114924857Y-124997390D01*
X114924857Y-124997390D02*
X114877238Y-125045009D01*
X114877238Y-125045009D02*
X114829619Y-125140247D01*
X125228095Y-110344819D02*
X125228095Y-111154342D01*
X125228095Y-111154342D02*
X125275714Y-111249580D01*
X125275714Y-111249580D02*
X125323333Y-111297200D01*
X125323333Y-111297200D02*
X125418571Y-111344819D01*
X125418571Y-111344819D02*
X125609047Y-111344819D01*
X125609047Y-111344819D02*
X125704285Y-111297200D01*
X125704285Y-111297200D02*
X125751904Y-111249580D01*
X125751904Y-111249580D02*
X125799523Y-111154342D01*
X125799523Y-111154342D02*
X125799523Y-110344819D01*
X126180476Y-110344819D02*
X126799523Y-110344819D01*
X126799523Y-110344819D02*
X126466190Y-110725771D01*
X126466190Y-110725771D02*
X126609047Y-110725771D01*
X126609047Y-110725771D02*
X126704285Y-110773390D01*
X126704285Y-110773390D02*
X126751904Y-110821009D01*
X126751904Y-110821009D02*
X126799523Y-110916247D01*
X126799523Y-110916247D02*
X126799523Y-111154342D01*
X126799523Y-111154342D02*
X126751904Y-111249580D01*
X126751904Y-111249580D02*
X126704285Y-111297200D01*
X126704285Y-111297200D02*
X126609047Y-111344819D01*
X126609047Y-111344819D02*
X126323333Y-111344819D01*
X126323333Y-111344819D02*
X126228095Y-111297200D01*
X126228095Y-111297200D02*
X126180476Y-111249580D01*
X144364819Y-107466666D02*
X144364819Y-108038094D01*
X144364819Y-107752380D02*
X143364819Y-107752380D01*
X143364819Y-107752380D02*
X143507676Y-107847618D01*
X143507676Y-107847618D02*
X143602914Y-107942856D01*
X143602914Y-107942856D02*
X143650533Y-108038094D01*
X143364819Y-106847618D02*
X143364819Y-106752380D01*
X143364819Y-106752380D02*
X143412438Y-106657142D01*
X143412438Y-106657142D02*
X143460057Y-106609523D01*
X143460057Y-106609523D02*
X143555295Y-106561904D01*
X143555295Y-106561904D02*
X143745771Y-106514285D01*
X143745771Y-106514285D02*
X143983866Y-106514285D01*
X143983866Y-106514285D02*
X144174342Y-106561904D01*
X144174342Y-106561904D02*
X144269580Y-106609523D01*
X144269580Y-106609523D02*
X144317200Y-106657142D01*
X144317200Y-106657142D02*
X144364819Y-106752380D01*
X144364819Y-106752380D02*
X144364819Y-106847618D01*
X144364819Y-106847618D02*
X144317200Y-106942856D01*
X144317200Y-106942856D02*
X144269580Y-106990475D01*
X144269580Y-106990475D02*
X144174342Y-107038094D01*
X144174342Y-107038094D02*
X143983866Y-107085713D01*
X143983866Y-107085713D02*
X143745771Y-107085713D01*
X143745771Y-107085713D02*
X143555295Y-107038094D01*
X143555295Y-107038094D02*
X143460057Y-106990475D01*
X143460057Y-106990475D02*
X143412438Y-106942856D01*
X143412438Y-106942856D02*
X143364819Y-106847618D01*
X143364819Y-105895237D02*
X143364819Y-105799999D01*
X143364819Y-105799999D02*
X143412438Y-105704761D01*
X143412438Y-105704761D02*
X143460057Y-105657142D01*
X143460057Y-105657142D02*
X143555295Y-105609523D01*
X143555295Y-105609523D02*
X143745771Y-105561904D01*
X143745771Y-105561904D02*
X143983866Y-105561904D01*
X143983866Y-105561904D02*
X144174342Y-105609523D01*
X144174342Y-105609523D02*
X144269580Y-105657142D01*
X144269580Y-105657142D02*
X144317200Y-105704761D01*
X144317200Y-105704761D02*
X144364819Y-105799999D01*
X144364819Y-105799999D02*
X144364819Y-105895237D01*
X144364819Y-105895237D02*
X144317200Y-105990475D01*
X144317200Y-105990475D02*
X144269580Y-106038094D01*
X144269580Y-106038094D02*
X144174342Y-106085713D01*
X144174342Y-106085713D02*
X143983866Y-106133332D01*
X143983866Y-106133332D02*
X143745771Y-106133332D01*
X143745771Y-106133332D02*
X143555295Y-106085713D01*
X143555295Y-106085713D02*
X143460057Y-106038094D01*
X143460057Y-106038094D02*
X143412438Y-105990475D01*
X143412438Y-105990475D02*
X143364819Y-105895237D01*
X146564819Y-107442857D02*
X146088628Y-107776190D01*
X146564819Y-108014285D02*
X145564819Y-108014285D01*
X145564819Y-108014285D02*
X145564819Y-107633333D01*
X145564819Y-107633333D02*
X145612438Y-107538095D01*
X145612438Y-107538095D02*
X145660057Y-107490476D01*
X145660057Y-107490476D02*
X145755295Y-107442857D01*
X145755295Y-107442857D02*
X145898152Y-107442857D01*
X145898152Y-107442857D02*
X145993390Y-107490476D01*
X145993390Y-107490476D02*
X146041009Y-107538095D01*
X146041009Y-107538095D02*
X146088628Y-107633333D01*
X146088628Y-107633333D02*
X146088628Y-108014285D01*
X145564819Y-106538095D02*
X145564819Y-107014285D01*
X145564819Y-107014285D02*
X146041009Y-107061904D01*
X146041009Y-107061904D02*
X145993390Y-107014285D01*
X145993390Y-107014285D02*
X145945771Y-106919047D01*
X145945771Y-106919047D02*
X145945771Y-106680952D01*
X145945771Y-106680952D02*
X145993390Y-106585714D01*
X145993390Y-106585714D02*
X146041009Y-106538095D01*
X146041009Y-106538095D02*
X146136247Y-106490476D01*
X146136247Y-106490476D02*
X146374342Y-106490476D01*
X146374342Y-106490476D02*
X146469580Y-106538095D01*
X146469580Y-106538095D02*
X146517200Y-106585714D01*
X146517200Y-106585714D02*
X146564819Y-106680952D01*
X146564819Y-106680952D02*
X146564819Y-106919047D01*
X146564819Y-106919047D02*
X146517200Y-107014285D01*
X146517200Y-107014285D02*
X146469580Y-107061904D01*
X145564819Y-106157142D02*
X145564819Y-105490476D01*
X145564819Y-105490476D02*
X146564819Y-105919047D01*
X129360057Y-68334285D02*
X129312438Y-68286666D01*
X129312438Y-68286666D02*
X129264819Y-68191428D01*
X129264819Y-68191428D02*
X129264819Y-67953333D01*
X129264819Y-67953333D02*
X129312438Y-67858095D01*
X129312438Y-67858095D02*
X129360057Y-67810476D01*
X129360057Y-67810476D02*
X129455295Y-67762857D01*
X129455295Y-67762857D02*
X129550533Y-67762857D01*
X129550533Y-67762857D02*
X129693390Y-67810476D01*
X129693390Y-67810476D02*
X130264819Y-68381904D01*
X130264819Y-68381904D02*
X130264819Y-67762857D01*
X130264819Y-67334285D02*
X129264819Y-67334285D01*
X129264819Y-67334285D02*
X130264819Y-66762857D01*
X130264819Y-66762857D02*
X129264819Y-66762857D01*
X129264819Y-66381904D02*
X129264819Y-65715238D01*
X129264819Y-65715238D02*
X130264819Y-66143809D01*
X129264819Y-65143809D02*
X129264819Y-65048571D01*
X129264819Y-65048571D02*
X129312438Y-64953333D01*
X129312438Y-64953333D02*
X129360057Y-64905714D01*
X129360057Y-64905714D02*
X129455295Y-64858095D01*
X129455295Y-64858095D02*
X129645771Y-64810476D01*
X129645771Y-64810476D02*
X129883866Y-64810476D01*
X129883866Y-64810476D02*
X130074342Y-64858095D01*
X130074342Y-64858095D02*
X130169580Y-64905714D01*
X130169580Y-64905714D02*
X130217200Y-64953333D01*
X130217200Y-64953333D02*
X130264819Y-65048571D01*
X130264819Y-65048571D02*
X130264819Y-65143809D01*
X130264819Y-65143809D02*
X130217200Y-65239047D01*
X130217200Y-65239047D02*
X130169580Y-65286666D01*
X130169580Y-65286666D02*
X130074342Y-65334285D01*
X130074342Y-65334285D02*
X129883866Y-65381904D01*
X129883866Y-65381904D02*
X129645771Y-65381904D01*
X129645771Y-65381904D02*
X129455295Y-65334285D01*
X129455295Y-65334285D02*
X129360057Y-65286666D01*
X129360057Y-65286666D02*
X129312438Y-65239047D01*
X129312438Y-65239047D02*
X129264819Y-65143809D01*
X129264819Y-64191428D02*
X129264819Y-64096190D01*
X129264819Y-64096190D02*
X129312438Y-64000952D01*
X129312438Y-64000952D02*
X129360057Y-63953333D01*
X129360057Y-63953333D02*
X129455295Y-63905714D01*
X129455295Y-63905714D02*
X129645771Y-63858095D01*
X129645771Y-63858095D02*
X129883866Y-63858095D01*
X129883866Y-63858095D02*
X130074342Y-63905714D01*
X130074342Y-63905714D02*
X130169580Y-63953333D01*
X130169580Y-63953333D02*
X130217200Y-64000952D01*
X130217200Y-64000952D02*
X130264819Y-64096190D01*
X130264819Y-64096190D02*
X130264819Y-64191428D01*
X130264819Y-64191428D02*
X130217200Y-64286666D01*
X130217200Y-64286666D02*
X130169580Y-64334285D01*
X130169580Y-64334285D02*
X130074342Y-64381904D01*
X130074342Y-64381904D02*
X129883866Y-64429523D01*
X129883866Y-64429523D02*
X129645771Y-64429523D01*
X129645771Y-64429523D02*
X129455295Y-64381904D01*
X129455295Y-64381904D02*
X129360057Y-64334285D01*
X129360057Y-64334285D02*
X129312438Y-64286666D01*
X129312438Y-64286666D02*
X129264819Y-64191428D01*
X129264819Y-63239047D02*
X129264819Y-63143809D01*
X129264819Y-63143809D02*
X129312438Y-63048571D01*
X129312438Y-63048571D02*
X129360057Y-63000952D01*
X129360057Y-63000952D02*
X129455295Y-62953333D01*
X129455295Y-62953333D02*
X129645771Y-62905714D01*
X129645771Y-62905714D02*
X129883866Y-62905714D01*
X129883866Y-62905714D02*
X130074342Y-62953333D01*
X130074342Y-62953333D02*
X130169580Y-63000952D01*
X130169580Y-63000952D02*
X130217200Y-63048571D01*
X130217200Y-63048571D02*
X130264819Y-63143809D01*
X130264819Y-63143809D02*
X130264819Y-63239047D01*
X130264819Y-63239047D02*
X130217200Y-63334285D01*
X130217200Y-63334285D02*
X130169580Y-63381904D01*
X130169580Y-63381904D02*
X130074342Y-63429523D01*
X130074342Y-63429523D02*
X129883866Y-63477142D01*
X129883866Y-63477142D02*
X129645771Y-63477142D01*
X129645771Y-63477142D02*
X129455295Y-63429523D01*
X129455295Y-63429523D02*
X129360057Y-63381904D01*
X129360057Y-63381904D02*
X129312438Y-63334285D01*
X129312438Y-63334285D02*
X129264819Y-63239047D01*
X127570057Y-65715238D02*
X127522438Y-65810476D01*
X127522438Y-65810476D02*
X127427200Y-65905714D01*
X127427200Y-65905714D02*
X127284342Y-66048571D01*
X127284342Y-66048571D02*
X127236723Y-66143809D01*
X127236723Y-66143809D02*
X127236723Y-66239047D01*
X127474819Y-66191428D02*
X127427200Y-66286666D01*
X127427200Y-66286666D02*
X127331961Y-66381904D01*
X127331961Y-66381904D02*
X127141485Y-66429523D01*
X127141485Y-66429523D02*
X126808152Y-66429523D01*
X126808152Y-66429523D02*
X126617676Y-66381904D01*
X126617676Y-66381904D02*
X126522438Y-66286666D01*
X126522438Y-66286666D02*
X126474819Y-66191428D01*
X126474819Y-66191428D02*
X126474819Y-66000952D01*
X126474819Y-66000952D02*
X126522438Y-65905714D01*
X126522438Y-65905714D02*
X126617676Y-65810476D01*
X126617676Y-65810476D02*
X126808152Y-65762857D01*
X126808152Y-65762857D02*
X127141485Y-65762857D01*
X127141485Y-65762857D02*
X127331961Y-65810476D01*
X127331961Y-65810476D02*
X127427200Y-65905714D01*
X127427200Y-65905714D02*
X127474819Y-66000952D01*
X127474819Y-66000952D02*
X127474819Y-66191428D01*
X126808152Y-64905714D02*
X127474819Y-64905714D01*
X126427200Y-65143809D02*
X127141485Y-65381904D01*
X127141485Y-65381904D02*
X127141485Y-64762857D01*
X92913214Y-87642200D02*
X93056071Y-87689819D01*
X93056071Y-87689819D02*
X93294166Y-87689819D01*
X93294166Y-87689819D02*
X93389404Y-87642200D01*
X93389404Y-87642200D02*
X93437023Y-87594580D01*
X93437023Y-87594580D02*
X93484642Y-87499342D01*
X93484642Y-87499342D02*
X93484642Y-87404104D01*
X93484642Y-87404104D02*
X93437023Y-87308866D01*
X93437023Y-87308866D02*
X93389404Y-87261247D01*
X93389404Y-87261247D02*
X93294166Y-87213628D01*
X93294166Y-87213628D02*
X93103690Y-87166009D01*
X93103690Y-87166009D02*
X93008452Y-87118390D01*
X93008452Y-87118390D02*
X92960833Y-87070771D01*
X92960833Y-87070771D02*
X92913214Y-86975533D01*
X92913214Y-86975533D02*
X92913214Y-86880295D01*
X92913214Y-86880295D02*
X92960833Y-86785057D01*
X92960833Y-86785057D02*
X93008452Y-86737438D01*
X93008452Y-86737438D02*
X93103690Y-86689819D01*
X93103690Y-86689819D02*
X93341785Y-86689819D01*
X93341785Y-86689819D02*
X93484642Y-86737438D01*
X93865595Y-87642200D02*
X94008452Y-87689819D01*
X94008452Y-87689819D02*
X94246547Y-87689819D01*
X94246547Y-87689819D02*
X94341785Y-87642200D01*
X94341785Y-87642200D02*
X94389404Y-87594580D01*
X94389404Y-87594580D02*
X94437023Y-87499342D01*
X94437023Y-87499342D02*
X94437023Y-87404104D01*
X94437023Y-87404104D02*
X94389404Y-87308866D01*
X94389404Y-87308866D02*
X94341785Y-87261247D01*
X94341785Y-87261247D02*
X94246547Y-87213628D01*
X94246547Y-87213628D02*
X94056071Y-87166009D01*
X94056071Y-87166009D02*
X93960833Y-87118390D01*
X93960833Y-87118390D02*
X93913214Y-87070771D01*
X93913214Y-87070771D02*
X93865595Y-86975533D01*
X93865595Y-86975533D02*
X93865595Y-86880295D01*
X93865595Y-86880295D02*
X93913214Y-86785057D01*
X93913214Y-86785057D02*
X93960833Y-86737438D01*
X93960833Y-86737438D02*
X94056071Y-86689819D01*
X94056071Y-86689819D02*
X94294166Y-86689819D01*
X94294166Y-86689819D02*
X94437023Y-86737438D01*
X94770357Y-86689819D02*
X95389404Y-86689819D01*
X95389404Y-86689819D02*
X95056071Y-87070771D01*
X95056071Y-87070771D02*
X95198928Y-87070771D01*
X95198928Y-87070771D02*
X95294166Y-87118390D01*
X95294166Y-87118390D02*
X95341785Y-87166009D01*
X95341785Y-87166009D02*
X95389404Y-87261247D01*
X95389404Y-87261247D02*
X95389404Y-87499342D01*
X95389404Y-87499342D02*
X95341785Y-87594580D01*
X95341785Y-87594580D02*
X95294166Y-87642200D01*
X95294166Y-87642200D02*
X95198928Y-87689819D01*
X95198928Y-87689819D02*
X94913214Y-87689819D01*
X94913214Y-87689819D02*
X94817976Y-87642200D01*
X94817976Y-87642200D02*
X94770357Y-87594580D01*
X96246547Y-87023152D02*
X96246547Y-87689819D01*
X96008452Y-86642200D02*
X95770357Y-87356485D01*
X95770357Y-87356485D02*
X96389404Y-87356485D01*
X93889405Y-82589819D02*
X93889405Y-81589819D01*
X93889405Y-81589819D02*
X94127500Y-81589819D01*
X94127500Y-81589819D02*
X94270357Y-81637438D01*
X94270357Y-81637438D02*
X94365595Y-81732676D01*
X94365595Y-81732676D02*
X94413214Y-81827914D01*
X94413214Y-81827914D02*
X94460833Y-82018390D01*
X94460833Y-82018390D02*
X94460833Y-82161247D01*
X94460833Y-82161247D02*
X94413214Y-82351723D01*
X94413214Y-82351723D02*
X94365595Y-82446961D01*
X94365595Y-82446961D02*
X94270357Y-82542200D01*
X94270357Y-82542200D02*
X94127500Y-82589819D01*
X94127500Y-82589819D02*
X93889405Y-82589819D01*
X94841786Y-81685057D02*
X94889405Y-81637438D01*
X94889405Y-81637438D02*
X94984643Y-81589819D01*
X94984643Y-81589819D02*
X95222738Y-81589819D01*
X95222738Y-81589819D02*
X95317976Y-81637438D01*
X95317976Y-81637438D02*
X95365595Y-81685057D01*
X95365595Y-81685057D02*
X95413214Y-81780295D01*
X95413214Y-81780295D02*
X95413214Y-81875533D01*
X95413214Y-81875533D02*
X95365595Y-82018390D01*
X95365595Y-82018390D02*
X94794167Y-82589819D01*
X94794167Y-82589819D02*
X95413214Y-82589819D01*
X96514761Y-76674819D02*
X95943333Y-76674819D01*
X96229047Y-76674819D02*
X96229047Y-75674819D01*
X96229047Y-75674819D02*
X96133809Y-75817676D01*
X96133809Y-75817676D02*
X96038571Y-75912914D01*
X96038571Y-75912914D02*
X95943333Y-75960533D01*
X97133809Y-75674819D02*
X97229047Y-75674819D01*
X97229047Y-75674819D02*
X97324285Y-75722438D01*
X97324285Y-75722438D02*
X97371904Y-75770057D01*
X97371904Y-75770057D02*
X97419523Y-75865295D01*
X97419523Y-75865295D02*
X97467142Y-76055771D01*
X97467142Y-76055771D02*
X97467142Y-76293866D01*
X97467142Y-76293866D02*
X97419523Y-76484342D01*
X97419523Y-76484342D02*
X97371904Y-76579580D01*
X97371904Y-76579580D02*
X97324285Y-76627200D01*
X97324285Y-76627200D02*
X97229047Y-76674819D01*
X97229047Y-76674819D02*
X97133809Y-76674819D01*
X97133809Y-76674819D02*
X97038571Y-76627200D01*
X97038571Y-76627200D02*
X96990952Y-76579580D01*
X96990952Y-76579580D02*
X96943333Y-76484342D01*
X96943333Y-76484342D02*
X96895714Y-76293866D01*
X96895714Y-76293866D02*
X96895714Y-76055771D01*
X96895714Y-76055771D02*
X96943333Y-75865295D01*
X96943333Y-75865295D02*
X96990952Y-75770057D01*
X96990952Y-75770057D02*
X97038571Y-75722438D01*
X97038571Y-75722438D02*
X97133809Y-75674819D01*
X97895714Y-76674819D02*
X97895714Y-75674819D01*
X97990952Y-76293866D02*
X98276666Y-76674819D01*
X98276666Y-76008152D02*
X97895714Y-76389104D01*
X96467142Y-74474819D02*
X96133809Y-73998628D01*
X95895714Y-74474819D02*
X95895714Y-73474819D01*
X95895714Y-73474819D02*
X96276666Y-73474819D01*
X96276666Y-73474819D02*
X96371904Y-73522438D01*
X96371904Y-73522438D02*
X96419523Y-73570057D01*
X96419523Y-73570057D02*
X96467142Y-73665295D01*
X96467142Y-73665295D02*
X96467142Y-73808152D01*
X96467142Y-73808152D02*
X96419523Y-73903390D01*
X96419523Y-73903390D02*
X96371904Y-73951009D01*
X96371904Y-73951009D02*
X96276666Y-73998628D01*
X96276666Y-73998628D02*
X95895714Y-73998628D01*
X97419523Y-74474819D02*
X96848095Y-74474819D01*
X97133809Y-74474819D02*
X97133809Y-73474819D01*
X97133809Y-73474819D02*
X97038571Y-73617676D01*
X97038571Y-73617676D02*
X96943333Y-73712914D01*
X96943333Y-73712914D02*
X96848095Y-73760533D01*
X98371904Y-74474819D02*
X97800476Y-74474819D01*
X98086190Y-74474819D02*
X98086190Y-73474819D01*
X98086190Y-73474819D02*
X97990952Y-73617676D01*
X97990952Y-73617676D02*
X97895714Y-73712914D01*
X97895714Y-73712914D02*
X97800476Y-73760533D01*
X125329048Y-96004819D02*
X125329048Y-95004819D01*
X125805238Y-96004819D02*
X125805238Y-95004819D01*
X125805238Y-95004819D02*
X126376666Y-96004819D01*
X126376666Y-96004819D02*
X126376666Y-95004819D01*
X126805238Y-95719104D02*
X127281428Y-95719104D01*
X126710000Y-96004819D02*
X127043333Y-95004819D01*
X127043333Y-95004819D02*
X127376666Y-96004819D01*
X127662381Y-95100057D02*
X127710000Y-95052438D01*
X127710000Y-95052438D02*
X127805238Y-95004819D01*
X127805238Y-95004819D02*
X128043333Y-95004819D01*
X128043333Y-95004819D02*
X128138571Y-95052438D01*
X128138571Y-95052438D02*
X128186190Y-95100057D01*
X128186190Y-95100057D02*
X128233809Y-95195295D01*
X128233809Y-95195295D02*
X128233809Y-95290533D01*
X128233809Y-95290533D02*
X128186190Y-95433390D01*
X128186190Y-95433390D02*
X127614762Y-96004819D01*
X127614762Y-96004819D02*
X128233809Y-96004819D01*
X129090952Y-95004819D02*
X128900476Y-95004819D01*
X128900476Y-95004819D02*
X128805238Y-95052438D01*
X128805238Y-95052438D02*
X128757619Y-95100057D01*
X128757619Y-95100057D02*
X128662381Y-95242914D01*
X128662381Y-95242914D02*
X128614762Y-95433390D01*
X128614762Y-95433390D02*
X128614762Y-95814342D01*
X128614762Y-95814342D02*
X128662381Y-95909580D01*
X128662381Y-95909580D02*
X128710000Y-95957200D01*
X128710000Y-95957200D02*
X128805238Y-96004819D01*
X128805238Y-96004819D02*
X128995714Y-96004819D01*
X128995714Y-96004819D02*
X129090952Y-95957200D01*
X129090952Y-95957200D02*
X129138571Y-95909580D01*
X129138571Y-95909580D02*
X129186190Y-95814342D01*
X129186190Y-95814342D02*
X129186190Y-95576247D01*
X129186190Y-95576247D02*
X129138571Y-95481009D01*
X129138571Y-95481009D02*
X129090952Y-95433390D01*
X129090952Y-95433390D02*
X128995714Y-95385771D01*
X128995714Y-95385771D02*
X128805238Y-95385771D01*
X128805238Y-95385771D02*
X128710000Y-95433390D01*
X128710000Y-95433390D02*
X128662381Y-95481009D01*
X128662381Y-95481009D02*
X128614762Y-95576247D01*
X129805238Y-95004819D02*
X129900476Y-95004819D01*
X129900476Y-95004819D02*
X129995714Y-95052438D01*
X129995714Y-95052438D02*
X130043333Y-95100057D01*
X130043333Y-95100057D02*
X130090952Y-95195295D01*
X130090952Y-95195295D02*
X130138571Y-95385771D01*
X130138571Y-95385771D02*
X130138571Y-95623866D01*
X130138571Y-95623866D02*
X130090952Y-95814342D01*
X130090952Y-95814342D02*
X130043333Y-95909580D01*
X130043333Y-95909580D02*
X129995714Y-95957200D01*
X129995714Y-95957200D02*
X129900476Y-96004819D01*
X129900476Y-96004819D02*
X129805238Y-96004819D01*
X129805238Y-96004819D02*
X129710000Y-95957200D01*
X129710000Y-95957200D02*
X129662381Y-95909580D01*
X129662381Y-95909580D02*
X129614762Y-95814342D01*
X129614762Y-95814342D02*
X129567143Y-95623866D01*
X129567143Y-95623866D02*
X129567143Y-95385771D01*
X129567143Y-95385771D02*
X129614762Y-95195295D01*
X129614762Y-95195295D02*
X129662381Y-95100057D01*
X129662381Y-95100057D02*
X129710000Y-95052438D01*
X129710000Y-95052438D02*
X129805238Y-95004819D01*
X126948095Y-91554819D02*
X126948095Y-92364342D01*
X126948095Y-92364342D02*
X126995714Y-92459580D01*
X126995714Y-92459580D02*
X127043333Y-92507200D01*
X127043333Y-92507200D02*
X127138571Y-92554819D01*
X127138571Y-92554819D02*
X127329047Y-92554819D01*
X127329047Y-92554819D02*
X127424285Y-92507200D01*
X127424285Y-92507200D02*
X127471904Y-92459580D01*
X127471904Y-92459580D02*
X127519523Y-92364342D01*
X127519523Y-92364342D02*
X127519523Y-91554819D01*
X128471904Y-91554819D02*
X127995714Y-91554819D01*
X127995714Y-91554819D02*
X127948095Y-92031009D01*
X127948095Y-92031009D02*
X127995714Y-91983390D01*
X127995714Y-91983390D02*
X128090952Y-91935771D01*
X128090952Y-91935771D02*
X128329047Y-91935771D01*
X128329047Y-91935771D02*
X128424285Y-91983390D01*
X128424285Y-91983390D02*
X128471904Y-92031009D01*
X128471904Y-92031009D02*
X128519523Y-92126247D01*
X128519523Y-92126247D02*
X128519523Y-92364342D01*
X128519523Y-92364342D02*
X128471904Y-92459580D01*
X128471904Y-92459580D02*
X128424285Y-92507200D01*
X128424285Y-92507200D02*
X128329047Y-92554819D01*
X128329047Y-92554819D02*
X128090952Y-92554819D01*
X128090952Y-92554819D02*
X127995714Y-92507200D01*
X127995714Y-92507200D02*
X127948095Y-92459580D01*
X90108570Y-53227200D02*
X90251427Y-53274819D01*
X90251427Y-53274819D02*
X90489522Y-53274819D01*
X90489522Y-53274819D02*
X90584760Y-53227200D01*
X90584760Y-53227200D02*
X90632379Y-53179580D01*
X90632379Y-53179580D02*
X90679998Y-53084342D01*
X90679998Y-53084342D02*
X90679998Y-52989104D01*
X90679998Y-52989104D02*
X90632379Y-52893866D01*
X90632379Y-52893866D02*
X90584760Y-52846247D01*
X90584760Y-52846247D02*
X90489522Y-52798628D01*
X90489522Y-52798628D02*
X90299046Y-52751009D01*
X90299046Y-52751009D02*
X90203808Y-52703390D01*
X90203808Y-52703390D02*
X90156189Y-52655771D01*
X90156189Y-52655771D02*
X90108570Y-52560533D01*
X90108570Y-52560533D02*
X90108570Y-52465295D01*
X90108570Y-52465295D02*
X90156189Y-52370057D01*
X90156189Y-52370057D02*
X90203808Y-52322438D01*
X90203808Y-52322438D02*
X90299046Y-52274819D01*
X90299046Y-52274819D02*
X90537141Y-52274819D01*
X90537141Y-52274819D02*
X90679998Y-52322438D01*
X91537141Y-53227200D02*
X91441903Y-53274819D01*
X91441903Y-53274819D02*
X91251427Y-53274819D01*
X91251427Y-53274819D02*
X91156189Y-53227200D01*
X91156189Y-53227200D02*
X91108570Y-53179580D01*
X91108570Y-53179580D02*
X91060951Y-53084342D01*
X91060951Y-53084342D02*
X91060951Y-52798628D01*
X91060951Y-52798628D02*
X91108570Y-52703390D01*
X91108570Y-52703390D02*
X91156189Y-52655771D01*
X91156189Y-52655771D02*
X91251427Y-52608152D01*
X91251427Y-52608152D02*
X91441903Y-52608152D01*
X91441903Y-52608152D02*
X91537141Y-52655771D01*
X91965713Y-53274819D02*
X91965713Y-52608152D01*
X91965713Y-52798628D02*
X92013332Y-52703390D01*
X92013332Y-52703390D02*
X92060951Y-52655771D01*
X92060951Y-52655771D02*
X92156189Y-52608152D01*
X92156189Y-52608152D02*
X92251427Y-52608152D01*
X92965713Y-53227200D02*
X92870475Y-53274819D01*
X92870475Y-53274819D02*
X92679999Y-53274819D01*
X92679999Y-53274819D02*
X92584761Y-53227200D01*
X92584761Y-53227200D02*
X92537142Y-53131961D01*
X92537142Y-53131961D02*
X92537142Y-52751009D01*
X92537142Y-52751009D02*
X92584761Y-52655771D01*
X92584761Y-52655771D02*
X92679999Y-52608152D01*
X92679999Y-52608152D02*
X92870475Y-52608152D01*
X92870475Y-52608152D02*
X92965713Y-52655771D01*
X92965713Y-52655771D02*
X93013332Y-52751009D01*
X93013332Y-52751009D02*
X93013332Y-52846247D01*
X93013332Y-52846247D02*
X92537142Y-52941485D01*
X93346666Y-52608152D02*
X93537142Y-53274819D01*
X93537142Y-53274819D02*
X93727618Y-52798628D01*
X93727618Y-52798628D02*
X93918094Y-53274819D01*
X93918094Y-53274819D02*
X94108570Y-52608152D01*
X94251428Y-53370057D02*
X95013332Y-53370057D01*
X95108571Y-52274819D02*
X95679999Y-52274819D01*
X95394285Y-53274819D02*
X95394285Y-52274819D01*
X96394285Y-53227200D02*
X96299047Y-53274819D01*
X96299047Y-53274819D02*
X96108571Y-53274819D01*
X96108571Y-53274819D02*
X96013333Y-53227200D01*
X96013333Y-53227200D02*
X95965714Y-53131961D01*
X95965714Y-53131961D02*
X95965714Y-52751009D01*
X95965714Y-52751009D02*
X96013333Y-52655771D01*
X96013333Y-52655771D02*
X96108571Y-52608152D01*
X96108571Y-52608152D02*
X96299047Y-52608152D01*
X96299047Y-52608152D02*
X96394285Y-52655771D01*
X96394285Y-52655771D02*
X96441904Y-52751009D01*
X96441904Y-52751009D02*
X96441904Y-52846247D01*
X96441904Y-52846247D02*
X95965714Y-52941485D01*
X96870476Y-53274819D02*
X96870476Y-52608152D01*
X96870476Y-52798628D02*
X96918095Y-52703390D01*
X96918095Y-52703390D02*
X96965714Y-52655771D01*
X96965714Y-52655771D02*
X97060952Y-52608152D01*
X97060952Y-52608152D02*
X97156190Y-52608152D01*
X97489524Y-53274819D02*
X97489524Y-52608152D01*
X97489524Y-52703390D02*
X97537143Y-52655771D01*
X97537143Y-52655771D02*
X97632381Y-52608152D01*
X97632381Y-52608152D02*
X97775238Y-52608152D01*
X97775238Y-52608152D02*
X97870476Y-52655771D01*
X97870476Y-52655771D02*
X97918095Y-52751009D01*
X97918095Y-52751009D02*
X97918095Y-53274819D01*
X97918095Y-52751009D02*
X97965714Y-52655771D01*
X97965714Y-52655771D02*
X98060952Y-52608152D01*
X98060952Y-52608152D02*
X98203809Y-52608152D01*
X98203809Y-52608152D02*
X98299048Y-52655771D01*
X98299048Y-52655771D02*
X98346667Y-52751009D01*
X98346667Y-52751009D02*
X98346667Y-53274819D01*
X98822857Y-53274819D02*
X98822857Y-52608152D01*
X98822857Y-52274819D02*
X98775238Y-52322438D01*
X98775238Y-52322438D02*
X98822857Y-52370057D01*
X98822857Y-52370057D02*
X98870476Y-52322438D01*
X98870476Y-52322438D02*
X98822857Y-52274819D01*
X98822857Y-52274819D02*
X98822857Y-52370057D01*
X99299047Y-52608152D02*
X99299047Y-53274819D01*
X99299047Y-52703390D02*
X99346666Y-52655771D01*
X99346666Y-52655771D02*
X99441904Y-52608152D01*
X99441904Y-52608152D02*
X99584761Y-52608152D01*
X99584761Y-52608152D02*
X99679999Y-52655771D01*
X99679999Y-52655771D02*
X99727618Y-52751009D01*
X99727618Y-52751009D02*
X99727618Y-53274819D01*
X100632380Y-53274819D02*
X100632380Y-52751009D01*
X100632380Y-52751009D02*
X100584761Y-52655771D01*
X100584761Y-52655771D02*
X100489523Y-52608152D01*
X100489523Y-52608152D02*
X100299047Y-52608152D01*
X100299047Y-52608152D02*
X100203809Y-52655771D01*
X100632380Y-53227200D02*
X100537142Y-53274819D01*
X100537142Y-53274819D02*
X100299047Y-53274819D01*
X100299047Y-53274819D02*
X100203809Y-53227200D01*
X100203809Y-53227200D02*
X100156190Y-53131961D01*
X100156190Y-53131961D02*
X100156190Y-53036723D01*
X100156190Y-53036723D02*
X100203809Y-52941485D01*
X100203809Y-52941485D02*
X100299047Y-52893866D01*
X100299047Y-52893866D02*
X100537142Y-52893866D01*
X100537142Y-52893866D02*
X100632380Y-52846247D01*
X101251428Y-53274819D02*
X101156190Y-53227200D01*
X101156190Y-53227200D02*
X101108571Y-53131961D01*
X101108571Y-53131961D02*
X101108571Y-52274819D01*
X101394286Y-53370057D02*
X102156190Y-53370057D01*
X102584762Y-52274819D02*
X102680000Y-52274819D01*
X102680000Y-52274819D02*
X102775238Y-52322438D01*
X102775238Y-52322438D02*
X102822857Y-52370057D01*
X102822857Y-52370057D02*
X102870476Y-52465295D01*
X102870476Y-52465295D02*
X102918095Y-52655771D01*
X102918095Y-52655771D02*
X102918095Y-52893866D01*
X102918095Y-52893866D02*
X102870476Y-53084342D01*
X102870476Y-53084342D02*
X102822857Y-53179580D01*
X102822857Y-53179580D02*
X102775238Y-53227200D01*
X102775238Y-53227200D02*
X102680000Y-53274819D01*
X102680000Y-53274819D02*
X102584762Y-53274819D01*
X102584762Y-53274819D02*
X102489524Y-53227200D01*
X102489524Y-53227200D02*
X102441905Y-53179580D01*
X102441905Y-53179580D02*
X102394286Y-53084342D01*
X102394286Y-53084342D02*
X102346667Y-52893866D01*
X102346667Y-52893866D02*
X102346667Y-52655771D01*
X102346667Y-52655771D02*
X102394286Y-52465295D01*
X102394286Y-52465295D02*
X102441905Y-52370057D01*
X102441905Y-52370057D02*
X102489524Y-52322438D01*
X102489524Y-52322438D02*
X102584762Y-52274819D01*
X103870476Y-53274819D02*
X103299048Y-53274819D01*
X103584762Y-53274819D02*
X103584762Y-52274819D01*
X103584762Y-52274819D02*
X103489524Y-52417676D01*
X103489524Y-52417676D02*
X103394286Y-52512914D01*
X103394286Y-52512914D02*
X103299048Y-52560533D01*
X104203810Y-53274819D02*
X104727619Y-52608152D01*
X104203810Y-52608152D02*
X104727619Y-53274819D01*
X105299048Y-52274819D02*
X105394286Y-52274819D01*
X105394286Y-52274819D02*
X105489524Y-52322438D01*
X105489524Y-52322438D02*
X105537143Y-52370057D01*
X105537143Y-52370057D02*
X105584762Y-52465295D01*
X105584762Y-52465295D02*
X105632381Y-52655771D01*
X105632381Y-52655771D02*
X105632381Y-52893866D01*
X105632381Y-52893866D02*
X105584762Y-53084342D01*
X105584762Y-53084342D02*
X105537143Y-53179580D01*
X105537143Y-53179580D02*
X105489524Y-53227200D01*
X105489524Y-53227200D02*
X105394286Y-53274819D01*
X105394286Y-53274819D02*
X105299048Y-53274819D01*
X105299048Y-53274819D02*
X105203810Y-53227200D01*
X105203810Y-53227200D02*
X105156191Y-53179580D01*
X105156191Y-53179580D02*
X105108572Y-53084342D01*
X105108572Y-53084342D02*
X105060953Y-52893866D01*
X105060953Y-52893866D02*
X105060953Y-52655771D01*
X105060953Y-52655771D02*
X105108572Y-52465295D01*
X105108572Y-52465295D02*
X105156191Y-52370057D01*
X105156191Y-52370057D02*
X105203810Y-52322438D01*
X105203810Y-52322438D02*
X105299048Y-52274819D01*
X106013334Y-52370057D02*
X106060953Y-52322438D01*
X106060953Y-52322438D02*
X106156191Y-52274819D01*
X106156191Y-52274819D02*
X106394286Y-52274819D01*
X106394286Y-52274819D02*
X106489524Y-52322438D01*
X106489524Y-52322438D02*
X106537143Y-52370057D01*
X106537143Y-52370057D02*
X106584762Y-52465295D01*
X106584762Y-52465295D02*
X106584762Y-52560533D01*
X106584762Y-52560533D02*
X106537143Y-52703390D01*
X106537143Y-52703390D02*
X105965715Y-53274819D01*
X105965715Y-53274819D02*
X106584762Y-53274819D01*
X107299048Y-53655771D02*
X107251429Y-53608152D01*
X107251429Y-53608152D02*
X107156191Y-53465295D01*
X107156191Y-53465295D02*
X107108572Y-53370057D01*
X107108572Y-53370057D02*
X107060953Y-53227200D01*
X107060953Y-53227200D02*
X107013334Y-52989104D01*
X107013334Y-52989104D02*
X107013334Y-52798628D01*
X107013334Y-52798628D02*
X107060953Y-52560533D01*
X107060953Y-52560533D02*
X107108572Y-52417676D01*
X107108572Y-52417676D02*
X107156191Y-52322438D01*
X107156191Y-52322438D02*
X107251429Y-52179580D01*
X107251429Y-52179580D02*
X107299048Y-52131961D01*
X107680001Y-52608152D02*
X107680001Y-53608152D01*
X107680001Y-52655771D02*
X107775239Y-52608152D01*
X107775239Y-52608152D02*
X107965715Y-52608152D01*
X107965715Y-52608152D02*
X108060953Y-52655771D01*
X108060953Y-52655771D02*
X108108572Y-52703390D01*
X108108572Y-52703390D02*
X108156191Y-52798628D01*
X108156191Y-52798628D02*
X108156191Y-53084342D01*
X108156191Y-53084342D02*
X108108572Y-53179580D01*
X108108572Y-53179580D02*
X108060953Y-53227200D01*
X108060953Y-53227200D02*
X107965715Y-53274819D01*
X107965715Y-53274819D02*
X107775239Y-53274819D01*
X107775239Y-53274819D02*
X107680001Y-53227200D01*
X108727620Y-53274819D02*
X108632382Y-53227200D01*
X108632382Y-53227200D02*
X108584763Y-53179580D01*
X108584763Y-53179580D02*
X108537144Y-53084342D01*
X108537144Y-53084342D02*
X108537144Y-52798628D01*
X108537144Y-52798628D02*
X108584763Y-52703390D01*
X108584763Y-52703390D02*
X108632382Y-52655771D01*
X108632382Y-52655771D02*
X108727620Y-52608152D01*
X108727620Y-52608152D02*
X108870477Y-52608152D01*
X108870477Y-52608152D02*
X108965715Y-52655771D01*
X108965715Y-52655771D02*
X109013334Y-52703390D01*
X109013334Y-52703390D02*
X109060953Y-52798628D01*
X109060953Y-52798628D02*
X109060953Y-53084342D01*
X109060953Y-53084342D02*
X109013334Y-53179580D01*
X109013334Y-53179580D02*
X108965715Y-53227200D01*
X108965715Y-53227200D02*
X108870477Y-53274819D01*
X108870477Y-53274819D02*
X108727620Y-53274819D01*
X109394287Y-52608152D02*
X109584763Y-53274819D01*
X109584763Y-53274819D02*
X109775239Y-52798628D01*
X109775239Y-52798628D02*
X109965715Y-53274819D01*
X109965715Y-53274819D02*
X110156191Y-52608152D01*
X110918096Y-53227200D02*
X110822858Y-53274819D01*
X110822858Y-53274819D02*
X110632382Y-53274819D01*
X110632382Y-53274819D02*
X110537144Y-53227200D01*
X110537144Y-53227200D02*
X110489525Y-53131961D01*
X110489525Y-53131961D02*
X110489525Y-52751009D01*
X110489525Y-52751009D02*
X110537144Y-52655771D01*
X110537144Y-52655771D02*
X110632382Y-52608152D01*
X110632382Y-52608152D02*
X110822858Y-52608152D01*
X110822858Y-52608152D02*
X110918096Y-52655771D01*
X110918096Y-52655771D02*
X110965715Y-52751009D01*
X110965715Y-52751009D02*
X110965715Y-52846247D01*
X110965715Y-52846247D02*
X110489525Y-52941485D01*
X111394287Y-53274819D02*
X111394287Y-52608152D01*
X111394287Y-52798628D02*
X111441906Y-52703390D01*
X111441906Y-52703390D02*
X111489525Y-52655771D01*
X111489525Y-52655771D02*
X111584763Y-52608152D01*
X111584763Y-52608152D02*
X111680001Y-52608152D01*
X111918097Y-53655771D02*
X111965716Y-53608152D01*
X111965716Y-53608152D02*
X112060954Y-53465295D01*
X112060954Y-53465295D02*
X112108573Y-53370057D01*
X112108573Y-53370057D02*
X112156192Y-53227200D01*
X112156192Y-53227200D02*
X112203811Y-52989104D01*
X112203811Y-52989104D02*
X112203811Y-52798628D01*
X112203811Y-52798628D02*
X112156192Y-52560533D01*
X112156192Y-52560533D02*
X112108573Y-52417676D01*
X112108573Y-52417676D02*
X112060954Y-52322438D01*
X112060954Y-52322438D02*
X111965716Y-52179580D01*
X111965716Y-52179580D02*
X111918097Y-52131961D01*
X100846666Y-49904819D02*
X100846666Y-50619104D01*
X100846666Y-50619104D02*
X100799047Y-50761961D01*
X100799047Y-50761961D02*
X100703809Y-50857200D01*
X100703809Y-50857200D02*
X100560952Y-50904819D01*
X100560952Y-50904819D02*
X100465714Y-50904819D01*
X101275238Y-50000057D02*
X101322857Y-49952438D01*
X101322857Y-49952438D02*
X101418095Y-49904819D01*
X101418095Y-49904819D02*
X101656190Y-49904819D01*
X101656190Y-49904819D02*
X101751428Y-49952438D01*
X101751428Y-49952438D02*
X101799047Y-50000057D01*
X101799047Y-50000057D02*
X101846666Y-50095295D01*
X101846666Y-50095295D02*
X101846666Y-50190533D01*
X101846666Y-50190533D02*
X101799047Y-50333390D01*
X101799047Y-50333390D02*
X101227619Y-50904819D01*
X101227619Y-50904819D02*
X101846666Y-50904819D01*
X165464819Y-107466666D02*
X165464819Y-108038094D01*
X165464819Y-107752380D02*
X164464819Y-107752380D01*
X164464819Y-107752380D02*
X164607676Y-107847618D01*
X164607676Y-107847618D02*
X164702914Y-107942856D01*
X164702914Y-107942856D02*
X164750533Y-108038094D01*
X164464819Y-106847618D02*
X164464819Y-106752380D01*
X164464819Y-106752380D02*
X164512438Y-106657142D01*
X164512438Y-106657142D02*
X164560057Y-106609523D01*
X164560057Y-106609523D02*
X164655295Y-106561904D01*
X164655295Y-106561904D02*
X164845771Y-106514285D01*
X164845771Y-106514285D02*
X165083866Y-106514285D01*
X165083866Y-106514285D02*
X165274342Y-106561904D01*
X165274342Y-106561904D02*
X165369580Y-106609523D01*
X165369580Y-106609523D02*
X165417200Y-106657142D01*
X165417200Y-106657142D02*
X165464819Y-106752380D01*
X165464819Y-106752380D02*
X165464819Y-106847618D01*
X165464819Y-106847618D02*
X165417200Y-106942856D01*
X165417200Y-106942856D02*
X165369580Y-106990475D01*
X165369580Y-106990475D02*
X165274342Y-107038094D01*
X165274342Y-107038094D02*
X165083866Y-107085713D01*
X165083866Y-107085713D02*
X164845771Y-107085713D01*
X164845771Y-107085713D02*
X164655295Y-107038094D01*
X164655295Y-107038094D02*
X164560057Y-106990475D01*
X164560057Y-106990475D02*
X164512438Y-106942856D01*
X164512438Y-106942856D02*
X164464819Y-106847618D01*
X164464819Y-105895237D02*
X164464819Y-105799999D01*
X164464819Y-105799999D02*
X164512438Y-105704761D01*
X164512438Y-105704761D02*
X164560057Y-105657142D01*
X164560057Y-105657142D02*
X164655295Y-105609523D01*
X164655295Y-105609523D02*
X164845771Y-105561904D01*
X164845771Y-105561904D02*
X165083866Y-105561904D01*
X165083866Y-105561904D02*
X165274342Y-105609523D01*
X165274342Y-105609523D02*
X165369580Y-105657142D01*
X165369580Y-105657142D02*
X165417200Y-105704761D01*
X165417200Y-105704761D02*
X165464819Y-105799999D01*
X165464819Y-105799999D02*
X165464819Y-105895237D01*
X165464819Y-105895237D02*
X165417200Y-105990475D01*
X165417200Y-105990475D02*
X165369580Y-106038094D01*
X165369580Y-106038094D02*
X165274342Y-106085713D01*
X165274342Y-106085713D02*
X165083866Y-106133332D01*
X165083866Y-106133332D02*
X164845771Y-106133332D01*
X164845771Y-106133332D02*
X164655295Y-106085713D01*
X164655295Y-106085713D02*
X164560057Y-106038094D01*
X164560057Y-106038094D02*
X164512438Y-105990475D01*
X164512438Y-105990475D02*
X164464819Y-105895237D01*
X167664819Y-107442857D02*
X167188628Y-107776190D01*
X167664819Y-108014285D02*
X166664819Y-108014285D01*
X166664819Y-108014285D02*
X166664819Y-107633333D01*
X166664819Y-107633333D02*
X166712438Y-107538095D01*
X166712438Y-107538095D02*
X166760057Y-107490476D01*
X166760057Y-107490476D02*
X166855295Y-107442857D01*
X166855295Y-107442857D02*
X166998152Y-107442857D01*
X166998152Y-107442857D02*
X167093390Y-107490476D01*
X167093390Y-107490476D02*
X167141009Y-107538095D01*
X167141009Y-107538095D02*
X167188628Y-107633333D01*
X167188628Y-107633333D02*
X167188628Y-108014285D01*
X166664819Y-106538095D02*
X166664819Y-107014285D01*
X166664819Y-107014285D02*
X167141009Y-107061904D01*
X167141009Y-107061904D02*
X167093390Y-107014285D01*
X167093390Y-107014285D02*
X167045771Y-106919047D01*
X167045771Y-106919047D02*
X167045771Y-106680952D01*
X167045771Y-106680952D02*
X167093390Y-106585714D01*
X167093390Y-106585714D02*
X167141009Y-106538095D01*
X167141009Y-106538095D02*
X167236247Y-106490476D01*
X167236247Y-106490476D02*
X167474342Y-106490476D01*
X167474342Y-106490476D02*
X167569580Y-106538095D01*
X167569580Y-106538095D02*
X167617200Y-106585714D01*
X167617200Y-106585714D02*
X167664819Y-106680952D01*
X167664819Y-106680952D02*
X167664819Y-106919047D01*
X167664819Y-106919047D02*
X167617200Y-107014285D01*
X167617200Y-107014285D02*
X167569580Y-107061904D01*
X166760057Y-106109523D02*
X166712438Y-106061904D01*
X166712438Y-106061904D02*
X166664819Y-105966666D01*
X166664819Y-105966666D02*
X166664819Y-105728571D01*
X166664819Y-105728571D02*
X166712438Y-105633333D01*
X166712438Y-105633333D02*
X166760057Y-105585714D01*
X166760057Y-105585714D02*
X166855295Y-105538095D01*
X166855295Y-105538095D02*
X166950533Y-105538095D01*
X166950533Y-105538095D02*
X167093390Y-105585714D01*
X167093390Y-105585714D02*
X167664819Y-106157142D01*
X167664819Y-106157142D02*
X167664819Y-105538095D01*
X65664819Y-70905715D02*
X65188628Y-71239048D01*
X65664819Y-71477143D02*
X64664819Y-71477143D01*
X64664819Y-71477143D02*
X64664819Y-71096191D01*
X64664819Y-71096191D02*
X64712438Y-71000953D01*
X64712438Y-71000953D02*
X64760057Y-70953334D01*
X64760057Y-70953334D02*
X64855295Y-70905715D01*
X64855295Y-70905715D02*
X64998152Y-70905715D01*
X64998152Y-70905715D02*
X65093390Y-70953334D01*
X65093390Y-70953334D02*
X65141009Y-71000953D01*
X65141009Y-71000953D02*
X65188628Y-71096191D01*
X65188628Y-71096191D02*
X65188628Y-71477143D01*
X65760057Y-70715239D02*
X65760057Y-69953334D01*
X65664819Y-69715238D02*
X64664819Y-69715238D01*
X64664819Y-69715238D02*
X64664819Y-69334286D01*
X64664819Y-69334286D02*
X64712438Y-69239048D01*
X64712438Y-69239048D02*
X64760057Y-69191429D01*
X64760057Y-69191429D02*
X64855295Y-69143810D01*
X64855295Y-69143810D02*
X64998152Y-69143810D01*
X64998152Y-69143810D02*
X65093390Y-69191429D01*
X65093390Y-69191429D02*
X65141009Y-69239048D01*
X65141009Y-69239048D02*
X65188628Y-69334286D01*
X65188628Y-69334286D02*
X65188628Y-69715238D01*
X65664819Y-68572381D02*
X65617200Y-68667619D01*
X65617200Y-68667619D02*
X65569580Y-68715238D01*
X65569580Y-68715238D02*
X65474342Y-68762857D01*
X65474342Y-68762857D02*
X65188628Y-68762857D01*
X65188628Y-68762857D02*
X65093390Y-68715238D01*
X65093390Y-68715238D02*
X65045771Y-68667619D01*
X65045771Y-68667619D02*
X64998152Y-68572381D01*
X64998152Y-68572381D02*
X64998152Y-68429524D01*
X64998152Y-68429524D02*
X65045771Y-68334286D01*
X65045771Y-68334286D02*
X65093390Y-68286667D01*
X65093390Y-68286667D02*
X65188628Y-68239048D01*
X65188628Y-68239048D02*
X65474342Y-68239048D01*
X65474342Y-68239048D02*
X65569580Y-68286667D01*
X65569580Y-68286667D02*
X65617200Y-68334286D01*
X65617200Y-68334286D02*
X65664819Y-68429524D01*
X65664819Y-68429524D02*
X65664819Y-68572381D01*
X64998152Y-67953333D02*
X64998152Y-67572381D01*
X64664819Y-67810476D02*
X65521961Y-67810476D01*
X65521961Y-67810476D02*
X65617200Y-67762857D01*
X65617200Y-67762857D02*
X65664819Y-67667619D01*
X65664819Y-67667619D02*
X65664819Y-67572381D01*
X65617200Y-66858095D02*
X65664819Y-66953333D01*
X65664819Y-66953333D02*
X65664819Y-67143809D01*
X65664819Y-67143809D02*
X65617200Y-67239047D01*
X65617200Y-67239047D02*
X65521961Y-67286666D01*
X65521961Y-67286666D02*
X65141009Y-67286666D01*
X65141009Y-67286666D02*
X65045771Y-67239047D01*
X65045771Y-67239047D02*
X64998152Y-67143809D01*
X64998152Y-67143809D02*
X64998152Y-66953333D01*
X64998152Y-66953333D02*
X65045771Y-66858095D01*
X65045771Y-66858095D02*
X65141009Y-66810476D01*
X65141009Y-66810476D02*
X65236247Y-66810476D01*
X65236247Y-66810476D02*
X65331485Y-67286666D01*
X64998152Y-66381904D02*
X65664819Y-66381904D01*
X65093390Y-66381904D02*
X65045771Y-66334285D01*
X65045771Y-66334285D02*
X64998152Y-66239047D01*
X64998152Y-66239047D02*
X64998152Y-66096190D01*
X64998152Y-66096190D02*
X65045771Y-66000952D01*
X65045771Y-66000952D02*
X65141009Y-65953333D01*
X65141009Y-65953333D02*
X65664819Y-65953333D01*
X64998152Y-65619999D02*
X64998152Y-65239047D01*
X64664819Y-65477142D02*
X65521961Y-65477142D01*
X65521961Y-65477142D02*
X65617200Y-65429523D01*
X65617200Y-65429523D02*
X65664819Y-65334285D01*
X65664819Y-65334285D02*
X65664819Y-65239047D01*
X65664819Y-64905713D02*
X64998152Y-64905713D01*
X64664819Y-64905713D02*
X64712438Y-64953332D01*
X64712438Y-64953332D02*
X64760057Y-64905713D01*
X64760057Y-64905713D02*
X64712438Y-64858094D01*
X64712438Y-64858094D02*
X64664819Y-64905713D01*
X64664819Y-64905713D02*
X64760057Y-64905713D01*
X65664819Y-64286666D02*
X65617200Y-64381904D01*
X65617200Y-64381904D02*
X65569580Y-64429523D01*
X65569580Y-64429523D02*
X65474342Y-64477142D01*
X65474342Y-64477142D02*
X65188628Y-64477142D01*
X65188628Y-64477142D02*
X65093390Y-64429523D01*
X65093390Y-64429523D02*
X65045771Y-64381904D01*
X65045771Y-64381904D02*
X64998152Y-64286666D01*
X64998152Y-64286666D02*
X64998152Y-64143809D01*
X64998152Y-64143809D02*
X65045771Y-64048571D01*
X65045771Y-64048571D02*
X65093390Y-64000952D01*
X65093390Y-64000952D02*
X65188628Y-63953333D01*
X65188628Y-63953333D02*
X65474342Y-63953333D01*
X65474342Y-63953333D02*
X65569580Y-64000952D01*
X65569580Y-64000952D02*
X65617200Y-64048571D01*
X65617200Y-64048571D02*
X65664819Y-64143809D01*
X65664819Y-64143809D02*
X65664819Y-64286666D01*
X65664819Y-63524761D02*
X64998152Y-63524761D01*
X65093390Y-63524761D02*
X65045771Y-63477142D01*
X65045771Y-63477142D02*
X64998152Y-63381904D01*
X64998152Y-63381904D02*
X64998152Y-63239047D01*
X64998152Y-63239047D02*
X65045771Y-63143809D01*
X65045771Y-63143809D02*
X65141009Y-63096190D01*
X65141009Y-63096190D02*
X65664819Y-63096190D01*
X65141009Y-63096190D02*
X65045771Y-63048571D01*
X65045771Y-63048571D02*
X64998152Y-62953333D01*
X64998152Y-62953333D02*
X64998152Y-62810476D01*
X64998152Y-62810476D02*
X65045771Y-62715237D01*
X65045771Y-62715237D02*
X65141009Y-62667618D01*
X65141009Y-62667618D02*
X65664819Y-62667618D01*
X65617200Y-61810476D02*
X65664819Y-61905714D01*
X65664819Y-61905714D02*
X65664819Y-62096190D01*
X65664819Y-62096190D02*
X65617200Y-62191428D01*
X65617200Y-62191428D02*
X65521961Y-62239047D01*
X65521961Y-62239047D02*
X65141009Y-62239047D01*
X65141009Y-62239047D02*
X65045771Y-62191428D01*
X65045771Y-62191428D02*
X64998152Y-62096190D01*
X64998152Y-62096190D02*
X64998152Y-61905714D01*
X64998152Y-61905714D02*
X65045771Y-61810476D01*
X65045771Y-61810476D02*
X65141009Y-61762857D01*
X65141009Y-61762857D02*
X65236247Y-61762857D01*
X65236247Y-61762857D02*
X65331485Y-62239047D01*
X64998152Y-61477142D02*
X64998152Y-61096190D01*
X64664819Y-61334285D02*
X65521961Y-61334285D01*
X65521961Y-61334285D02*
X65617200Y-61286666D01*
X65617200Y-61286666D02*
X65664819Y-61191428D01*
X65664819Y-61191428D02*
X65664819Y-61096190D01*
X65617200Y-60381904D02*
X65664819Y-60477142D01*
X65664819Y-60477142D02*
X65664819Y-60667618D01*
X65664819Y-60667618D02*
X65617200Y-60762856D01*
X65617200Y-60762856D02*
X65521961Y-60810475D01*
X65521961Y-60810475D02*
X65141009Y-60810475D01*
X65141009Y-60810475D02*
X65045771Y-60762856D01*
X65045771Y-60762856D02*
X64998152Y-60667618D01*
X64998152Y-60667618D02*
X64998152Y-60477142D01*
X64998152Y-60477142D02*
X65045771Y-60381904D01*
X65045771Y-60381904D02*
X65141009Y-60334285D01*
X65141009Y-60334285D02*
X65236247Y-60334285D01*
X65236247Y-60334285D02*
X65331485Y-60810475D01*
X65664819Y-59905713D02*
X64998152Y-59905713D01*
X65188628Y-59905713D02*
X65093390Y-59858094D01*
X65093390Y-59858094D02*
X65045771Y-59810475D01*
X65045771Y-59810475D02*
X64998152Y-59715237D01*
X64998152Y-59715237D02*
X64998152Y-59619999D01*
X69114761Y-63824819D02*
X68781428Y-63348628D01*
X68543333Y-63824819D02*
X68543333Y-62824819D01*
X68543333Y-62824819D02*
X68924285Y-62824819D01*
X68924285Y-62824819D02*
X69019523Y-62872438D01*
X69019523Y-62872438D02*
X69067142Y-62920057D01*
X69067142Y-62920057D02*
X69114761Y-63015295D01*
X69114761Y-63015295D02*
X69114761Y-63158152D01*
X69114761Y-63158152D02*
X69067142Y-63253390D01*
X69067142Y-63253390D02*
X69019523Y-63301009D01*
X69019523Y-63301009D02*
X68924285Y-63348628D01*
X68924285Y-63348628D02*
X68543333Y-63348628D01*
X69400476Y-62824819D02*
X69733809Y-63824819D01*
X69733809Y-63824819D02*
X70067142Y-62824819D01*
X70924285Y-63824819D02*
X70352857Y-63824819D01*
X70638571Y-63824819D02*
X70638571Y-62824819D01*
X70638571Y-62824819D02*
X70543333Y-62967676D01*
X70543333Y-62967676D02*
X70448095Y-63062914D01*
X70448095Y-63062914D02*
X70352857Y-63110533D01*
X137164819Y-78339047D02*
X137164819Y-78910475D01*
X137164819Y-78624761D02*
X136164819Y-78624761D01*
X136164819Y-78624761D02*
X136307676Y-78719999D01*
X136307676Y-78719999D02*
X136402914Y-78815237D01*
X136402914Y-78815237D02*
X136450533Y-78910475D01*
X137164819Y-77910475D02*
X136164819Y-77910475D01*
X136783866Y-77815237D02*
X137164819Y-77529523D01*
X136498152Y-77529523D02*
X136879104Y-77910475D01*
X134964819Y-78862857D02*
X134488628Y-79196190D01*
X134964819Y-79434285D02*
X133964819Y-79434285D01*
X133964819Y-79434285D02*
X133964819Y-79053333D01*
X133964819Y-79053333D02*
X134012438Y-78958095D01*
X134012438Y-78958095D02*
X134060057Y-78910476D01*
X134060057Y-78910476D02*
X134155295Y-78862857D01*
X134155295Y-78862857D02*
X134298152Y-78862857D01*
X134298152Y-78862857D02*
X134393390Y-78910476D01*
X134393390Y-78910476D02*
X134441009Y-78958095D01*
X134441009Y-78958095D02*
X134488628Y-79053333D01*
X134488628Y-79053333D02*
X134488628Y-79434285D01*
X134060057Y-78481904D02*
X134012438Y-78434285D01*
X134012438Y-78434285D02*
X133964819Y-78339047D01*
X133964819Y-78339047D02*
X133964819Y-78100952D01*
X133964819Y-78100952D02*
X134012438Y-78005714D01*
X134012438Y-78005714D02*
X134060057Y-77958095D01*
X134060057Y-77958095D02*
X134155295Y-77910476D01*
X134155295Y-77910476D02*
X134250533Y-77910476D01*
X134250533Y-77910476D02*
X134393390Y-77958095D01*
X134393390Y-77958095D02*
X134964819Y-78529523D01*
X134964819Y-78529523D02*
X134964819Y-77910476D01*
X134298152Y-77053333D02*
X134964819Y-77053333D01*
X133917200Y-77291428D02*
X134631485Y-77529523D01*
X134631485Y-77529523D02*
X134631485Y-76910476D01*
X144190952Y-69474819D02*
X143619524Y-69474819D01*
X143905238Y-69474819D02*
X143905238Y-68474819D01*
X143905238Y-68474819D02*
X143810000Y-68617676D01*
X143810000Y-68617676D02*
X143714762Y-68712914D01*
X143714762Y-68712914D02*
X143619524Y-68760533D01*
X144619524Y-69474819D02*
X144619524Y-68474819D01*
X144714762Y-69093866D02*
X145000476Y-69474819D01*
X145000476Y-68808152D02*
X144619524Y-69189104D01*
X143667142Y-67274819D02*
X143333809Y-66798628D01*
X143095714Y-67274819D02*
X143095714Y-66274819D01*
X143095714Y-66274819D02*
X143476666Y-66274819D01*
X143476666Y-66274819D02*
X143571904Y-66322438D01*
X143571904Y-66322438D02*
X143619523Y-66370057D01*
X143619523Y-66370057D02*
X143667142Y-66465295D01*
X143667142Y-66465295D02*
X143667142Y-66608152D01*
X143667142Y-66608152D02*
X143619523Y-66703390D01*
X143619523Y-66703390D02*
X143571904Y-66751009D01*
X143571904Y-66751009D02*
X143476666Y-66798628D01*
X143476666Y-66798628D02*
X143095714Y-66798628D01*
X144048095Y-66370057D02*
X144095714Y-66322438D01*
X144095714Y-66322438D02*
X144190952Y-66274819D01*
X144190952Y-66274819D02*
X144429047Y-66274819D01*
X144429047Y-66274819D02*
X144524285Y-66322438D01*
X144524285Y-66322438D02*
X144571904Y-66370057D01*
X144571904Y-66370057D02*
X144619523Y-66465295D01*
X144619523Y-66465295D02*
X144619523Y-66560533D01*
X144619523Y-66560533D02*
X144571904Y-66703390D01*
X144571904Y-66703390D02*
X144000476Y-67274819D01*
X144000476Y-67274819D02*
X144619523Y-67274819D01*
X144952857Y-66274819D02*
X145571904Y-66274819D01*
X145571904Y-66274819D02*
X145238571Y-66655771D01*
X145238571Y-66655771D02*
X145381428Y-66655771D01*
X145381428Y-66655771D02*
X145476666Y-66703390D01*
X145476666Y-66703390D02*
X145524285Y-66751009D01*
X145524285Y-66751009D02*
X145571904Y-66846247D01*
X145571904Y-66846247D02*
X145571904Y-67084342D01*
X145571904Y-67084342D02*
X145524285Y-67179580D01*
X145524285Y-67179580D02*
X145476666Y-67227200D01*
X145476666Y-67227200D02*
X145381428Y-67274819D01*
X145381428Y-67274819D02*
X145095714Y-67274819D01*
X145095714Y-67274819D02*
X145000476Y-67227200D01*
X145000476Y-67227200D02*
X144952857Y-67179580D01*
X97394819Y-65364047D02*
X97394819Y-65935475D01*
X97394819Y-65649761D02*
X96394819Y-65649761D01*
X96394819Y-65649761D02*
X96537676Y-65744999D01*
X96537676Y-65744999D02*
X96632914Y-65840237D01*
X96632914Y-65840237D02*
X96680533Y-65935475D01*
X96394819Y-64744999D02*
X96394819Y-64649761D01*
X96394819Y-64649761D02*
X96442438Y-64554523D01*
X96442438Y-64554523D02*
X96490057Y-64506904D01*
X96490057Y-64506904D02*
X96585295Y-64459285D01*
X96585295Y-64459285D02*
X96775771Y-64411666D01*
X96775771Y-64411666D02*
X97013866Y-64411666D01*
X97013866Y-64411666D02*
X97204342Y-64459285D01*
X97204342Y-64459285D02*
X97299580Y-64506904D01*
X97299580Y-64506904D02*
X97347200Y-64554523D01*
X97347200Y-64554523D02*
X97394819Y-64649761D01*
X97394819Y-64649761D02*
X97394819Y-64744999D01*
X97394819Y-64744999D02*
X97347200Y-64840237D01*
X97347200Y-64840237D02*
X97299580Y-64887856D01*
X97299580Y-64887856D02*
X97204342Y-64935475D01*
X97204342Y-64935475D02*
X97013866Y-64983094D01*
X97013866Y-64983094D02*
X96775771Y-64983094D01*
X96775771Y-64983094D02*
X96585295Y-64935475D01*
X96585295Y-64935475D02*
X96490057Y-64887856D01*
X96490057Y-64887856D02*
X96442438Y-64840237D01*
X96442438Y-64840237D02*
X96394819Y-64744999D01*
X96394819Y-63792618D02*
X96394819Y-63697380D01*
X96394819Y-63697380D02*
X96442438Y-63602142D01*
X96442438Y-63602142D02*
X96490057Y-63554523D01*
X96490057Y-63554523D02*
X96585295Y-63506904D01*
X96585295Y-63506904D02*
X96775771Y-63459285D01*
X96775771Y-63459285D02*
X97013866Y-63459285D01*
X97013866Y-63459285D02*
X97204342Y-63506904D01*
X97204342Y-63506904D02*
X97299580Y-63554523D01*
X97299580Y-63554523D02*
X97347200Y-63602142D01*
X97347200Y-63602142D02*
X97394819Y-63697380D01*
X97394819Y-63697380D02*
X97394819Y-63792618D01*
X97394819Y-63792618D02*
X97347200Y-63887856D01*
X97347200Y-63887856D02*
X97299580Y-63935475D01*
X97299580Y-63935475D02*
X97204342Y-63983094D01*
X97204342Y-63983094D02*
X97013866Y-64030713D01*
X97013866Y-64030713D02*
X96775771Y-64030713D01*
X96775771Y-64030713D02*
X96585295Y-63983094D01*
X96585295Y-63983094D02*
X96490057Y-63935475D01*
X96490057Y-63935475D02*
X96442438Y-63887856D01*
X96442438Y-63887856D02*
X96394819Y-63792618D01*
X96728152Y-63030713D02*
X97394819Y-63030713D01*
X96823390Y-63030713D02*
X96775771Y-62983094D01*
X96775771Y-62983094D02*
X96728152Y-62887856D01*
X96728152Y-62887856D02*
X96728152Y-62744999D01*
X96728152Y-62744999D02*
X96775771Y-62649761D01*
X96775771Y-62649761D02*
X96871009Y-62602142D01*
X96871009Y-62602142D02*
X97394819Y-62602142D01*
D12*
X95653832Y-64502142D02*
X95672880Y-64521190D01*
X95672880Y-64521190D02*
X95691927Y-64578332D01*
X95691927Y-64578332D02*
X95691927Y-64616428D01*
X95691927Y-64616428D02*
X95672880Y-64673571D01*
X95672880Y-64673571D02*
X95634784Y-64711666D01*
X95634784Y-64711666D02*
X95596689Y-64730713D01*
X95596689Y-64730713D02*
X95520499Y-64749761D01*
X95520499Y-64749761D02*
X95463356Y-64749761D01*
X95463356Y-64749761D02*
X95387165Y-64730713D01*
X95387165Y-64730713D02*
X95349070Y-64711666D01*
X95349070Y-64711666D02*
X95310975Y-64673571D01*
X95310975Y-64673571D02*
X95291927Y-64616428D01*
X95291927Y-64616428D02*
X95291927Y-64578332D01*
X95291927Y-64578332D02*
X95310975Y-64521190D01*
X95310975Y-64521190D02*
X95330022Y-64502142D01*
X95691927Y-64121190D02*
X95691927Y-64349761D01*
X95691927Y-64235475D02*
X95291927Y-64235475D01*
X95291927Y-64235475D02*
X95349070Y-64273571D01*
X95349070Y-64273571D02*
X95387165Y-64311666D01*
X95387165Y-64311666D02*
X95406213Y-64349761D01*
X95330022Y-63968809D02*
X95310975Y-63949761D01*
X95310975Y-63949761D02*
X95291927Y-63911666D01*
X95291927Y-63911666D02*
X95291927Y-63816428D01*
X95291927Y-63816428D02*
X95310975Y-63778333D01*
X95310975Y-63778333D02*
X95330022Y-63759285D01*
X95330022Y-63759285D02*
X95368118Y-63740238D01*
X95368118Y-63740238D02*
X95406213Y-63740238D01*
X95406213Y-63740238D02*
X95463356Y-63759285D01*
X95463356Y-63759285D02*
X95691927Y-63987857D01*
X95691927Y-63987857D02*
X95691927Y-63740238D01*
D10*
X87585652Y-86874285D02*
X88252319Y-86874285D01*
X87204700Y-87112380D02*
X87918985Y-87350475D01*
X87918985Y-87350475D02*
X87918985Y-86731428D01*
X87252319Y-86445713D02*
X87252319Y-85779047D01*
X87252319Y-85779047D02*
X88252319Y-86207618D01*
X87252319Y-85207618D02*
X87252319Y-85112380D01*
X87252319Y-85112380D02*
X87299938Y-85017142D01*
X87299938Y-85017142D02*
X87347557Y-84969523D01*
X87347557Y-84969523D02*
X87442795Y-84921904D01*
X87442795Y-84921904D02*
X87633271Y-84874285D01*
X87633271Y-84874285D02*
X87871366Y-84874285D01*
X87871366Y-84874285D02*
X88061842Y-84921904D01*
X88061842Y-84921904D02*
X88157080Y-84969523D01*
X88157080Y-84969523D02*
X88204700Y-85017142D01*
X88204700Y-85017142D02*
X88252319Y-85112380D01*
X88252319Y-85112380D02*
X88252319Y-85207618D01*
X88252319Y-85207618D02*
X88204700Y-85302856D01*
X88204700Y-85302856D02*
X88157080Y-85350475D01*
X88157080Y-85350475D02*
X88061842Y-85398094D01*
X88061842Y-85398094D02*
X87871366Y-85445713D01*
X87871366Y-85445713D02*
X87633271Y-85445713D01*
X87633271Y-85445713D02*
X87442795Y-85398094D01*
X87442795Y-85398094D02*
X87347557Y-85350475D01*
X87347557Y-85350475D02*
X87299938Y-85302856D01*
X87299938Y-85302856D02*
X87252319Y-85207618D01*
X87585652Y-84445713D02*
X88252319Y-84445713D01*
X87680890Y-84445713D02*
X87633271Y-84398094D01*
X87633271Y-84398094D02*
X87585652Y-84302856D01*
X87585652Y-84302856D02*
X87585652Y-84159999D01*
X87585652Y-84159999D02*
X87633271Y-84064761D01*
X87633271Y-84064761D02*
X87728509Y-84017142D01*
X87728509Y-84017142D02*
X88252319Y-84017142D01*
D12*
X89371332Y-85726666D02*
X89390380Y-85745714D01*
X89390380Y-85745714D02*
X89409427Y-85802856D01*
X89409427Y-85802856D02*
X89409427Y-85840952D01*
X89409427Y-85840952D02*
X89390380Y-85898095D01*
X89390380Y-85898095D02*
X89352284Y-85936190D01*
X89352284Y-85936190D02*
X89314189Y-85955237D01*
X89314189Y-85955237D02*
X89237999Y-85974285D01*
X89237999Y-85974285D02*
X89180856Y-85974285D01*
X89180856Y-85974285D02*
X89104665Y-85955237D01*
X89104665Y-85955237D02*
X89066570Y-85936190D01*
X89066570Y-85936190D02*
X89028475Y-85898095D01*
X89028475Y-85898095D02*
X89009427Y-85840952D01*
X89009427Y-85840952D02*
X89009427Y-85802856D01*
X89009427Y-85802856D02*
X89028475Y-85745714D01*
X89028475Y-85745714D02*
X89047522Y-85726666D01*
X89047522Y-85574285D02*
X89028475Y-85555237D01*
X89028475Y-85555237D02*
X89009427Y-85517142D01*
X89009427Y-85517142D02*
X89009427Y-85421904D01*
X89009427Y-85421904D02*
X89028475Y-85383809D01*
X89028475Y-85383809D02*
X89047522Y-85364761D01*
X89047522Y-85364761D02*
X89085618Y-85345714D01*
X89085618Y-85345714D02*
X89123713Y-85345714D01*
X89123713Y-85345714D02*
X89180856Y-85364761D01*
X89180856Y-85364761D02*
X89409427Y-85593333D01*
X89409427Y-85593333D02*
X89409427Y-85345714D01*
D10*
X126940952Y-78674819D02*
X126369524Y-78674819D01*
X126655238Y-78674819D02*
X126655238Y-77674819D01*
X126655238Y-77674819D02*
X126560000Y-77817676D01*
X126560000Y-77817676D02*
X126464762Y-77912914D01*
X126464762Y-77912914D02*
X126369524Y-77960533D01*
X127560000Y-77674819D02*
X127655238Y-77674819D01*
X127655238Y-77674819D02*
X127750476Y-77722438D01*
X127750476Y-77722438D02*
X127798095Y-77770057D01*
X127798095Y-77770057D02*
X127845714Y-77865295D01*
X127845714Y-77865295D02*
X127893333Y-78055771D01*
X127893333Y-78055771D02*
X127893333Y-78293866D01*
X127893333Y-78293866D02*
X127845714Y-78484342D01*
X127845714Y-78484342D02*
X127798095Y-78579580D01*
X127798095Y-78579580D02*
X127750476Y-78627200D01*
X127750476Y-78627200D02*
X127655238Y-78674819D01*
X127655238Y-78674819D02*
X127560000Y-78674819D01*
X127560000Y-78674819D02*
X127464762Y-78627200D01*
X127464762Y-78627200D02*
X127417143Y-78579580D01*
X127417143Y-78579580D02*
X127369524Y-78484342D01*
X127369524Y-78484342D02*
X127321905Y-78293866D01*
X127321905Y-78293866D02*
X127321905Y-78055771D01*
X127321905Y-78055771D02*
X127369524Y-77865295D01*
X127369524Y-77865295D02*
X127417143Y-77770057D01*
X127417143Y-77770057D02*
X127464762Y-77722438D01*
X127464762Y-77722438D02*
X127560000Y-77674819D01*
X128512381Y-77674819D02*
X128607619Y-77674819D01*
X128607619Y-77674819D02*
X128702857Y-77722438D01*
X128702857Y-77722438D02*
X128750476Y-77770057D01*
X128750476Y-77770057D02*
X128798095Y-77865295D01*
X128798095Y-77865295D02*
X128845714Y-78055771D01*
X128845714Y-78055771D02*
X128845714Y-78293866D01*
X128845714Y-78293866D02*
X128798095Y-78484342D01*
X128798095Y-78484342D02*
X128750476Y-78579580D01*
X128750476Y-78579580D02*
X128702857Y-78627200D01*
X128702857Y-78627200D02*
X128607619Y-78674819D01*
X128607619Y-78674819D02*
X128512381Y-78674819D01*
X128512381Y-78674819D02*
X128417143Y-78627200D01*
X128417143Y-78627200D02*
X128369524Y-78579580D01*
X128369524Y-78579580D02*
X128321905Y-78484342D01*
X128321905Y-78484342D02*
X128274286Y-78293866D01*
X128274286Y-78293866D02*
X128274286Y-78055771D01*
X128274286Y-78055771D02*
X128321905Y-77865295D01*
X128321905Y-77865295D02*
X128369524Y-77770057D01*
X128369524Y-77770057D02*
X128417143Y-77722438D01*
X128417143Y-77722438D02*
X128512381Y-77674819D01*
X129274286Y-78008152D02*
X129274286Y-78674819D01*
X129274286Y-78103390D02*
X129321905Y-78055771D01*
X129321905Y-78055771D02*
X129417143Y-78008152D01*
X129417143Y-78008152D02*
X129560000Y-78008152D01*
X129560000Y-78008152D02*
X129655238Y-78055771D01*
X129655238Y-78055771D02*
X129702857Y-78151009D01*
X129702857Y-78151009D02*
X129702857Y-78674819D01*
D11*
X123793333Y-80183855D02*
X124326667Y-80983855D01*
X124326667Y-80183855D02*
X123793333Y-80983855D01*
X124555238Y-80183855D02*
X125088572Y-80183855D01*
X125088572Y-80183855D02*
X124745714Y-80983855D01*
X125850477Y-80983855D02*
X125583810Y-80602902D01*
X125393334Y-80983855D02*
X125393334Y-80183855D01*
X125393334Y-80183855D02*
X125698096Y-80183855D01*
X125698096Y-80183855D02*
X125774286Y-80221950D01*
X125774286Y-80221950D02*
X125812381Y-80260045D01*
X125812381Y-80260045D02*
X125850477Y-80336236D01*
X125850477Y-80336236D02*
X125850477Y-80450521D01*
X125850477Y-80450521D02*
X125812381Y-80526712D01*
X125812381Y-80526712D02*
X125774286Y-80564807D01*
X125774286Y-80564807D02*
X125698096Y-80602902D01*
X125698096Y-80602902D02*
X125393334Y-80602902D01*
X126193334Y-80983855D02*
X126193334Y-80183855D01*
X126193334Y-80183855D02*
X126383810Y-80183855D01*
X126383810Y-80183855D02*
X126498096Y-80221950D01*
X126498096Y-80221950D02*
X126574286Y-80298140D01*
X126574286Y-80298140D02*
X126612381Y-80374331D01*
X126612381Y-80374331D02*
X126650477Y-80526712D01*
X126650477Y-80526712D02*
X126650477Y-80640998D01*
X126650477Y-80640998D02*
X126612381Y-80793379D01*
X126612381Y-80793379D02*
X126574286Y-80869569D01*
X126574286Y-80869569D02*
X126498096Y-80945760D01*
X126498096Y-80945760D02*
X126383810Y-80983855D01*
X126383810Y-80983855D02*
X126193334Y-80983855D01*
X126993334Y-80983855D02*
X126993334Y-80450521D01*
X126993334Y-80183855D02*
X126955238Y-80221950D01*
X126955238Y-80221950D02*
X126993334Y-80260045D01*
X126993334Y-80260045D02*
X127031429Y-80221950D01*
X127031429Y-80221950D02*
X126993334Y-80183855D01*
X126993334Y-80183855D02*
X126993334Y-80260045D01*
X127679048Y-80945760D02*
X127602857Y-80983855D01*
X127602857Y-80983855D02*
X127450476Y-80983855D01*
X127450476Y-80983855D02*
X127374286Y-80945760D01*
X127374286Y-80945760D02*
X127336190Y-80869569D01*
X127336190Y-80869569D02*
X127336190Y-80564807D01*
X127336190Y-80564807D02*
X127374286Y-80488617D01*
X127374286Y-80488617D02*
X127450476Y-80450521D01*
X127450476Y-80450521D02*
X127602857Y-80450521D01*
X127602857Y-80450521D02*
X127679048Y-80488617D01*
X127679048Y-80488617D02*
X127717143Y-80564807D01*
X127717143Y-80564807D02*
X127717143Y-80640998D01*
X127717143Y-80640998D02*
X127336190Y-80717188D01*
X128174285Y-80983855D02*
X128098095Y-80945760D01*
X128098095Y-80945760D02*
X128060000Y-80869569D01*
X128060000Y-80869569D02*
X128060000Y-80183855D01*
X128783810Y-80945760D02*
X128707619Y-80983855D01*
X128707619Y-80983855D02*
X128555238Y-80983855D01*
X128555238Y-80983855D02*
X128479048Y-80945760D01*
X128479048Y-80945760D02*
X128440952Y-80869569D01*
X128440952Y-80869569D02*
X128440952Y-80564807D01*
X128440952Y-80564807D02*
X128479048Y-80488617D01*
X128479048Y-80488617D02*
X128555238Y-80450521D01*
X128555238Y-80450521D02*
X128707619Y-80450521D01*
X128707619Y-80450521D02*
X128783810Y-80488617D01*
X128783810Y-80488617D02*
X128821905Y-80564807D01*
X128821905Y-80564807D02*
X128821905Y-80640998D01*
X128821905Y-80640998D02*
X128440952Y-80717188D01*
X129507619Y-80945760D02*
X129431428Y-80983855D01*
X129431428Y-80983855D02*
X129279047Y-80983855D01*
X129279047Y-80983855D02*
X129202857Y-80945760D01*
X129202857Y-80945760D02*
X129164762Y-80907664D01*
X129164762Y-80907664D02*
X129126666Y-80831474D01*
X129126666Y-80831474D02*
X129126666Y-80602902D01*
X129126666Y-80602902D02*
X129164762Y-80526712D01*
X129164762Y-80526712D02*
X129202857Y-80488617D01*
X129202857Y-80488617D02*
X129279047Y-80450521D01*
X129279047Y-80450521D02*
X129431428Y-80450521D01*
X129431428Y-80450521D02*
X129507619Y-80488617D01*
X129736190Y-80450521D02*
X130040952Y-80450521D01*
X129850476Y-80183855D02*
X129850476Y-80869569D01*
X129850476Y-80869569D02*
X129888571Y-80945760D01*
X129888571Y-80945760D02*
X129964761Y-80983855D01*
X129964761Y-80983855D02*
X130040952Y-80983855D01*
X130307619Y-80983855D02*
X130307619Y-80450521D01*
X130307619Y-80602902D02*
X130345714Y-80526712D01*
X130345714Y-80526712D02*
X130383809Y-80488617D01*
X130383809Y-80488617D02*
X130460000Y-80450521D01*
X130460000Y-80450521D02*
X130536190Y-80450521D01*
X130802857Y-80983855D02*
X130802857Y-80450521D01*
X130802857Y-80183855D02*
X130764761Y-80221950D01*
X130764761Y-80221950D02*
X130802857Y-80260045D01*
X130802857Y-80260045D02*
X130840952Y-80221950D01*
X130840952Y-80221950D02*
X130802857Y-80183855D01*
X130802857Y-80183855D02*
X130802857Y-80260045D01*
X131526666Y-80945760D02*
X131450475Y-80983855D01*
X131450475Y-80983855D02*
X131298094Y-80983855D01*
X131298094Y-80983855D02*
X131221904Y-80945760D01*
X131221904Y-80945760D02*
X131183809Y-80907664D01*
X131183809Y-80907664D02*
X131145713Y-80831474D01*
X131145713Y-80831474D02*
X131145713Y-80602902D01*
X131145713Y-80602902D02*
X131183809Y-80526712D01*
X131183809Y-80526712D02*
X131221904Y-80488617D01*
X131221904Y-80488617D02*
X131298094Y-80450521D01*
X131298094Y-80450521D02*
X131450475Y-80450521D01*
X131450475Y-80450521D02*
X131526666Y-80488617D01*
X131831427Y-80260045D02*
X131869523Y-80221950D01*
X131869523Y-80221950D02*
X131945713Y-80183855D01*
X131945713Y-80183855D02*
X132136189Y-80183855D01*
X132136189Y-80183855D02*
X132212380Y-80221950D01*
X132212380Y-80221950D02*
X132250475Y-80260045D01*
X132250475Y-80260045D02*
X132288570Y-80336236D01*
X132288570Y-80336236D02*
X132288570Y-80412426D01*
X132288570Y-80412426D02*
X132250475Y-80526712D01*
X132250475Y-80526712D02*
X131793332Y-80983855D01*
X131793332Y-80983855D02*
X132288570Y-80983855D01*
D10*
X156814819Y-107466666D02*
X156814819Y-108038094D01*
X156814819Y-107752380D02*
X155814819Y-107752380D01*
X155814819Y-107752380D02*
X155957676Y-107847618D01*
X155957676Y-107847618D02*
X156052914Y-107942856D01*
X156052914Y-107942856D02*
X156100533Y-108038094D01*
X155814819Y-106847618D02*
X155814819Y-106752380D01*
X155814819Y-106752380D02*
X155862438Y-106657142D01*
X155862438Y-106657142D02*
X155910057Y-106609523D01*
X155910057Y-106609523D02*
X156005295Y-106561904D01*
X156005295Y-106561904D02*
X156195771Y-106514285D01*
X156195771Y-106514285D02*
X156433866Y-106514285D01*
X156433866Y-106514285D02*
X156624342Y-106561904D01*
X156624342Y-106561904D02*
X156719580Y-106609523D01*
X156719580Y-106609523D02*
X156767200Y-106657142D01*
X156767200Y-106657142D02*
X156814819Y-106752380D01*
X156814819Y-106752380D02*
X156814819Y-106847618D01*
X156814819Y-106847618D02*
X156767200Y-106942856D01*
X156767200Y-106942856D02*
X156719580Y-106990475D01*
X156719580Y-106990475D02*
X156624342Y-107038094D01*
X156624342Y-107038094D02*
X156433866Y-107085713D01*
X156433866Y-107085713D02*
X156195771Y-107085713D01*
X156195771Y-107085713D02*
X156005295Y-107038094D01*
X156005295Y-107038094D02*
X155910057Y-106990475D01*
X155910057Y-106990475D02*
X155862438Y-106942856D01*
X155862438Y-106942856D02*
X155814819Y-106847618D01*
X155814819Y-105895237D02*
X155814819Y-105799999D01*
X155814819Y-105799999D02*
X155862438Y-105704761D01*
X155862438Y-105704761D02*
X155910057Y-105657142D01*
X155910057Y-105657142D02*
X156005295Y-105609523D01*
X156005295Y-105609523D02*
X156195771Y-105561904D01*
X156195771Y-105561904D02*
X156433866Y-105561904D01*
X156433866Y-105561904D02*
X156624342Y-105609523D01*
X156624342Y-105609523D02*
X156719580Y-105657142D01*
X156719580Y-105657142D02*
X156767200Y-105704761D01*
X156767200Y-105704761D02*
X156814819Y-105799999D01*
X156814819Y-105799999D02*
X156814819Y-105895237D01*
X156814819Y-105895237D02*
X156767200Y-105990475D01*
X156767200Y-105990475D02*
X156719580Y-106038094D01*
X156719580Y-106038094D02*
X156624342Y-106085713D01*
X156624342Y-106085713D02*
X156433866Y-106133332D01*
X156433866Y-106133332D02*
X156195771Y-106133332D01*
X156195771Y-106133332D02*
X156005295Y-106085713D01*
X156005295Y-106085713D02*
X155910057Y-106038094D01*
X155910057Y-106038094D02*
X155862438Y-105990475D01*
X155862438Y-105990475D02*
X155814819Y-105895237D01*
X159014819Y-107442857D02*
X158538628Y-107776190D01*
X159014819Y-108014285D02*
X158014819Y-108014285D01*
X158014819Y-108014285D02*
X158014819Y-107633333D01*
X158014819Y-107633333D02*
X158062438Y-107538095D01*
X158062438Y-107538095D02*
X158110057Y-107490476D01*
X158110057Y-107490476D02*
X158205295Y-107442857D01*
X158205295Y-107442857D02*
X158348152Y-107442857D01*
X158348152Y-107442857D02*
X158443390Y-107490476D01*
X158443390Y-107490476D02*
X158491009Y-107538095D01*
X158491009Y-107538095D02*
X158538628Y-107633333D01*
X158538628Y-107633333D02*
X158538628Y-108014285D01*
X158014819Y-106538095D02*
X158014819Y-107014285D01*
X158014819Y-107014285D02*
X158491009Y-107061904D01*
X158491009Y-107061904D02*
X158443390Y-107014285D01*
X158443390Y-107014285D02*
X158395771Y-106919047D01*
X158395771Y-106919047D02*
X158395771Y-106680952D01*
X158395771Y-106680952D02*
X158443390Y-106585714D01*
X158443390Y-106585714D02*
X158491009Y-106538095D01*
X158491009Y-106538095D02*
X158586247Y-106490476D01*
X158586247Y-106490476D02*
X158824342Y-106490476D01*
X158824342Y-106490476D02*
X158919580Y-106538095D01*
X158919580Y-106538095D02*
X158967200Y-106585714D01*
X158967200Y-106585714D02*
X159014819Y-106680952D01*
X159014819Y-106680952D02*
X159014819Y-106919047D01*
X159014819Y-106919047D02*
X158967200Y-107014285D01*
X158967200Y-107014285D02*
X158919580Y-107061904D01*
X158348152Y-105633333D02*
X159014819Y-105633333D01*
X157967200Y-105871428D02*
X158681485Y-106109523D01*
X158681485Y-106109523D02*
X158681485Y-105490476D01*
X132764819Y-69817142D02*
X131764819Y-69817142D01*
X132764819Y-68769524D02*
X132288628Y-69102857D01*
X132764819Y-69340952D02*
X131764819Y-69340952D01*
X131764819Y-69340952D02*
X131764819Y-68960000D01*
X131764819Y-68960000D02*
X131812438Y-68864762D01*
X131812438Y-68864762D02*
X131860057Y-68817143D01*
X131860057Y-68817143D02*
X131955295Y-68769524D01*
X131955295Y-68769524D02*
X132098152Y-68769524D01*
X132098152Y-68769524D02*
X132193390Y-68817143D01*
X132193390Y-68817143D02*
X132241009Y-68864762D01*
X132241009Y-68864762D02*
X132288628Y-68960000D01*
X132288628Y-68960000D02*
X132288628Y-69340952D01*
X132764819Y-67864762D02*
X132764819Y-68340952D01*
X132764819Y-68340952D02*
X131764819Y-68340952D01*
X131764819Y-67626666D02*
X131764819Y-66960000D01*
X131764819Y-66960000D02*
X132764819Y-67626666D01*
X132764819Y-67626666D02*
X132764819Y-66960000D01*
X132098152Y-66150476D02*
X132764819Y-66150476D01*
X131717200Y-66388571D02*
X132431485Y-66626666D01*
X132431485Y-66626666D02*
X132431485Y-66007619D01*
X132098152Y-65198095D02*
X132764819Y-65198095D01*
X131717200Y-65436190D02*
X132431485Y-65674285D01*
X132431485Y-65674285D02*
X132431485Y-65055238D01*
X132764819Y-64674285D02*
X131764819Y-64674285D01*
X131764819Y-64674285D02*
X132764819Y-64102857D01*
X132764819Y-64102857D02*
X131764819Y-64102857D01*
X136010057Y-67055238D02*
X135962438Y-67150476D01*
X135962438Y-67150476D02*
X135867200Y-67245714D01*
X135867200Y-67245714D02*
X135724342Y-67388571D01*
X135724342Y-67388571D02*
X135676723Y-67483809D01*
X135676723Y-67483809D02*
X135676723Y-67579047D01*
X135914819Y-67531428D02*
X135867200Y-67626666D01*
X135867200Y-67626666D02*
X135771961Y-67721904D01*
X135771961Y-67721904D02*
X135581485Y-67769523D01*
X135581485Y-67769523D02*
X135248152Y-67769523D01*
X135248152Y-67769523D02*
X135057676Y-67721904D01*
X135057676Y-67721904D02*
X134962438Y-67626666D01*
X134962438Y-67626666D02*
X134914819Y-67531428D01*
X134914819Y-67531428D02*
X134914819Y-67340952D01*
X134914819Y-67340952D02*
X134962438Y-67245714D01*
X134962438Y-67245714D02*
X135057676Y-67150476D01*
X135057676Y-67150476D02*
X135248152Y-67102857D01*
X135248152Y-67102857D02*
X135581485Y-67102857D01*
X135581485Y-67102857D02*
X135771961Y-67150476D01*
X135771961Y-67150476D02*
X135867200Y-67245714D01*
X135867200Y-67245714D02*
X135914819Y-67340952D01*
X135914819Y-67340952D02*
X135914819Y-67531428D01*
X135914819Y-66150476D02*
X135914819Y-66721904D01*
X135914819Y-66436190D02*
X134914819Y-66436190D01*
X134914819Y-66436190D02*
X135057676Y-66531428D01*
X135057676Y-66531428D02*
X135152914Y-66626666D01*
X135152914Y-66626666D02*
X135200533Y-66721904D01*
X160964819Y-107466666D02*
X160964819Y-108038094D01*
X160964819Y-107752380D02*
X159964819Y-107752380D01*
X159964819Y-107752380D02*
X160107676Y-107847618D01*
X160107676Y-107847618D02*
X160202914Y-107942856D01*
X160202914Y-107942856D02*
X160250533Y-108038094D01*
X159964819Y-106847618D02*
X159964819Y-106752380D01*
X159964819Y-106752380D02*
X160012438Y-106657142D01*
X160012438Y-106657142D02*
X160060057Y-106609523D01*
X160060057Y-106609523D02*
X160155295Y-106561904D01*
X160155295Y-106561904D02*
X160345771Y-106514285D01*
X160345771Y-106514285D02*
X160583866Y-106514285D01*
X160583866Y-106514285D02*
X160774342Y-106561904D01*
X160774342Y-106561904D02*
X160869580Y-106609523D01*
X160869580Y-106609523D02*
X160917200Y-106657142D01*
X160917200Y-106657142D02*
X160964819Y-106752380D01*
X160964819Y-106752380D02*
X160964819Y-106847618D01*
X160964819Y-106847618D02*
X160917200Y-106942856D01*
X160917200Y-106942856D02*
X160869580Y-106990475D01*
X160869580Y-106990475D02*
X160774342Y-107038094D01*
X160774342Y-107038094D02*
X160583866Y-107085713D01*
X160583866Y-107085713D02*
X160345771Y-107085713D01*
X160345771Y-107085713D02*
X160155295Y-107038094D01*
X160155295Y-107038094D02*
X160060057Y-106990475D01*
X160060057Y-106990475D02*
X160012438Y-106942856D01*
X160012438Y-106942856D02*
X159964819Y-106847618D01*
X159964819Y-105895237D02*
X159964819Y-105799999D01*
X159964819Y-105799999D02*
X160012438Y-105704761D01*
X160012438Y-105704761D02*
X160060057Y-105657142D01*
X160060057Y-105657142D02*
X160155295Y-105609523D01*
X160155295Y-105609523D02*
X160345771Y-105561904D01*
X160345771Y-105561904D02*
X160583866Y-105561904D01*
X160583866Y-105561904D02*
X160774342Y-105609523D01*
X160774342Y-105609523D02*
X160869580Y-105657142D01*
X160869580Y-105657142D02*
X160917200Y-105704761D01*
X160917200Y-105704761D02*
X160964819Y-105799999D01*
X160964819Y-105799999D02*
X160964819Y-105895237D01*
X160964819Y-105895237D02*
X160917200Y-105990475D01*
X160917200Y-105990475D02*
X160869580Y-106038094D01*
X160869580Y-106038094D02*
X160774342Y-106085713D01*
X160774342Y-106085713D02*
X160583866Y-106133332D01*
X160583866Y-106133332D02*
X160345771Y-106133332D01*
X160345771Y-106133332D02*
X160155295Y-106085713D01*
X160155295Y-106085713D02*
X160060057Y-106038094D01*
X160060057Y-106038094D02*
X160012438Y-105990475D01*
X160012438Y-105990475D02*
X159964819Y-105895237D01*
X163164819Y-107442857D02*
X162688628Y-107776190D01*
X163164819Y-108014285D02*
X162164819Y-108014285D01*
X162164819Y-108014285D02*
X162164819Y-107633333D01*
X162164819Y-107633333D02*
X162212438Y-107538095D01*
X162212438Y-107538095D02*
X162260057Y-107490476D01*
X162260057Y-107490476D02*
X162355295Y-107442857D01*
X162355295Y-107442857D02*
X162498152Y-107442857D01*
X162498152Y-107442857D02*
X162593390Y-107490476D01*
X162593390Y-107490476D02*
X162641009Y-107538095D01*
X162641009Y-107538095D02*
X162688628Y-107633333D01*
X162688628Y-107633333D02*
X162688628Y-108014285D01*
X162164819Y-106538095D02*
X162164819Y-107014285D01*
X162164819Y-107014285D02*
X162641009Y-107061904D01*
X162641009Y-107061904D02*
X162593390Y-107014285D01*
X162593390Y-107014285D02*
X162545771Y-106919047D01*
X162545771Y-106919047D02*
X162545771Y-106680952D01*
X162545771Y-106680952D02*
X162593390Y-106585714D01*
X162593390Y-106585714D02*
X162641009Y-106538095D01*
X162641009Y-106538095D02*
X162736247Y-106490476D01*
X162736247Y-106490476D02*
X162974342Y-106490476D01*
X162974342Y-106490476D02*
X163069580Y-106538095D01*
X163069580Y-106538095D02*
X163117200Y-106585714D01*
X163117200Y-106585714D02*
X163164819Y-106680952D01*
X163164819Y-106680952D02*
X163164819Y-106919047D01*
X163164819Y-106919047D02*
X163117200Y-107014285D01*
X163117200Y-107014285D02*
X163069580Y-107061904D01*
X162164819Y-106157142D02*
X162164819Y-105538095D01*
X162164819Y-105538095D02*
X162545771Y-105871428D01*
X162545771Y-105871428D02*
X162545771Y-105728571D01*
X162545771Y-105728571D02*
X162593390Y-105633333D01*
X162593390Y-105633333D02*
X162641009Y-105585714D01*
X162641009Y-105585714D02*
X162736247Y-105538095D01*
X162736247Y-105538095D02*
X162974342Y-105538095D01*
X162974342Y-105538095D02*
X163069580Y-105585714D01*
X163069580Y-105585714D02*
X163117200Y-105633333D01*
X163117200Y-105633333D02*
X163164819Y-105728571D01*
X163164819Y-105728571D02*
X163164819Y-106014285D01*
X163164819Y-106014285D02*
X163117200Y-106109523D01*
X163117200Y-106109523D02*
X163069580Y-106157142D01*
X142559942Y-78052070D02*
X142607561Y-78099689D01*
X142607561Y-78099689D02*
X142655180Y-78194927D01*
X142655180Y-78194927D02*
X142655180Y-78433022D01*
X142655180Y-78433022D02*
X142607561Y-78528260D01*
X142607561Y-78528260D02*
X142559942Y-78575879D01*
X142559942Y-78575879D02*
X142464704Y-78623498D01*
X142464704Y-78623498D02*
X142369466Y-78623498D01*
X142369466Y-78623498D02*
X142226609Y-78575879D01*
X142226609Y-78575879D02*
X141655180Y-78004451D01*
X141655180Y-78004451D02*
X141655180Y-78623498D01*
X142321847Y-79480641D02*
X141655180Y-79480641D01*
X142702800Y-79242546D02*
X141988514Y-79004451D01*
X141988514Y-79004451D02*
X141988514Y-79623498D01*
X142655180Y-79861594D02*
X141655180Y-80194927D01*
X141655180Y-80194927D02*
X142655180Y-80528260D01*
X155178990Y-78456831D02*
X155131371Y-78599688D01*
X155131371Y-78599688D02*
X155083752Y-78647307D01*
X155083752Y-78647307D02*
X154988514Y-78694926D01*
X154988514Y-78694926D02*
X154845657Y-78694926D01*
X154845657Y-78694926D02*
X154750419Y-78647307D01*
X154750419Y-78647307D02*
X154702800Y-78599688D01*
X154702800Y-78599688D02*
X154655180Y-78504450D01*
X154655180Y-78504450D02*
X154655180Y-78123498D01*
X154655180Y-78123498D02*
X155655180Y-78123498D01*
X155655180Y-78123498D02*
X155655180Y-78456831D01*
X155655180Y-78456831D02*
X155607561Y-78552069D01*
X155607561Y-78552069D02*
X155559942Y-78599688D01*
X155559942Y-78599688D02*
X155464704Y-78647307D01*
X155464704Y-78647307D02*
X155369466Y-78647307D01*
X155369466Y-78647307D02*
X155274228Y-78599688D01*
X155274228Y-78599688D02*
X155226609Y-78552069D01*
X155226609Y-78552069D02*
X155178990Y-78456831D01*
X155178990Y-78456831D02*
X155178990Y-78123498D01*
X155655180Y-78980641D02*
X155655180Y-79552069D01*
X154655180Y-79266355D02*
X155655180Y-79266355D01*
X155559942Y-79837784D02*
X155607561Y-79885403D01*
X155607561Y-79885403D02*
X155655180Y-79980641D01*
X155655180Y-79980641D02*
X155655180Y-80218736D01*
X155655180Y-80218736D02*
X155607561Y-80313974D01*
X155607561Y-80313974D02*
X155559942Y-80361593D01*
X155559942Y-80361593D02*
X155464704Y-80409212D01*
X155464704Y-80409212D02*
X155369466Y-80409212D01*
X155369466Y-80409212D02*
X155226609Y-80361593D01*
X155226609Y-80361593D02*
X154655180Y-79790165D01*
X154655180Y-79790165D02*
X154655180Y-80409212D01*
X88314761Y-76674819D02*
X87743333Y-76674819D01*
X88029047Y-76674819D02*
X88029047Y-75674819D01*
X88029047Y-75674819D02*
X87933809Y-75817676D01*
X87933809Y-75817676D02*
X87838571Y-75912914D01*
X87838571Y-75912914D02*
X87743333Y-75960533D01*
X88933809Y-75674819D02*
X89029047Y-75674819D01*
X89029047Y-75674819D02*
X89124285Y-75722438D01*
X89124285Y-75722438D02*
X89171904Y-75770057D01*
X89171904Y-75770057D02*
X89219523Y-75865295D01*
X89219523Y-75865295D02*
X89267142Y-76055771D01*
X89267142Y-76055771D02*
X89267142Y-76293866D01*
X89267142Y-76293866D02*
X89219523Y-76484342D01*
X89219523Y-76484342D02*
X89171904Y-76579580D01*
X89171904Y-76579580D02*
X89124285Y-76627200D01*
X89124285Y-76627200D02*
X89029047Y-76674819D01*
X89029047Y-76674819D02*
X88933809Y-76674819D01*
X88933809Y-76674819D02*
X88838571Y-76627200D01*
X88838571Y-76627200D02*
X88790952Y-76579580D01*
X88790952Y-76579580D02*
X88743333Y-76484342D01*
X88743333Y-76484342D02*
X88695714Y-76293866D01*
X88695714Y-76293866D02*
X88695714Y-76055771D01*
X88695714Y-76055771D02*
X88743333Y-75865295D01*
X88743333Y-75865295D02*
X88790952Y-75770057D01*
X88790952Y-75770057D02*
X88838571Y-75722438D01*
X88838571Y-75722438D02*
X88933809Y-75674819D01*
X89695714Y-76674819D02*
X89695714Y-75674819D01*
X89790952Y-76293866D02*
X90076666Y-76674819D01*
X90076666Y-76008152D02*
X89695714Y-76389104D01*
X88267142Y-74474819D02*
X87933809Y-73998628D01*
X87695714Y-74474819D02*
X87695714Y-73474819D01*
X87695714Y-73474819D02*
X88076666Y-73474819D01*
X88076666Y-73474819D02*
X88171904Y-73522438D01*
X88171904Y-73522438D02*
X88219523Y-73570057D01*
X88219523Y-73570057D02*
X88267142Y-73665295D01*
X88267142Y-73665295D02*
X88267142Y-73808152D01*
X88267142Y-73808152D02*
X88219523Y-73903390D01*
X88219523Y-73903390D02*
X88171904Y-73951009D01*
X88171904Y-73951009D02*
X88076666Y-73998628D01*
X88076666Y-73998628D02*
X87695714Y-73998628D01*
X89219523Y-74474819D02*
X88648095Y-74474819D01*
X88933809Y-74474819D02*
X88933809Y-73474819D01*
X88933809Y-73474819D02*
X88838571Y-73617676D01*
X88838571Y-73617676D02*
X88743333Y-73712914D01*
X88743333Y-73712914D02*
X88648095Y-73760533D01*
X89600476Y-73570057D02*
X89648095Y-73522438D01*
X89648095Y-73522438D02*
X89743333Y-73474819D01*
X89743333Y-73474819D02*
X89981428Y-73474819D01*
X89981428Y-73474819D02*
X90076666Y-73522438D01*
X90076666Y-73522438D02*
X90124285Y-73570057D01*
X90124285Y-73570057D02*
X90171904Y-73665295D01*
X90171904Y-73665295D02*
X90171904Y-73760533D01*
X90171904Y-73760533D02*
X90124285Y-73903390D01*
X90124285Y-73903390D02*
X89552857Y-74474819D01*
X89552857Y-74474819D02*
X90171904Y-74474819D01*
X82113214Y-87642200D02*
X82256071Y-87689819D01*
X82256071Y-87689819D02*
X82494166Y-87689819D01*
X82494166Y-87689819D02*
X82589404Y-87642200D01*
X82589404Y-87642200D02*
X82637023Y-87594580D01*
X82637023Y-87594580D02*
X82684642Y-87499342D01*
X82684642Y-87499342D02*
X82684642Y-87404104D01*
X82684642Y-87404104D02*
X82637023Y-87308866D01*
X82637023Y-87308866D02*
X82589404Y-87261247D01*
X82589404Y-87261247D02*
X82494166Y-87213628D01*
X82494166Y-87213628D02*
X82303690Y-87166009D01*
X82303690Y-87166009D02*
X82208452Y-87118390D01*
X82208452Y-87118390D02*
X82160833Y-87070771D01*
X82160833Y-87070771D02*
X82113214Y-86975533D01*
X82113214Y-86975533D02*
X82113214Y-86880295D01*
X82113214Y-86880295D02*
X82160833Y-86785057D01*
X82160833Y-86785057D02*
X82208452Y-86737438D01*
X82208452Y-86737438D02*
X82303690Y-86689819D01*
X82303690Y-86689819D02*
X82541785Y-86689819D01*
X82541785Y-86689819D02*
X82684642Y-86737438D01*
X83065595Y-87642200D02*
X83208452Y-87689819D01*
X83208452Y-87689819D02*
X83446547Y-87689819D01*
X83446547Y-87689819D02*
X83541785Y-87642200D01*
X83541785Y-87642200D02*
X83589404Y-87594580D01*
X83589404Y-87594580D02*
X83637023Y-87499342D01*
X83637023Y-87499342D02*
X83637023Y-87404104D01*
X83637023Y-87404104D02*
X83589404Y-87308866D01*
X83589404Y-87308866D02*
X83541785Y-87261247D01*
X83541785Y-87261247D02*
X83446547Y-87213628D01*
X83446547Y-87213628D02*
X83256071Y-87166009D01*
X83256071Y-87166009D02*
X83160833Y-87118390D01*
X83160833Y-87118390D02*
X83113214Y-87070771D01*
X83113214Y-87070771D02*
X83065595Y-86975533D01*
X83065595Y-86975533D02*
X83065595Y-86880295D01*
X83065595Y-86880295D02*
X83113214Y-86785057D01*
X83113214Y-86785057D02*
X83160833Y-86737438D01*
X83160833Y-86737438D02*
X83256071Y-86689819D01*
X83256071Y-86689819D02*
X83494166Y-86689819D01*
X83494166Y-86689819D02*
X83637023Y-86737438D01*
X83970357Y-86689819D02*
X84589404Y-86689819D01*
X84589404Y-86689819D02*
X84256071Y-87070771D01*
X84256071Y-87070771D02*
X84398928Y-87070771D01*
X84398928Y-87070771D02*
X84494166Y-87118390D01*
X84494166Y-87118390D02*
X84541785Y-87166009D01*
X84541785Y-87166009D02*
X84589404Y-87261247D01*
X84589404Y-87261247D02*
X84589404Y-87499342D01*
X84589404Y-87499342D02*
X84541785Y-87594580D01*
X84541785Y-87594580D02*
X84494166Y-87642200D01*
X84494166Y-87642200D02*
X84398928Y-87689819D01*
X84398928Y-87689819D02*
X84113214Y-87689819D01*
X84113214Y-87689819D02*
X84017976Y-87642200D01*
X84017976Y-87642200D02*
X83970357Y-87594580D01*
X85446547Y-87023152D02*
X85446547Y-87689819D01*
X85208452Y-86642200D02*
X84970357Y-87356485D01*
X84970357Y-87356485D02*
X85589404Y-87356485D01*
X83089405Y-82589819D02*
X83089405Y-81589819D01*
X83089405Y-81589819D02*
X83327500Y-81589819D01*
X83327500Y-81589819D02*
X83470357Y-81637438D01*
X83470357Y-81637438D02*
X83565595Y-81732676D01*
X83565595Y-81732676D02*
X83613214Y-81827914D01*
X83613214Y-81827914D02*
X83660833Y-82018390D01*
X83660833Y-82018390D02*
X83660833Y-82161247D01*
X83660833Y-82161247D02*
X83613214Y-82351723D01*
X83613214Y-82351723D02*
X83565595Y-82446961D01*
X83565595Y-82446961D02*
X83470357Y-82542200D01*
X83470357Y-82542200D02*
X83327500Y-82589819D01*
X83327500Y-82589819D02*
X83089405Y-82589819D01*
X83994167Y-81589819D02*
X84613214Y-81589819D01*
X84613214Y-81589819D02*
X84279881Y-81970771D01*
X84279881Y-81970771D02*
X84422738Y-81970771D01*
X84422738Y-81970771D02*
X84517976Y-82018390D01*
X84517976Y-82018390D02*
X84565595Y-82066009D01*
X84565595Y-82066009D02*
X84613214Y-82161247D01*
X84613214Y-82161247D02*
X84613214Y-82399342D01*
X84613214Y-82399342D02*
X84565595Y-82494580D01*
X84565595Y-82494580D02*
X84517976Y-82542200D01*
X84517976Y-82542200D02*
X84422738Y-82589819D01*
X84422738Y-82589819D02*
X84137024Y-82589819D01*
X84137024Y-82589819D02*
X84041786Y-82542200D01*
X84041786Y-82542200D02*
X83994167Y-82494580D01*
X152664819Y-107466666D02*
X152664819Y-108038094D01*
X152664819Y-107752380D02*
X151664819Y-107752380D01*
X151664819Y-107752380D02*
X151807676Y-107847618D01*
X151807676Y-107847618D02*
X151902914Y-107942856D01*
X151902914Y-107942856D02*
X151950533Y-108038094D01*
X151664819Y-106847618D02*
X151664819Y-106752380D01*
X151664819Y-106752380D02*
X151712438Y-106657142D01*
X151712438Y-106657142D02*
X151760057Y-106609523D01*
X151760057Y-106609523D02*
X151855295Y-106561904D01*
X151855295Y-106561904D02*
X152045771Y-106514285D01*
X152045771Y-106514285D02*
X152283866Y-106514285D01*
X152283866Y-106514285D02*
X152474342Y-106561904D01*
X152474342Y-106561904D02*
X152569580Y-106609523D01*
X152569580Y-106609523D02*
X152617200Y-106657142D01*
X152617200Y-106657142D02*
X152664819Y-106752380D01*
X152664819Y-106752380D02*
X152664819Y-106847618D01*
X152664819Y-106847618D02*
X152617200Y-106942856D01*
X152617200Y-106942856D02*
X152569580Y-106990475D01*
X152569580Y-106990475D02*
X152474342Y-107038094D01*
X152474342Y-107038094D02*
X152283866Y-107085713D01*
X152283866Y-107085713D02*
X152045771Y-107085713D01*
X152045771Y-107085713D02*
X151855295Y-107038094D01*
X151855295Y-107038094D02*
X151760057Y-106990475D01*
X151760057Y-106990475D02*
X151712438Y-106942856D01*
X151712438Y-106942856D02*
X151664819Y-106847618D01*
X151664819Y-105895237D02*
X151664819Y-105799999D01*
X151664819Y-105799999D02*
X151712438Y-105704761D01*
X151712438Y-105704761D02*
X151760057Y-105657142D01*
X151760057Y-105657142D02*
X151855295Y-105609523D01*
X151855295Y-105609523D02*
X152045771Y-105561904D01*
X152045771Y-105561904D02*
X152283866Y-105561904D01*
X152283866Y-105561904D02*
X152474342Y-105609523D01*
X152474342Y-105609523D02*
X152569580Y-105657142D01*
X152569580Y-105657142D02*
X152617200Y-105704761D01*
X152617200Y-105704761D02*
X152664819Y-105799999D01*
X152664819Y-105799999D02*
X152664819Y-105895237D01*
X152664819Y-105895237D02*
X152617200Y-105990475D01*
X152617200Y-105990475D02*
X152569580Y-106038094D01*
X152569580Y-106038094D02*
X152474342Y-106085713D01*
X152474342Y-106085713D02*
X152283866Y-106133332D01*
X152283866Y-106133332D02*
X152045771Y-106133332D01*
X152045771Y-106133332D02*
X151855295Y-106085713D01*
X151855295Y-106085713D02*
X151760057Y-106038094D01*
X151760057Y-106038094D02*
X151712438Y-105990475D01*
X151712438Y-105990475D02*
X151664819Y-105895237D01*
X154864819Y-107442857D02*
X154388628Y-107776190D01*
X154864819Y-108014285D02*
X153864819Y-108014285D01*
X153864819Y-108014285D02*
X153864819Y-107633333D01*
X153864819Y-107633333D02*
X153912438Y-107538095D01*
X153912438Y-107538095D02*
X153960057Y-107490476D01*
X153960057Y-107490476D02*
X154055295Y-107442857D01*
X154055295Y-107442857D02*
X154198152Y-107442857D01*
X154198152Y-107442857D02*
X154293390Y-107490476D01*
X154293390Y-107490476D02*
X154341009Y-107538095D01*
X154341009Y-107538095D02*
X154388628Y-107633333D01*
X154388628Y-107633333D02*
X154388628Y-108014285D01*
X153864819Y-106538095D02*
X153864819Y-107014285D01*
X153864819Y-107014285D02*
X154341009Y-107061904D01*
X154341009Y-107061904D02*
X154293390Y-107014285D01*
X154293390Y-107014285D02*
X154245771Y-106919047D01*
X154245771Y-106919047D02*
X154245771Y-106680952D01*
X154245771Y-106680952D02*
X154293390Y-106585714D01*
X154293390Y-106585714D02*
X154341009Y-106538095D01*
X154341009Y-106538095D02*
X154436247Y-106490476D01*
X154436247Y-106490476D02*
X154674342Y-106490476D01*
X154674342Y-106490476D02*
X154769580Y-106538095D01*
X154769580Y-106538095D02*
X154817200Y-106585714D01*
X154817200Y-106585714D02*
X154864819Y-106680952D01*
X154864819Y-106680952D02*
X154864819Y-106919047D01*
X154864819Y-106919047D02*
X154817200Y-107014285D01*
X154817200Y-107014285D02*
X154769580Y-107061904D01*
X153864819Y-105585714D02*
X153864819Y-106061904D01*
X153864819Y-106061904D02*
X154341009Y-106109523D01*
X154341009Y-106109523D02*
X154293390Y-106061904D01*
X154293390Y-106061904D02*
X154245771Y-105966666D01*
X154245771Y-105966666D02*
X154245771Y-105728571D01*
X154245771Y-105728571D02*
X154293390Y-105633333D01*
X154293390Y-105633333D02*
X154341009Y-105585714D01*
X154341009Y-105585714D02*
X154436247Y-105538095D01*
X154436247Y-105538095D02*
X154674342Y-105538095D01*
X154674342Y-105538095D02*
X154769580Y-105585714D01*
X154769580Y-105585714D02*
X154817200Y-105633333D01*
X154817200Y-105633333D02*
X154864819Y-105728571D01*
X154864819Y-105728571D02*
X154864819Y-105966666D01*
X154864819Y-105966666D02*
X154817200Y-106061904D01*
X154817200Y-106061904D02*
X154769580Y-106109523D01*
X148329104Y-101508928D02*
X148329104Y-101032738D01*
X148614819Y-101604166D02*
X147614819Y-101270833D01*
X147614819Y-101270833D02*
X148614819Y-100937500D01*
X147614819Y-100747023D02*
X147614819Y-100175595D01*
X148614819Y-100461309D02*
X147614819Y-100461309D01*
X147948152Y-99985118D02*
X147948152Y-99604166D01*
X147614819Y-99842261D02*
X148471961Y-99842261D01*
X148471961Y-99842261D02*
X148567200Y-99794642D01*
X148567200Y-99794642D02*
X148614819Y-99699404D01*
X148614819Y-99699404D02*
X148614819Y-99604166D01*
X148614819Y-99270832D02*
X147948152Y-99270832D01*
X147614819Y-99270832D02*
X147662438Y-99318451D01*
X147662438Y-99318451D02*
X147710057Y-99270832D01*
X147710057Y-99270832D02*
X147662438Y-99223213D01*
X147662438Y-99223213D02*
X147614819Y-99270832D01*
X147614819Y-99270832D02*
X147710057Y-99270832D01*
X147948152Y-98794642D02*
X148614819Y-98794642D01*
X148043390Y-98794642D02*
X147995771Y-98747023D01*
X147995771Y-98747023D02*
X147948152Y-98651785D01*
X147948152Y-98651785D02*
X147948152Y-98508928D01*
X147948152Y-98508928D02*
X147995771Y-98413690D01*
X147995771Y-98413690D02*
X148091009Y-98366071D01*
X148091009Y-98366071D02*
X148614819Y-98366071D01*
X147948152Y-97985118D02*
X148614819Y-97747023D01*
X147948152Y-97508928D02*
X148614819Y-97747023D01*
X148614819Y-97747023D02*
X148852914Y-97842261D01*
X148852914Y-97842261D02*
X148900533Y-97889880D01*
X148900533Y-97889880D02*
X148948152Y-97985118D01*
X147614819Y-97223213D02*
X147614819Y-96604166D01*
X147614819Y-96604166D02*
X147995771Y-96937499D01*
X147995771Y-96937499D02*
X147995771Y-96794642D01*
X147995771Y-96794642D02*
X148043390Y-96699404D01*
X148043390Y-96699404D02*
X148091009Y-96651785D01*
X148091009Y-96651785D02*
X148186247Y-96604166D01*
X148186247Y-96604166D02*
X148424342Y-96604166D01*
X148424342Y-96604166D02*
X148519580Y-96651785D01*
X148519580Y-96651785D02*
X148567200Y-96699404D01*
X148567200Y-96699404D02*
X148614819Y-96794642D01*
X148614819Y-96794642D02*
X148614819Y-97080356D01*
X148614819Y-97080356D02*
X148567200Y-97175594D01*
X148567200Y-97175594D02*
X148519580Y-97223213D01*
X147710057Y-96223213D02*
X147662438Y-96175594D01*
X147662438Y-96175594D02*
X147614819Y-96080356D01*
X147614819Y-96080356D02*
X147614819Y-95842261D01*
X147614819Y-95842261D02*
X147662438Y-95747023D01*
X147662438Y-95747023D02*
X147710057Y-95699404D01*
X147710057Y-95699404D02*
X147805295Y-95651785D01*
X147805295Y-95651785D02*
X147900533Y-95651785D01*
X147900533Y-95651785D02*
X148043390Y-95699404D01*
X148043390Y-95699404D02*
X148614819Y-96270832D01*
X148614819Y-96270832D02*
X148614819Y-95651785D01*
X148614819Y-94699404D02*
X148614819Y-95270832D01*
X148614819Y-94985118D02*
X147614819Y-94985118D01*
X147614819Y-94985118D02*
X147757676Y-95080356D01*
X147757676Y-95080356D02*
X147852914Y-95175594D01*
X147852914Y-95175594D02*
X147900533Y-95270832D01*
X147614819Y-94366070D02*
X147614819Y-93699404D01*
X147614819Y-93699404D02*
X148614819Y-94127975D01*
X148233866Y-93318451D02*
X148233866Y-92556547D01*
X148614819Y-92080356D02*
X147614819Y-92080356D01*
X147614819Y-92080356D02*
X148329104Y-91747023D01*
X148329104Y-91747023D02*
X147614819Y-91413690D01*
X147614819Y-91413690D02*
X148614819Y-91413690D01*
X150914819Y-97199404D02*
X151724342Y-97199404D01*
X151724342Y-97199404D02*
X151819580Y-97151785D01*
X151819580Y-97151785D02*
X151867200Y-97104166D01*
X151867200Y-97104166D02*
X151914819Y-97008928D01*
X151914819Y-97008928D02*
X151914819Y-96818452D01*
X151914819Y-96818452D02*
X151867200Y-96723214D01*
X151867200Y-96723214D02*
X151819580Y-96675595D01*
X151819580Y-96675595D02*
X151724342Y-96627976D01*
X151724342Y-96627976D02*
X150914819Y-96627976D01*
X151248152Y-95723214D02*
X151914819Y-95723214D01*
X150867200Y-95961309D02*
X151581485Y-96199404D01*
X151581485Y-96199404D02*
X151581485Y-95580357D01*
X115993333Y-63874819D02*
X115421905Y-63874819D01*
X115707619Y-63874819D02*
X115707619Y-62874819D01*
X115707619Y-62874819D02*
X115612381Y-63017676D01*
X115612381Y-63017676D02*
X115517143Y-63112914D01*
X115517143Y-63112914D02*
X115421905Y-63160533D01*
X116612381Y-62874819D02*
X116707619Y-62874819D01*
X116707619Y-62874819D02*
X116802857Y-62922438D01*
X116802857Y-62922438D02*
X116850476Y-62970057D01*
X116850476Y-62970057D02*
X116898095Y-63065295D01*
X116898095Y-63065295D02*
X116945714Y-63255771D01*
X116945714Y-63255771D02*
X116945714Y-63493866D01*
X116945714Y-63493866D02*
X116898095Y-63684342D01*
X116898095Y-63684342D02*
X116850476Y-63779580D01*
X116850476Y-63779580D02*
X116802857Y-63827200D01*
X116802857Y-63827200D02*
X116707619Y-63874819D01*
X116707619Y-63874819D02*
X116612381Y-63874819D01*
X116612381Y-63874819D02*
X116517143Y-63827200D01*
X116517143Y-63827200D02*
X116469524Y-63779580D01*
X116469524Y-63779580D02*
X116421905Y-63684342D01*
X116421905Y-63684342D02*
X116374286Y-63493866D01*
X116374286Y-63493866D02*
X116374286Y-63255771D01*
X116374286Y-63255771D02*
X116421905Y-63065295D01*
X116421905Y-63065295D02*
X116469524Y-62970057D01*
X116469524Y-62970057D02*
X116517143Y-62922438D01*
X116517143Y-62922438D02*
X116612381Y-62874819D01*
X117564762Y-62874819D02*
X117660000Y-62874819D01*
X117660000Y-62874819D02*
X117755238Y-62922438D01*
X117755238Y-62922438D02*
X117802857Y-62970057D01*
X117802857Y-62970057D02*
X117850476Y-63065295D01*
X117850476Y-63065295D02*
X117898095Y-63255771D01*
X117898095Y-63255771D02*
X117898095Y-63493866D01*
X117898095Y-63493866D02*
X117850476Y-63684342D01*
X117850476Y-63684342D02*
X117802857Y-63779580D01*
X117802857Y-63779580D02*
X117755238Y-63827200D01*
X117755238Y-63827200D02*
X117660000Y-63874819D01*
X117660000Y-63874819D02*
X117564762Y-63874819D01*
X117564762Y-63874819D02*
X117469524Y-63827200D01*
X117469524Y-63827200D02*
X117421905Y-63779580D01*
X117421905Y-63779580D02*
X117374286Y-63684342D01*
X117374286Y-63684342D02*
X117326667Y-63493866D01*
X117326667Y-63493866D02*
X117326667Y-63255771D01*
X117326667Y-63255771D02*
X117374286Y-63065295D01*
X117374286Y-63065295D02*
X117421905Y-62970057D01*
X117421905Y-62970057D02*
X117469524Y-62922438D01*
X117469524Y-62922438D02*
X117564762Y-62874819D01*
X116017142Y-66074819D02*
X115683809Y-65598628D01*
X115445714Y-66074819D02*
X115445714Y-65074819D01*
X115445714Y-65074819D02*
X115826666Y-65074819D01*
X115826666Y-65074819D02*
X115921904Y-65122438D01*
X115921904Y-65122438D02*
X115969523Y-65170057D01*
X115969523Y-65170057D02*
X116017142Y-65265295D01*
X116017142Y-65265295D02*
X116017142Y-65408152D01*
X116017142Y-65408152D02*
X115969523Y-65503390D01*
X115969523Y-65503390D02*
X115921904Y-65551009D01*
X115921904Y-65551009D02*
X115826666Y-65598628D01*
X115826666Y-65598628D02*
X115445714Y-65598628D01*
X116398095Y-65170057D02*
X116445714Y-65122438D01*
X116445714Y-65122438D02*
X116540952Y-65074819D01*
X116540952Y-65074819D02*
X116779047Y-65074819D01*
X116779047Y-65074819D02*
X116874285Y-65122438D01*
X116874285Y-65122438D02*
X116921904Y-65170057D01*
X116921904Y-65170057D02*
X116969523Y-65265295D01*
X116969523Y-65265295D02*
X116969523Y-65360533D01*
X116969523Y-65360533D02*
X116921904Y-65503390D01*
X116921904Y-65503390D02*
X116350476Y-66074819D01*
X116350476Y-66074819D02*
X116969523Y-66074819D01*
X117350476Y-65170057D02*
X117398095Y-65122438D01*
X117398095Y-65122438D02*
X117493333Y-65074819D01*
X117493333Y-65074819D02*
X117731428Y-65074819D01*
X117731428Y-65074819D02*
X117826666Y-65122438D01*
X117826666Y-65122438D02*
X117874285Y-65170057D01*
X117874285Y-65170057D02*
X117921904Y-65265295D01*
X117921904Y-65265295D02*
X117921904Y-65360533D01*
X117921904Y-65360533D02*
X117874285Y-65503390D01*
X117874285Y-65503390D02*
X117302857Y-66074819D01*
X117302857Y-66074819D02*
X117921904Y-66074819D01*
D11*
%TO.C,R56*%
X149160000Y-103900000D02*
X149160000Y-109700000D01*
X149160000Y-109700000D02*
X151360000Y-109700000D01*
X151360000Y-103900000D02*
X149160000Y-103900000D01*
X151360000Y-105100000D02*
X149160000Y-105100000D01*
X151360000Y-108500000D02*
X149160000Y-108500000D01*
X151360000Y-109700000D02*
X151360000Y-103900000D01*
D13*
%TO.C,SW1*%
X114060000Y-84625000D02*
X114060000Y-86500000D01*
X108660000Y-86500000D01*
X108660000Y-84000000D01*
X113435000Y-84000000D01*
X114060000Y-84625000D01*
D11*
%TO.C,R42*%
X140610000Y-89050000D02*
X140610000Y-94850000D01*
X140610000Y-94850000D02*
X142810000Y-94850000D01*
X142810000Y-89050000D02*
X140610000Y-89050000D01*
X142810000Y-90250000D02*
X140610000Y-90250000D01*
X142810000Y-93650000D02*
X140610000Y-93650000D01*
X142810000Y-94850000D02*
X142810000Y-89050000D01*
%TO.C,R41*%
X134410000Y-89050000D02*
X134410000Y-94850000D01*
X134410000Y-94850000D02*
X136610000Y-94850000D01*
X136610000Y-89050000D02*
X134410000Y-89050000D01*
X136610000Y-90250000D02*
X134410000Y-90250000D01*
X136610000Y-93650000D02*
X134410000Y-93650000D01*
X136610000Y-94850000D02*
X136610000Y-89050000D01*
D13*
%TO.C,J3*%
X115115000Y-45317500D02*
X120695000Y-45317500D01*
X115115000Y-46917500D02*
X120695000Y-46917500D01*
X115115000Y-50017500D02*
X120695000Y-50017500D01*
X115115000Y-51017500D02*
X115115000Y-45317500D01*
X115115000Y-51017500D02*
X120695000Y-51017500D01*
X115915000Y-51817500D02*
X115115000Y-51017500D01*
X117271000Y-47659500D02*
X115877000Y-49053500D01*
X117393000Y-47781500D02*
X115999000Y-49175500D01*
X119811000Y-47659500D02*
X118417000Y-49053500D01*
X119933000Y-47781500D02*
X118539000Y-49175500D01*
X120695000Y-45317500D02*
X120695000Y-51817500D01*
X120695000Y-51817500D02*
X115915000Y-51817500D01*
X117635000Y-48417500D02*
G75*
G02*
X115635000Y-48417500I-1000000J0D01*
G01*
X115635000Y-48417500D02*
G75*
G02*
X117635000Y-48417500I1000000J0D01*
G01*
X120175000Y-48417500D02*
G75*
G02*
X118175000Y-48417500I-1000000J0D01*
G01*
X118175000Y-48417500D02*
G75*
G02*
X120175000Y-48417500I1000000J0D01*
G01*
%TO.C,C11*%
X103085000Y-73820000D02*
X104685000Y-73820000D01*
X103085000Y-74620000D02*
X103085000Y-73820000D01*
X104685000Y-73820000D02*
X104685000Y-74620000D01*
X104685000Y-74620000D02*
X103085000Y-74620000D01*
%TO.C,U2*%
X99325000Y-60350000D02*
X100325000Y-59350000D01*
X99325000Y-69510000D02*
X99325000Y-60350000D01*
X100325000Y-59350000D02*
X105675000Y-59350000D01*
X105675000Y-59350000D02*
X105675000Y-69510000D01*
X105675000Y-69510000D02*
X99325000Y-69510000D01*
D11*
%TO.C,R51*%
X170260000Y-103900000D02*
X170260000Y-109700000D01*
X170260000Y-109700000D02*
X172460000Y-109700000D01*
X172460000Y-103900000D02*
X170260000Y-103900000D01*
X172460000Y-105100000D02*
X170260000Y-105100000D01*
X172460000Y-108500000D02*
X170260000Y-108500000D01*
X172460000Y-109700000D02*
X172460000Y-103900000D01*
D13*
%TO.C,C1*%
X77827500Y-84635000D02*
X78627500Y-84635000D01*
X77827500Y-86235000D02*
X77827500Y-84635000D01*
X78627500Y-84635000D02*
X78627500Y-86235000D01*
X78627500Y-86235000D02*
X77827500Y-86235000D01*
%TO.C,J1*%
X66527500Y-82315000D02*
X73027500Y-82315000D01*
X66527500Y-87895000D02*
X66527500Y-82315000D01*
X68127500Y-87895000D02*
X68127500Y-82315000D01*
X68869500Y-83199000D02*
X70263500Y-84593000D01*
X68869500Y-85739000D02*
X70263500Y-87133000D01*
X68991500Y-83077000D02*
X70385500Y-84471000D01*
X68991500Y-85617000D02*
X70385500Y-87011000D01*
X71227500Y-87895000D02*
X71227500Y-82315000D01*
X72227500Y-87895000D02*
X66527500Y-87895000D01*
X72227500Y-87895000D02*
X72227500Y-82315000D01*
X73027500Y-82315000D02*
X73027500Y-87095000D01*
X73027500Y-87095000D02*
X72227500Y-87895000D01*
X70627500Y-83835000D02*
G75*
G02*
X68627500Y-83835000I-1000000J0D01*
G01*
X68627500Y-83835000D02*
G75*
G02*
X70627500Y-83835000I1000000J0D01*
G01*
X70627500Y-86375000D02*
G75*
G02*
X68627500Y-86375000I-1000000J0D01*
G01*
X68627500Y-86375000D02*
G75*
G02*
X70627500Y-86375000I1000000J0D01*
G01*
%TO.C,C21*%
X127110000Y-84420000D02*
X128710000Y-84420000D01*
X127110000Y-85220000D02*
X127110000Y-84420000D01*
X128710000Y-84420000D02*
X128710000Y-85220000D01*
X128710000Y-85220000D02*
X127110000Y-85220000D01*
D11*
%TO.C,R21*%
X125920000Y-69920000D02*
X125920000Y-75720000D01*
X125920000Y-75720000D02*
X128120000Y-75720000D01*
X128120000Y-69920000D02*
X125920000Y-69920000D01*
X128120000Y-71120000D02*
X125920000Y-71120000D01*
X128120000Y-74520000D02*
X125920000Y-74520000D01*
X128120000Y-75720000D02*
X128120000Y-69920000D01*
D13*
%TO.C,U3*%
X110496000Y-98825000D02*
X111131000Y-99460000D01*
X111131000Y-99460000D02*
X110496000Y-100095000D01*
X124720000Y-98315000D02*
X124720000Y-123463000D01*
X135642000Y-98317000D02*
X135642000Y-123463000D01*
X110495000Y-98315000D02*
X141485000Y-98315000D01*
X141485000Y-123465000D01*
X110495000Y-123465000D01*
X110495000Y-98315000D01*
X133225000Y-101367000D02*
G75*
G02*
X126875000Y-101367000I-3175000J0D01*
G01*
X126875000Y-101367000D02*
G75*
G02*
X133225000Y-101367000I3175000J0D01*
G01*
X133225000Y-107715000D02*
G75*
G02*
X126875000Y-107715000I-3175000J0D01*
G01*
X126875000Y-107715000D02*
G75*
G02*
X133225000Y-107715000I3175000J0D01*
G01*
X133225000Y-114065000D02*
G75*
G02*
X126875000Y-114065000I-3175000J0D01*
G01*
X126875000Y-114065000D02*
G75*
G02*
X133225000Y-114065000I3175000J0D01*
G01*
X133225000Y-120415000D02*
G75*
G02*
X126875000Y-120415000I-3175000J0D01*
G01*
X126875000Y-120415000D02*
G75*
G02*
X133225000Y-120415000I3175000J0D01*
G01*
D11*
%TO.C,R57*%
X145010000Y-103900000D02*
X145010000Y-109700000D01*
X145010000Y-109700000D02*
X147210000Y-109700000D01*
X147210000Y-103900000D02*
X145010000Y-103900000D01*
X147210000Y-105100000D02*
X145010000Y-105100000D01*
X147210000Y-108500000D02*
X145010000Y-108500000D01*
X147210000Y-109700000D02*
X147210000Y-103900000D01*
D13*
%TO.C,Q4*%
X128770000Y-67390000D02*
X128770000Y-63890000D01*
X124540000Y-65620000D02*
G75*
G02*
X128773625Y-63866375I2480000J0D01*
G01*
X128773625Y-67373625D02*
G75*
G02*
X124540000Y-65620000I-1753625J1753625D01*
G01*
%TO.C,D2*%
X92327500Y-86135000D02*
X92327500Y-83135000D01*
X93978060Y-83835920D02*
X93978060Y-85436120D01*
X93978060Y-84636020D02*
X93076360Y-84636020D01*
X93978060Y-84636020D02*
X95128680Y-83835920D01*
X93978060Y-84636020D02*
X95128680Y-85385320D01*
X95128680Y-84636020D02*
X96126900Y-84636020D01*
X95128680Y-85385320D02*
X95128680Y-83835920D01*
X96927500Y-83135000D02*
X92327500Y-83135000D01*
X96927500Y-83135000D02*
X96927500Y-86135000D01*
X96927500Y-86135000D02*
X92327500Y-86135000D01*
D11*
%TO.C,R11*%
X94210000Y-72920000D02*
X94210000Y-75120000D01*
X94210000Y-75120000D02*
X100010000Y-75120000D01*
X95410000Y-72920000D02*
X95410000Y-75120000D01*
X98810000Y-72920000D02*
X98810000Y-75120000D01*
X100010000Y-72920000D02*
X94210000Y-72920000D01*
X100010000Y-75120000D02*
X100010000Y-72920000D01*
D13*
%TO.C,U5*%
X129910000Y-94600000D02*
X125510000Y-94600000D01*
X125510000Y-90600000D01*
X126510000Y-89600000D01*
X129910000Y-89600000D01*
X129910000Y-94600000D01*
%TO.C,J2*%
X98390000Y-45200000D02*
X103970000Y-45200000D01*
X98390000Y-46800000D02*
X103970000Y-46800000D01*
X98390000Y-49900000D02*
X103970000Y-49900000D01*
X98390000Y-50900000D02*
X98390000Y-45200000D01*
X98390000Y-50900000D02*
X103970000Y-50900000D01*
X99190000Y-51700000D02*
X98390000Y-50900000D01*
X100546000Y-47542000D02*
X99152000Y-48936000D01*
X100668000Y-47664000D02*
X99274000Y-49058000D01*
X103086000Y-47542000D02*
X101692000Y-48936000D01*
X103208000Y-47664000D02*
X101814000Y-49058000D01*
X103970000Y-45200000D02*
X103970000Y-51700000D01*
X103970000Y-51700000D02*
X99190000Y-51700000D01*
X100910000Y-48300000D02*
G75*
G02*
X98910000Y-48300000I-1000000J0D01*
G01*
X98910000Y-48300000D02*
G75*
G02*
X100910000Y-48300000I1000000J0D01*
G01*
X103450000Y-48300000D02*
G75*
G02*
X101450000Y-48300000I-1000000J0D01*
G01*
X101450000Y-48300000D02*
G75*
G02*
X103450000Y-48300000I1000000J0D01*
G01*
D11*
%TO.C,R52*%
X166110000Y-103900000D02*
X166110000Y-109700000D01*
X166110000Y-109700000D02*
X168310000Y-109700000D01*
X168310000Y-103900000D02*
X166110000Y-103900000D01*
X168310000Y-105100000D02*
X166110000Y-105100000D01*
X168310000Y-108500000D02*
X166110000Y-108500000D01*
X168310000Y-109700000D02*
X168310000Y-103900000D01*
%TO.C,RV1*%
D13*
X72960000Y-62370000D02*
X66460000Y-62370000D01*
X66460000Y-68870000D01*
X72960000Y-68870000D01*
X72960000Y-62370000D01*
D11*
%TO.C,R24*%
X133410000Y-75320000D02*
X133410000Y-81120000D01*
X133410000Y-76520000D02*
X135610000Y-76520000D01*
X133410000Y-79920000D02*
X135610000Y-79920000D01*
X133410000Y-81120000D02*
X135610000Y-81120000D01*
X135610000Y-75320000D02*
X133410000Y-75320000D01*
X135610000Y-81120000D02*
X135610000Y-75320000D01*
%TO.C,R23*%
X141410000Y-65720000D02*
X141410000Y-67920000D01*
X141410000Y-67920000D02*
X147210000Y-67920000D01*
X142610000Y-65720000D02*
X142610000Y-67920000D01*
X146010000Y-65720000D02*
X146010000Y-67920000D01*
X147210000Y-65720000D02*
X141410000Y-65720000D01*
X147210000Y-67920000D02*
X147210000Y-65720000D01*
D13*
%TO.C,C12*%
X95110000Y-63445000D02*
X95910000Y-63445000D01*
X95110000Y-65045000D02*
X95110000Y-63445000D01*
X95910000Y-63445000D02*
X95910000Y-65045000D01*
X95910000Y-65045000D02*
X95110000Y-65045000D01*
%TO.C,C2*%
X88827500Y-84860000D02*
X89627500Y-84860000D01*
X88827500Y-86460000D02*
X88827500Y-84860000D01*
X89627500Y-84860000D02*
X89627500Y-86460000D01*
X89627500Y-86460000D02*
X88827500Y-86460000D01*
%TO.C,X7RDielectric2*%
X126460000Y-79820000D02*
X129660000Y-79820000D01*
X126460000Y-81420000D02*
X126460000Y-79820000D01*
X129660000Y-79820000D02*
X129660000Y-81420000D01*
X129660000Y-81420000D02*
X126460000Y-81420000D01*
D11*
%TO.C,R54*%
X157460000Y-103900000D02*
X157460000Y-109700000D01*
X157460000Y-109700000D02*
X159660000Y-109700000D01*
X159660000Y-103900000D02*
X157460000Y-103900000D01*
X159660000Y-105100000D02*
X157460000Y-105100000D01*
X159660000Y-108500000D02*
X157460000Y-108500000D01*
X159660000Y-109700000D02*
X159660000Y-103900000D01*
D13*
%TO.C,Q1*%
X136390000Y-61960000D02*
X136390000Y-71960000D01*
X137660000Y-65110000D02*
X136390000Y-65110000D01*
X137660000Y-68810000D02*
X136390000Y-68810000D01*
X137660000Y-61960000D02*
X133260000Y-61960000D01*
X133260000Y-71960000D01*
X137660000Y-71960000D01*
X137660000Y-61960000D01*
D11*
%TO.C,R53*%
X161610000Y-103900000D02*
X161610000Y-109700000D01*
X161610000Y-109700000D02*
X163810000Y-109700000D01*
X163810000Y-103900000D02*
X161610000Y-103900000D01*
X163810000Y-105100000D02*
X161610000Y-105100000D01*
X163810000Y-108500000D02*
X161610000Y-108500000D01*
X163810000Y-109700000D02*
X163810000Y-103900000D01*
D13*
%TO.C,BT2*%
X152235000Y-64242546D02*
X152235000Y-67992546D01*
X157985000Y-64242546D02*
X152235000Y-64242546D01*
X157985000Y-64242546D02*
X157985000Y-67992546D01*
X166710000Y-79242546D02*
G75*
G02*
X143510000Y-79242546I-11600000J0D01*
G01*
X143510000Y-79242546D02*
G75*
G02*
X166710000Y-79242546I11600000J0D01*
G01*
D11*
%TO.C,R12*%
X86010000Y-72920000D02*
X86010000Y-75120000D01*
X86010000Y-75120000D02*
X91810000Y-75120000D01*
X87210000Y-72920000D02*
X87210000Y-75120000D01*
X90610000Y-72920000D02*
X90610000Y-75120000D01*
X91810000Y-72920000D02*
X86010000Y-72920000D01*
X91810000Y-75120000D02*
X91810000Y-72920000D01*
D13*
%TO.C,D3*%
X81527500Y-86135000D02*
X81527500Y-83135000D01*
X83178060Y-83835920D02*
X83178060Y-85436120D01*
X83178060Y-84636020D02*
X82276360Y-84636020D01*
X83178060Y-84636020D02*
X84328680Y-83835920D01*
X83178060Y-84636020D02*
X84328680Y-85385320D01*
X84328680Y-84636020D02*
X85326900Y-84636020D01*
X84328680Y-85385320D02*
X84328680Y-83835920D01*
X86127500Y-83135000D02*
X81527500Y-83135000D01*
X86127500Y-83135000D02*
X86127500Y-86135000D01*
X86127500Y-86135000D02*
X81527500Y-86135000D01*
D11*
%TO.C,R55*%
X153310000Y-103900000D02*
X153310000Y-109700000D01*
X153310000Y-109700000D02*
X155510000Y-109700000D01*
X155510000Y-103900000D02*
X153310000Y-103900000D01*
X155510000Y-105100000D02*
X153310000Y-105100000D01*
X155510000Y-108500000D02*
X153310000Y-108500000D01*
X155510000Y-109700000D02*
X155510000Y-103900000D01*
D13*
%TO.C,U4*%
X153460000Y-95437500D02*
X153460000Y-98437500D01*
X149460000Y-98437500D01*
X149460000Y-94437500D01*
X152460000Y-94437500D01*
X153460000Y-95437500D01*
D11*
%TO.C,R22*%
X113760000Y-64520000D02*
X113760000Y-66720000D01*
X113760000Y-66720000D02*
X119560000Y-66720000D01*
X114960000Y-66720000D02*
X114960000Y-64520000D01*
X118360000Y-66720000D02*
X118360000Y-64520000D01*
X119560000Y-64520000D02*
X113760000Y-64520000D01*
X119560000Y-66720000D02*
X119560000Y-64520000D01*
%TD*%
M02*
